0
SECTION
2
HEADER
9
$ACADVER
1
AC1009
9
$INSBASE
10
0
20
0
30
0
0
ENDSEC
0
SECTION
2
TABLES
0
TABLE
2
LTYPE
5
4
100
AcDbSymbolTable
70
1
0
LTYPE
5
11
100
AcDbSymbolTableRecord
100
AcDbLinetypeTableRecord
2
Dash_line1
70
65
3
 
72
65
73
2
40
1
49
0.5
74
0
49
0.5
74
0
0
ENDTAB
0
TABLE
2
STYLE
5
3
100
AcDbSymbolTable
70
3
0
STYLE
5
17
100
AcDbSymbolTableRecord
100
AcDbTextStyleTableRecord
2
Arial
70
0
40
0
41
0
50
0
71
0
42
3
3
Arial
4
 
0
STYLE
5
17
100
AcDbSymbolTableRecord
100
AcDbTextStyleTableRecord
2
Times
70
0
40
0
41
0
50
0
71
0
42
3
3
Times New Roman
4
 
0
STYLE
5
17
100
AcDbSymbolTableRecord
100
AcDbTextStyleTableRecord
2
GOST
70
0
40
0
41
0
50
0
71
0
42
3
3
GOST Type A
4
 
0
ENDTAB
0
ENDSEC
0
SECTION
2
ENTITIES
0
SPLINE
5
100
100
AcDbEntity
8
0
62
255
39
10000
100
AcDbSpline
210
0
220
0
230
1
70
0
71
3
72
20
73
16
74
0
42
1e-10
43
1e-10
40
0
40
0
40
0
40
0
40
0.25
40
0.25
40
0.25
40
0.25
40
0.5
40
0.5
40
0.5
40
0.5
40
0.75
40
0.75
40
0.75
40
0.75
40
1
40
1
40
1
40
1
10
-190
20
-143.5
30
0
10
-190
20
-143.5
30
0
10
-190
20
143.5
30
0
10
-190
20
143.5
30
0
10
-190
20
143.5
30
0
10
-190
20
143.5
30
0
10
205
20
143.5
30
0
10
205
20
143.5
30
0
10
205
20
143.5
30
0
10
205
20
143.5
30
0
10
205
20
-143.5
30
0
10
205
20
-143.5
30
0
10
205
20
-143.5
30
0
10
205
20
-143.5
30
0
10
-190
20
-143.5
30
0
10
-190
20
-143.5
30
0
0
SPLINE
5
101
100
AcDbEntity
8
0
62
255
39
10000
100
AcDbSpline
210
0
220
0
230
1
70
0
71
3
72
12
73
8
74
0
42
1e-10
43
1e-10
40
0
40
0
40
0
40
0
40
0.5
40
0.5
40
0.5
40
0.5
40
1
40
1
40
1
40
1
10
20
20
-143.5
30
0
10
20
20
-143.5
30
0
10
20
20
-88.5
30
0
10
20
20
-88.5
30
0
10
20
20
-88.5
30
0
10
20
20
-88.5
30
0
10
205
20
-88.5
30
0
10
205
20
-88.5
30
0
0
SPLINE
5
102
100
AcDbEntity
8
0
62
255
39
10000
100
AcDbSpline
210
0
220
0
230
1
70
0
71
3
72
8
73
4
74
0
42
1e-10
43
1e-10
40
0
40
0
40
0
40
0
40
1
40
1
40
1
40
1
10
85
20
-143.5
30
0
10
85
20
-143.5
30
0
10
85
20
-88.5
30
0
10
85
20
-88.5
30
0
0
SPLINE
5
103
100
AcDbEntity
8
0
62
255
39
10000
100
AcDbSpline
210
0
220
0
230
1
70
0
71
3
72
8
73
4
74
0
42
1e-10
43
1e-10
40
0
40
0
40
0
40
0
40
1
40
1
40
1
40
1
10
30
20
-113.5
30
0
10
30
20
-113.5
30
0
10
30
20
-88.5
30
0
10
30
20
-88.5
30
0
0
SPLINE
5
104
100
AcDbEntity
8
0
62
255
39
10000
100
AcDbSpline
210
0
220
0
230
1
70
0
71
3
72
8
73
4
74
0
42
1e-10
43
1e-10
40
0
40
0
40
0
40
0
40
1
40
1
40
1
40
1
10
40
20
-143.5
30
0
10
40
20
-143.5
30
0
10
40
20
-88.5
30
0
10
40
20
-88.5
30
0
0
SPLINE
5
105
100
AcDbEntity
8
0
62
255
39
10000
100
AcDbSpline
210
0
220
0
230
1
70
0
71
3
72
8
73
4
74
0
42
1e-10
43
1e-10
40
0
40
0
40
0
40
0
40
1
40
1
40
1
40
1
10
50
20
-113.5
30
0
10
50
20
-113.5
30
0
10
50
20
-88.5
30
0
10
50
20
-88.5
30
0
0
SPLINE
5
106
100
AcDbEntity
8
0
62
255
39
10000
100
AcDbSpline
210
0
220
0
230
1
70
0
71
3
72
8
73
4
74
0
42
1e-10
43
1e-10
40
0
40
0
40
0
40
0
40
1
40
1
40
1
40
1
10
60
20
-143.5
30
0
10
60
20
-143.5
30
0
10
60
20
-88.5
30
0
10
60
20
-88.5
30
0
0
SPLINE
5
107
100
AcDbEntity
8
0
62
255
39
10000
100
AcDbSpline
210
0
220
0
230
1
70
0
71
3
72
8
73
4
74
0
42
1e-10
43
1e-10
40
0
40
0
40
0
40
0
40
1
40
1
40
1
40
1
10
75
20
-143.5
30
0
10
75
20
-143.5
30
0
10
75
20
-88.5
30
0
10
75
20
-88.5
30
0
0
SPLINE
5
108
100
AcDbEntity
8
0
62
255
39
10000
100
AcDbSpline
210
0
220
0
230
1
70
0
71
3
72
8
73
4
74
0
42
1e-10
43
1e-10
40
0
40
0
40
0
40
0
40
1
40
1
40
1
40
1
10
155
20
-143.5
30
0
10
155
20
-143.5
30
0
10
155
20
-113.5
30
0
10
155
20
-113.5
30
0
0
SPLINE
5
109
100
AcDbEntity
8
0
62
255
39
10000
100
AcDbSpline
210
0
220
0
230
1
70
0
71
3
72
8
73
4
74
0
42
1e-10
43
1e-10
40
0
40
0
40
0
40
0
40
1
40
1
40
1
40
1
10
170
20
-128.5
30
0
10
170
20
-128.5
30
0
10
170
20
-113.5
30
0
10
170
20
-113.5
30
0
0
SPLINE
5
110
100
AcDbEntity
8
0
62
255
39
10000
100
AcDbSpline
210
0
220
0
230
1
70
0
71
3
72
8
73
4
74
0
42
1e-10
43
1e-10
40
0
40
0
40
0
40
0
40
1
40
1
40
1
40
1
10
185
20
-128.5
30
0
10
185
20
-128.5
30
0
10
185
20
-113.5
30
0
10
185
20
-113.5
30
0
0
SPLINE
5
111
100
AcDbEntity
8
0
62
255
39
3000
100
AcDbSpline
210
0
220
0
230
1
70
0
71
3
72
8
73
4
74
0
42
1e-10
43
1e-10
40
0
40
0
40
0
40
0
40
1
40
1
40
1
40
1
10
20
20
-93.5
30
0
10
20
20
-93.5
30
0
10
85
20
-93.5
30
0
10
85
20
-93.5
30
0
0
SPLINE
5
112
100
AcDbEntity
8
0
62
255
39
3000
100
AcDbSpline
210
0
220
0
230
1
70
0
71
3
72
8
73
4
74
0
42
1e-10
43
1e-10
40
0
40
0
40
0
40
0
40
1
40
1
40
1
40
1
10
20
20
-98.5
30
0
10
20
20
-98.5
30
0
10
85
20
-98.5
30
0
10
85
20
-98.5
30
0
0
SPLINE
5
113
100
AcDbEntity
8
0
62
255
39
3000
100
AcDbSpline
210
0
220
0
230
1
70
0
71
3
72
8
73
4
74
0
42
1e-10
43
1e-10
40
0
40
0
40
0
40
0
40
1
40
1
40
1
40
1
10
20
20
-103.5
30
0
10
20
20
-103.5
30
0
10
85
20
-103.5
30
0
10
85
20
-103.5
30
0
0
SPLINE
5
114
100
AcDbEntity
8
0
62
255
39
10000
100
AcDbSpline
210
0
220
0
230
1
70
0
71
3
72
8
73
4
74
0
42
1e-10
43
1e-10
40
0
40
0
40
0
40
0
40
1
40
1
40
1
40
1
10
20
20
-108.5
30
0
10
20
20
-108.5
30
0
10
85
20
-108.5
30
0
10
85
20
-108.5
30
0
0
SPLINE
5
115
100
AcDbEntity
8
0
62
255
39
10000
100
AcDbSpline
210
0
220
0
230
1
70
0
71
3
72
8
73
4
74
0
42
1e-10
43
1e-10
40
0
40
0
40
0
40
0
40
1
40
1
40
1
40
1
10
20
20
-113.5
30
0
10
20
20
-113.5
30
0
10
205
20
-113.5
30
0
10
205
20
-113.5
30
0
0
SPLINE
5
116
100
AcDbEntity
8
0
62
255
39
3000
100
AcDbSpline
210
0
220
0
230
1
70
0
71
3
72
8
73
4
74
0
42
1e-10
43
1e-10
40
0
40
0
40
0
40
0
40
1
40
1
40
1
40
1
10
20
20
-118.5
30
0
10
20
20
-118.5
30
0
10
85
20
-118.5
30
0
10
85
20
-118.5
30
0
0
SPLINE
5
117
100
AcDbEntity
8
0
62
255
39
3000
100
AcDbSpline
210
0
220
0
230
1
70
0
71
3
72
8
73
4
74
0
42
1e-10
43
1e-10
40
0
40
0
40
0
40
0
40
1
40
1
40
1
40
1
10
20
20
-123.5
30
0
10
20
20
-123.5
30
0
10
85
20
-123.5
30
0
10
85
20
-123.5
30
0
0
SPLINE
5
118
100
AcDbEntity
8
0
62
255
39
3000
100
AcDbSpline
210
0
220
0
230
1
70
0
71
3
72
8
73
4
74
0
42
1e-10
43
1e-10
40
0
40
0
40
0
40
0
40
1
40
1
40
1
40
1
10
20
20
-128.5
30
0
10
20
20
-128.5
30
0
10
85
20
-128.5
30
0
10
85
20
-128.5
30
0
0
SPLINE
5
119
100
AcDbEntity
8
0
62
255
39
3000
100
AcDbSpline
210
0
220
0
230
1
70
0
71
3
72
8
73
4
74
0
42
1e-10
43
1e-10
40
0
40
0
40
0
40
0
40
1
40
1
40
1
40
1
10
20
20
-133.5
30
0
10
20
20
-133.5
30
0
10
85
20
-133.5
30
0
10
85
20
-133.5
30
0
0
SPLINE
5
120
100
AcDbEntity
8
0
62
255
39
3000
100
AcDbSpline
210
0
220
0
230
1
70
0
71
3
72
8
73
4
74
0
42
1e-10
43
1e-10
40
0
40
0
40
0
40
0
40
1
40
1
40
1
40
1
10
20
20
-138.5
30
0
10
20
20
-138.5
30
0
10
85
20
-138.5
30
0
10
85
20
-138.5
30
0
0
SPLINE
5
121
100
AcDbEntity
8
0
62
255
39
10000
100
AcDbSpline
210
0
220
0
230
1
70
0
71
3
72
8
73
4
74
0
42
1e-10
43
1e-10
40
0
40
0
40
0
40
0
40
1
40
1
40
1
40
1
10
85
20
-98.5
30
0
10
85
20
-98.5
30
0
10
205
20
-98.5
30
0
10
205
20
-98.5
30
0
0
SPLINE
5
122
100
AcDbEntity
8
0
62
255
39
10000
100
AcDbSpline
210
0
220
0
230
1
70
0
71
3
72
8
73
4
74
0
42
1e-10
43
1e-10
40
0
40
0
40
0
40
0
40
1
40
1
40
1
40
1
10
155
20
-118.5
30
0
10
155
20
-118.5
30
0
10
205
20
-118.5
30
0
10
205
20
-118.5
30
0
0
SPLINE
5
123
100
AcDbEntity
8
0
62
255
39
10000
100
AcDbSpline
210
0
220
0
230
1
70
0
71
3
72
8
73
4
74
0
42
1e-10
43
1e-10
40
0
40
0
40
0
40
0
40
1
40
1
40
1
40
1
10
85
20
-128.5
30
0
10
85
20
-128.5
30
0
10
205
20
-128.5
30
0
10
205
20
-128.5
30
0
0
TEXT
100
AcDbText
8
0
62
255
10
145
20
-95.3
30
0
11
145
21
-95.3
31
0
72
1
73
0
40
4.06401
1
\u+0425\u+0425\u+0425\u+0425\u+002d\u+0030\u+002d\u+0420\u+041b
50
0
7
GOST
100
AcDbText
0
TEXT
100
AcDbText
8
0
62
255
10
120
20
-122.5
30
0
11
120
21
-122.5
31
0
72
1
73
0
40
3.04801
1
\u+000a\u+0020\u+002d\u+0020\u+000a
50
0
7
GOST
100
AcDbText
0
TEXT
100
AcDbText
8
0
62
255
10
120
20
-136.8
30
0
11
120
21
-136.8
31
0
72
1
73
0
40
3.04801
1
\u+041f\u+0440\u+043e\u+0434\u+043e\u+043b\u+044c\u+043d\u+044b\u+0439\u+0020\u+043f\u+0440\u+043e\u+0444\u+0438\u+043b\u+044c\u+0020\u+0438\u+043d\u+0442\u+0435\u+0440\u+0432\u+0430\u+043b\u+0430\u+0020\u+0420\u+0420\u+041b
50
0
7
GOST
100
AcDbText
0
TEXT
100
AcDbText
8
0
62
255
10
162.5
20
-117
30
0
11
162.5
21
-117
31
0
72
1
73
0
40
2.54
1
\u+0421\u+0442\u+0430\u+0434\u+0438\u+044f
50
0
7
GOST
100
AcDbText
0
TEXT
100
AcDbText
8
0
62
255
10
177.5
20
-117
30
0
11
177.5
21
-117
31
0
72
1
73
0
40
2.54
1
\u+041b\u+0438\u+0441\u+0442
50
0
7
GOST
100
AcDbText
0
TEXT
100
AcDbText
8
0
62
255
10
195
20
-117
30
0
11
195
21
-117
31
0
72
1
73
0
40
2.54
1
\u+041b\u+0438\u+0441\u+0442\u+043e\u+0432
50
0
7
GOST
100
AcDbText
0
TEXT
100
AcDbText
8
0
62
255
10
163
20
-124.7
30
0
11
163
21
-124.7
31
0
72
1
73
0
40
3.04801
1
\u+041f
50
0
7
GOST
100
AcDbText
0
TEXT
100
AcDbText
8
0
62
255
10
177.5
20
-124.7
30
0
11
177.5
21
-124.7
31
0
72
1
73
0
40
3.04801
1
\u+002d
50
0
7
GOST
100
AcDbText
0
TEXT
100
AcDbText
8
0
62
255
10
195
20
-124.7
30
0
11
195
21
-124.7
31
0
72
1
73
0
40
3.04801
1
\u+0031
50
0
7
GOST
100
AcDbText
0
TEXT
100
AcDbText
8
0
62
255
10
180
20
-136.8
30
0
11
180
21
-136.8
31
0
72
1
73
0
40
3.04801
1
\u+041e\u+0410\u+041e\u+0020\u+00ab\u+0413\u+0438\u+043f\u+0440\u+043e\u+0441\u+0432\u+044f\u+0437\u+044c\u+002d\u+0034\u+00bb
50
0
7
GOST
100
AcDbText
0
TEXT
100
AcDbText
8
0
62
255
10
25
20
-112
30
0
11
25
21
-112
31
0
72
1
73
0
40
2.54
1
\u+0418\u+0437\u+043c\u+002e
50
0
7
GOST
100
AcDbText
0
TEXT
100
AcDbText
8
0
62
255
10
35
20
-112
30
0
11
35
21
-112
31
0
72
1
73
0
40
2.54
1
\u+041a\u+002e\u+0020\u+0443\u+0447\u+002e
50
0
7
GOST
100
AcDbText
0
TEXT
100
AcDbText
8
0
62
255
10
45
20
-112
30
0
11
45
21
-112
31
0
72
1
73
0
40
2.54
1
\u+041b\u+0438\u+0441\u+0442
50
0
7
GOST
100
AcDbText
0
TEXT
100
AcDbText
8
0
62
255
10
55
20
-112
30
0
11
55
21
-112
31
0
72
1
73
0
40
2.54
1
\u+00b9\u+0434\u+043e\u+043a\u+002e
50
0
7
GOST
100
AcDbText
0
TEXT
100
AcDbText
8
0
62
255
10
67.5
20
-112
30
0
11
67.5
21
-112
31
0
72
1
73
0
40
2.54
1
\u+041f\u+043e\u+0434\u+043f\u+0438\u+0441\u+044c
50
0
7
GOST
100
AcDbText
0
TEXT
100
AcDbText
8
0
62
255
10
80
20
-112
30
0
11
80
21
-112
31
0
72
1
73
0
40
2.54
1
\u+0414\u+0430\u+0442\u+0430
50
0
7
GOST
100
AcDbText
0
TEXT
100
AcDbText
8
0
62
255
10
21
20
-117.5
30
0
11
21
21
-117.5
31
0
72
0
73
0
40
3.04801
1
\u+0420\u+0430\u+0437\u+0440\u+0430\u+0431\u+002e
50
0
7
GOST
100
AcDbText
0
TEXT
100
AcDbText
8
0
62
255
10
41
20
-117.5
30
0
11
41
21
-117.5
31
0
72
0
73
0
40
3.04801
1
\u+0424\u+0430\u+043c\u+0438\u+043b\u+0438\u+044f
50
0
7
GOST
100
AcDbText
0
TEXT
100
AcDbText
8
0
62
255
10
21
20
-122.5
30
0
11
21
21
-122.5
31
0
72
0
73
0
40
3.04801
1
\u+041f\u+0440\u+043e\u+0432\u+0435\u+0440\u+0438\u+043b
50
0
7
GOST
100
AcDbText
0
TEXT
100
AcDbText
8
0
62
255
10
41
20
-122.5
30
0
11
41
21
-122.5
31
0
72
0
73
0
40
3.04801
1
\u+0424\u+0430\u+043c\u+0438\u+043b\u+0438\u+044f
50
0
7
GOST
100
AcDbText
0
TEXT
100
AcDbText
8
0
62
255
10
21
20
-127.5
30
0
11
21
21
-127.5
31
0
72
0
73
0
40
3.04801
1
\u+0413\u+043b\u+002e\u+0020\u+0442\u+0435\u+0445\u+043d\u+002e
50
0
7
GOST
100
AcDbText
0
TEXT
100
AcDbText
8
0
62
255
10
41
20
-127.5
30
0
11
41
21
-127.5
31
0
72
0
73
0
40
3.04801
1
\u+0424\u+0430\u+043c\u+0438\u+043b\u+0438\u+044f
50
0
7
GOST
100
AcDbText
0
TEXT
100
AcDbText
8
0
62
255
10
21
20
-132.5
30
0
11
21
21
-132.5
31
0
72
0
73
0
40
3.04801
1
\u+041d\u+0430\u+0447\u+002e\u+0020\u+043e\u+0442\u+0434\u+002e
50
0
7
GOST
100
AcDbText
0
TEXT
100
AcDbText
8
0
62
255
10
41
20
-132.5
30
0
11
41
21
-132.5
31
0
72
0
73
0
40
3.04801
1
\u+0424\u+0430\u+043c\u+0438\u+043b\u+0438\u+044f
50
0
7
GOST
100
AcDbText
0
TEXT
100
AcDbText
8
0
62
255
10
21
20
-137.5
30
0
11
21
21
-137.5
31
0
72
0
73
0
40
3.04801
1
\u+041d\u+002e\u+0020\u+043a\u+043e\u+043d\u+0442\u+0440\u+002e
50
0
7
GOST
100
AcDbText
0
TEXT
100
AcDbText
8
0
62
255
10
41
20
-137.5
30
0
11
41
21
-137.5
31
0
72
0
73
0
40
3.04801
1
\u+0424\u+0430\u+043c\u+0438\u+043b\u+0438\u+044f
50
0
7
GOST
100
AcDbText
0
TEXT
100
AcDbText
8
0
62
255
10
21
20
-142.5
30
0
11
21
21
-142.5
31
0
72
0
73
0
40
3.04801
1
\u+0413\u+0418\u+041f
50
0
7
GOST
100
AcDbText
0
TEXT
100
AcDbText
8
0
62
255
10
41
20
-142.5
30
0
11
41
21
-142.5
31
0
72
0
73
0
40
3.04801
1
\u+0424\u+0430\u+043c\u+0438\u+043b\u+0438\u+044f
50
0
7
GOST
100
AcDbText
0
SPLINE
5
124
100
AcDbEntity
8
0
62
255
39
10000
100
AcDbSpline
210
0
220
0
230
1
70
0
71
3
72
16
73
12
74
0
42
1e-10
43
1e-10
40
0
40
0
40
0
40
0
40
0.333333
40
0.333333
40
0.333333
40
0.333333
40
0.666667
40
0.666667
40
0.666667
40
0.666667
40
1
40
1
40
1
40
1
10
-190
20
-58.5
30
0
10
-190
20
-58.5
30
0
10
-202
20
-58.5
30
0
10
-202
20
-58.5
30
0
10
-202
20
-58.5
30
0
10
-202
20
-58.5
30
0
10
-202
20
-143.5
30
0
10
-202
20
-143.5
30
0
10
-202
20
-143.5
30
0
10
-202
20
-143.5
30
0
10
-190
20
-143.5
30
0
10
-190
20
-143.5
30
0
0
SPLINE
5
125
100
AcDbEntity
8
0
62
255
39
10000
100
AcDbSpline
210
0
220
0
230
1
70
0
71
3
72
8
73
4
74
0
42
1e-10
43
1e-10
40
0
40
0
40
0
40
0
40
1
40
1
40
1
40
1
10
-197
20
-143.5
30
0
10
-197
20
-143.5
30
0
10
-197
20
-58.5
30
0
10
-197
20
-58.5
30
0
0
SPLINE
5
126
100
AcDbEntity
8
0
62
255
39
10000
100
AcDbSpline
210
0
220
0
230
1
70
0
71
3
72
8
73
4
74
0
42
1e-10
43
1e-10
40
0
40
0
40
0
40
0
40
1
40
1
40
1
40
1
10
-202
20
-118.5
30
0
10
-202
20
-118.5
30
0
10
-190
20
-118.5
30
0
10
-190
20
-118.5
30
0
0
SPLINE
5
127
100
AcDbEntity
8
0
62
255
39
10000
100
AcDbSpline
210
0
220
0
230
1
70
0
71
3
72
8
73
4
74
0
42
1e-10
43
1e-10
40
0
40
0
40
0
40
0
40
1
40
1
40
1
40
1
10
-202
20
-83.5
30
0
10
-202
20
-83.5
30
0
10
-190
20
-83.5
30
0
10
-190
20
-83.5
30
0
0
SPLINE
5
128
100
AcDbEntity
8
0
62
255
39
10000
100
AcDbSpline
210
0
220
0
230
1
70
0
71
3
72
16
73
12
74
0
42
1e-10
43
1e-10
40
0
40
0
40
0
40
0
40
0.333333
40
0.333333
40
0.333333
40
0.333333
40
0.666667
40
0.666667
40
0.666667
40
0.666667
40
1
40
1
40
1
40
1
10
-190
20
6.5
30
0
10
-190
20
6.5
30
0
10
-205
20
6.5
30
0
10
-205
20
6.5
30
0
10
-205
20
6.5
30
0
10
-205
20
6.5
30
0
10
-205
20
-58.5
30
0
10
-205
20
-58.5
30
0
10
-205
20
-58.5
30
0
10
-205
20
-58.5
30
0
10
-190
20
-58.5
30
0
10
-190
20
-58.5
30
0
0
SPLINE
5
129
100
AcDbEntity
8
0
62
255
39
10000
100
AcDbSpline
210
0
220
0
230
1
70
0
71
3
72
8
73
4
74
0
42
1e-10
43
1e-10
40
0
40
0
40
0
40
0
40
1
40
1
40
1
40
1
10
-200
20
-58.5
30
0
10
-200
20
-58.5
30
0
10
-200
20
6.5
30
0
10
-200
20
6.5
30
0
0
SPLINE
5
130
100
AcDbEntity
8
0
62
255
39
10000
100
AcDbSpline
210
0
220
0
230
1
70
0
71
3
72
8
73
4
74
0
42
1e-10
43
1e-10
40
0
40
0
40
0
40
0
40
1
40
1
40
1
40
1
10
-195
20
-58.5
30
0
10
-195
20
-58.5
30
0
10
-195
20
6.5
30
0
10
-195
20
6.5
30
0
0
SPLINE
5
131
100
AcDbEntity
8
0
62
255
39
10000
100
AcDbSpline
210
0
220
0
230
1
70
0
71
3
72
8
73
4
74
0
42
1e-10
43
1e-10
40
0
40
0
40
0
40
0
40
1
40
1
40
1
40
1
10
-200
20
-38.5
30
0
10
-200
20
-38.5
30
0
10
-190
20
-38.5
30
0
10
-190
20
-38.5
30
0
0
SPLINE
5
132
100
AcDbEntity
8
0
62
255
39
10000
100
AcDbSpline
210
0
220
0
230
1
70
0
71
3
72
8
73
4
74
0
42
1e-10
43
1e-10
40
0
40
0
40
0
40
0
40
1
40
1
40
1
40
1
10
-200
20
-18.5
30
0
10
-200
20
-18.5
30
0
10
-190
20
-18.5
30
0
10
-190
20
-18.5
30
0
0
SPLINE
5
133
100
AcDbEntity
8
0
62
255
39
10000
100
AcDbSpline
210
0
220
0
230
1
70
0
71
3
72
8
73
4
74
0
42
1e-10
43
1e-10
40
0
40
0
40
0
40
0
40
1
40
1
40
1
40
1
10
-200
20
-3.5
30
0
10
-200
20
-3.5
30
0
10
-190
20
-3.5
30
0
10
-190
20
-3.5
30
0
0
TEXT
100
AcDbText
8
0
62
255
10
-198
20
-142
30
0
11
-198
21
-142
31
0
72
0
73
0
40
3.04801
1
\u+0418\u+043d\u+0432\u+002e\u+0020\u+00b9\u+0020\u+043f\u+043e\u+0434\u+043b\u+002e
50
90
7
GOST
100
AcDbText
0
TEXT
100
AcDbText
8
0
62
255
10
-198
20
-112
30
0
11
-198
21
-112
31
0
72
0
73
0
40
3.04801
1
\u+041f\u+043e\u+0434\u+043f\u+002e\u+0020\u+0438\u+0020\u+0434\u+0430\u+0442\u+0430
50
90
7
GOST
100
AcDbText
0
TEXT
100
AcDbText
8
0
62
255
10
-198
20
-82
30
0
11
-198
21
-82
31
0
72
0
73
0
40
3.04801
1
\u+0412\u+0437\u+0430\u+043c\u+002e\u+0020\u+0438\u+043d\u+0432\u+002e\u+0020\u+00b9
50
90
7
GOST
100
AcDbText
0
TEXT
100
AcDbText
8
0
62
255
10
-201
20
-55
30
0
11
-201
21
-55
31
0
72
0
73
0
40
3.04801
1
\u+0421\u+043e\u+0433\u+043b\u+0430\u+0441\u+043e\u+0432\u+0430\u+043d\u+043e
50
90
7
GOST
100
AcDbText
0
TEXT
100
AcDbText
8
0
62
255
10
160
20
-147.4
30
0
11
160
21
-147.4
31
0
72
0
73
0
40
2.54
1
\u+0424\u+043e\u+0440\u+043c\u+0430\u+0442\u+0020\u+0410\u+0033
50
0
7
GOST
100
AcDbText
0
SPLINE
5
134
100
AcDbEntity
8
0
62
255
39
5000
100
AcDbSpline
210
0
220
0
230
1
70
0
71
3
72
8
73
4
74
0
42
1e-10
43
1e-10
40
0
40
0
40
0
40
0
40
1
40
1
40
1
40
1
10
-82.5
20
-38.5
30
0
10
-82.5
20
-38.5
30
0
10
117.5
20
-38.5
30
0
10
117.5
20
-38.5
30
0
0
SPLINE
5
135
100
AcDbEntity
8
0
62
255
39
2500
100
AcDbSpline
210
0
220
0
230
1
70
0
71
3
72
404
73
400
74
0
42
1e-10
43
1e-10
40
0
40
0
40
0
40
0
40
0.01
40
0.01
40
0.01
40
0.01
40
0.02
40
0.02
40
0.02
40
0.02
40
0.03
40
0.03
40
0.03
40
0.03
40
0.04
40
0.04
40
0.04
40
0.04
40
0.05
40
0.05
40
0.05
40
0.05
40
0.06
40
0.06
40
0.06
40
0.06
40
0.07
40
0.07
40
0.07
40
0.07
40
0.08
40
0.08
40
0.08
40
0.08
40
0.09
40
0.09
40
0.09
40
0.09
40
0.1
40
0.1
40
0.1
40
0.1
40
0.11
40
0.11
40
0.11
40
0.11
40
0.12
40
0.12
40
0.12
40
0.12
40
0.13
40
0.13
40
0.13
40
0.13
40
0.14
40
0.14
40
0.14
40
0.14
40
0.15
40
0.15
40
0.15
40
0.15
40
0.16
40
0.16
40
0.16
40
0.16
40
0.17
40
0.17
40
0.17
40
0.17
40
0.18
40
0.18
40
0.18
40
0.18
40
0.19
40
0.19
40
0.19
40
0.19
40
0.2
40
0.2
40
0.2
40
0.2
40
0.21
40
0.21
40
0.21
40
0.21
40
0.22
40
0.22
40
0.22
40
0.22
40
0.23
40
0.23
40
0.23
40
0.23
40
0.24
40
0.24
40
0.24
40
0.24
40
0.25
40
0.25
40
0.25
40
0.25
40
0.26
40
0.26
40
0.26
40
0.26
40
0.27
40
0.27
40
0.27
40
0.27
40
0.28
40
0.28
40
0.28
40
0.28
40
0.29
40
0.29
40
0.29
40
0.29
40
0.3
40
0.3
40
0.3
40
0.3
40
0.31
40
0.31
40
0.31
40
0.31
40
0.32
40
0.32
40
0.32
40
0.32
40
0.33
40
0.33
40
0.33
40
0.33
40
0.34
40
0.34
40
0.34
40
0.34
40
0.35
40
0.35
40
0.35
40
0.35
40
0.36
40
0.36
40
0.36
40
0.36
40
0.37
40
0.37
40
0.37
40
0.37
40
0.38
40
0.38
40
0.38
40
0.38
40
0.39
40
0.39
40
0.39
40
0.39
40
0.4
40
0.4
40
0.4
40
0.4
40
0.41
40
0.41
40
0.41
40
0.41
40
0.42
40
0.42
40
0.42
40
0.42
40
0.43
40
0.43
40
0.43
40
0.43
40
0.44
40
0.44
40
0.44
40
0.44
40
0.45
40
0.45
40
0.45
40
0.45
40
0.46
40
0.46
40
0.46
40
0.46
40
0.47
40
0.47
40
0.47
40
0.47
40
0.48
40
0.48
40
0.48
40
0.48
40
0.49
40
0.49
40
0.49
40
0.49
40
0.5
40
0.5
40
0.5
40
0.5
40
0.51
40
0.51
40
0.51
40
0.51
40
0.52
40
0.52
40
0.52
40
0.52
40
0.53
40
0.53
40
0.53
40
0.53
40
0.54
40
0.54
40
0.54
40
0.54
40
0.55
40
0.55
40
0.55
40
0.55
40
0.56
40
0.56
40
0.56
40
0.56
40
0.57
40
0.57
40
0.57
40
0.57
40
0.58
40
0.58
40
0.58
40
0.58
40
0.59
40
0.59
40
0.59
40
0.59
40
0.6
40
0.6
40
0.6
40
0.6
40
0.61
40
0.61
40
0.61
40
0.61
40
0.62
40
0.62
40
0.62
40
0.62
40
0.63
40
0.63
40
0.63
40
0.63
40
0.64
40
0.64
40
0.64
40
0.64
40
0.65
40
0.65
40
0.65
40
0.65
40
0.66
40
0.66
40
0.66
40
0.66
40
0.67
40
0.67
40
0.67
40
0.67
40
0.68
40
0.68
40
0.68
40
0.68
40
0.69
40
0.69
40
0.69
40
0.69
40
0.7
40
0.7
40
0.7
40
0.7
40
0.71
40
0.71
40
0.71
40
0.71
40
0.72
40
0.72
40
0.72
40
0.72
40
0.73
40
0.73
40
0.73
40
0.73
40
0.74
40
0.74
40
0.74
40
0.74
40
0.75
40
0.75
40
0.75
40
0.75
40
0.76
40
0.76
40
0.76
40
0.76
40
0.77
40
0.77
40
0.77
40
0.77
40
0.78
40
0.78
40
0.78
40
0.78
40
0.79
40
0.79
40
0.79
40
0.79
40
0.8
40
0.8
40
0.8
40
0.8
40
0.81
40
0.81
40
0.81
40
0.81
40
0.82
40
0.82
40
0.82
40
0.82
40
0.83
40
0.83
40
0.83
40
0.83
40
0.84
40
0.84
40
0.84
40
0.84
40
0.85
40
0.85
40
0.85
40
0.85
40
0.86
40
0.86
40
0.86
40
0.86
40
0.87
40
0.87
40
0.87
40
0.87
40
0.88
40
0.88
40
0.88
40
0.88
40
0.89
40
0.89
40
0.89
40
0.89
40
0.9
40
0.9
40
0.9
40
0.9
40
0.91
40
0.91
40
0.91
40
0.91
40
0.92
40
0.92
40
0.92
40
0.92
40
0.93
40
0.93
40
0.93
40
0.93
40
0.94
40
0.94
40
0.94
40
0.94
40
0.95
40
0.95
40
0.95
40
0.95
40
0.96
40
0.96
40
0.96
40
0.96
40
0.97
40
0.97
40
0.97
40
0.97
40
0.98
40
0.98
40
0.98
40
0.98
40
0.99
40
0.99
40
0.99
40
0.99
40
1
40
1
40
1
40
1
10
-82.5
20
-38.5
30
0
10
-82.5
20
-38.5
30
0
10
-80.5
20
-36.9441
30
0
10
-80.5
20
-36.9441
30
0
10
-80.5
20
-36.9441
30
0
10
-80.5
20
-36.9441
30
0
10
-78.5
20
-35.4197
30
0
10
-78.5
20
-35.4197
30
0
10
-78.5
20
-35.4197
30
0
10
-78.5
20
-35.4197
30
0
10
-76.5
20
-33.9267
30
0
10
-76.5
20
-33.9267
30
0
10
-76.5
20
-33.9267
30
0
10
-76.5
20
-33.9267
30
0
10
-74.5
20
-32.4652
30
0
10
-74.5
20
-32.4652
30
0
10
-74.5
20
-32.4652
30
0
10
-74.5
20
-32.4652
30
0
10
-72.5
20
-31.035
30
0
10
-72.5
20
-31.035
30
0
10
-72.5
20
-31.035
30
0
10
-72.5
20
-31.035
30
0
10
-70.5
20
-29.6363
30
0
10
-70.5
20
-29.6363
30
0
10
-70.5
20
-29.6363
30
0
10
-70.5
20
-29.6363
30
0
10
-68.5
20
-28.2691
30
0
10
-68.5
20
-28.2691
30
0
10
-68.5
20
-28.2691
30
0
10
-68.5
20
-28.2691
30
0
10
-66.5
20
-26.9332
30
0
10
-66.5
20
-26.9332
30
0
10
-66.5
20
-26.9332
30
0
10
-66.5
20
-26.9332
30
0
10
-64.5
20
-25.6288
30
0
10
-64.5
20
-25.6288
30
0
10
-64.5
20
-25.6288
30
0
10
-64.5
20
-25.6288
30
0
10
-62.5
20
-24.3559
30
0
10
-62.5
20
-24.3559
30
0
10
-62.5
20
-24.3559
30
0
10
-62.5
20
-24.3559
30
0
10
-60.5
20
-23.1143
30
0
10
-60.5
20
-23.1143
30
0
10
-60.5
20
-23.1143
30
0
10
-60.5
20
-23.1143
30
0
10
-58.5
20
-21.9042
30
0
10
-58.5
20
-21.9042
30
0
10
-58.5
20
-21.9042
30
0
10
-58.5
20
-21.9042
30
0
10
-56.5
20
-20.7255
30
0
10
-56.5
20
-20.7255
30
0
10
-56.5
20
-20.7255
30
0
10
-56.5
20
-20.7255
30
0
10
-54.5
20
-19.5783
30
0
10
-54.5
20
-19.5783
30
0
10
-54.5
20
-19.5783
30
0
10
-54.5
20
-19.5783
30
0
10
-52.5
20
-18.4625
30
0
10
-52.5
20
-18.4625
30
0
10
-52.5
20
-18.4625
30
0
10
-52.5
20
-18.4625
30
0
10
-50.5
20
-17.3781
30
0
10
-50.5
20
-17.3781
30
0
10
-50.5
20
-17.3781
30
0
10
-50.5
20
-17.3781
30
0
10
-48.5
20
-16.3251
30
0
10
-48.5
20
-16.3251
30
0
10
-48.5
20
-16.3251
30
0
10
-48.5
20
-16.3251
30
0
10
-46.5
20
-15.3036
30
0
10
-46.5
20
-15.3036
30
0
10
-46.5
20
-15.3036
30
0
10
-46.5
20
-15.3036
30
0
10
-44.5
20
-14.3135
30
0
10
-44.5
20
-14.3135
30
0
10
-44.5
20
-14.3135
30
0
10
-44.5
20
-14.3135
30
0
10
-42.5
20
-13.3549
30
0
10
-42.5
20
-13.3549
30
0
10
-42.5
20
-13.3549
30
0
10
-42.5
20
-13.3549
30
0
10
-40.5
20
-12.4277
30
0
10
-40.5
20
-12.4277
30
0
10
-40.5
20
-12.4277
30
0
10
-40.5
20
-12.4277
30
0
10
-38.5
20
-11.5319
30
0
10
-38.5
20
-11.5319
30
0
10
-38.5
20
-11.5319
30
0
10
-38.5
20
-11.5319
30
0
10
-36.5
20
-10.6675
30
0
10
-36.5
20
-10.6675
30
0
10
-36.5
20
-10.6675
30
0
10
-36.5
20
-10.6675
30
0
10
-34.5
20
-9.83457
30
0
10
-34.5
20
-9.83457
30
0
10
-34.5
20
-9.83457
30
0
10
-34.5
20
-9.83457
30
0
10
-32.5
20
-9.03307
30
0
10
-32.5
20
-9.03307
30
0
10
-32.5
20
-9.03307
30
0
10
-32.5
20
-9.03307
30
0
10
-30.5
20
-8.263
30
0
10
-30.5
20
-8.263
30
0
10
-30.5
20
-8.263
30
0
10
-30.5
20
-8.263
30
0
10
-28.5
20
-7.52436
30
0
10
-28.5
20
-7.52436
30
0
10
-28.5
20
-7.52436
30
0
10
-28.5
20
-7.52436
30
0
10
-26.5
20
-6.81715
30
0
10
-26.5
20
-6.81715
30
0
10
-26.5
20
-6.81715
30
0
10
-26.5
20
-6.81715
30
0
10
-24.5
20
-6.14138
30
0
10
-24.5
20
-6.14138
30
0
10
-24.5
20
-6.14138
30
0
10
-24.5
20
-6.14138
30
0
10
-22.5
20
-5.49703
30
0
10
-22.5
20
-5.49703
30
0
10
-22.5
20
-5.49703
30
0
10
-22.5
20
-5.49703
30
0
10
-20.5
20
-4.88412
30
0
10
-20.5
20
-4.88412
30
0
10
-20.5
20
-4.88412
30
0
10
-20.5
20
-4.88412
30
0
10
-18.5
20
-4.30264
30
0
10
-18.5
20
-4.30264
30
0
10
-18.5
20
-4.30264
30
0
10
-18.5
20
-4.30264
30
0
10
-16.5
20
-3.75259
30
0
10
-16.5
20
-3.75259
30
0
10
-16.5
20
-3.75259
30
0
10
-16.5
20
-3.75259
30
0
10
-14.5
20
-3.23397
30
0
10
-14.5
20
-3.23397
30
0
10
-14.5
20
-3.23397
30
0
10
-14.5
20
-3.23397
30
0
10
-12.5
20
-2.74679
30
0
10
-12.5
20
-2.74679
30
0
10
-12.5
20
-2.74679
30
0
10
-12.5
20
-2.74679
30
0
10
-10.5
20
-2.29103
30
0
10
-10.5
20
-2.29103
30
0
10
-10.5
20
-2.29103
30
0
10
-10.5
20
-2.29103
30
0
10
-8.5
20
-1.86671
30
0
10
-8.5
20
-1.86671
30
0
10
-8.5
20
-1.86671
30
0
10
-8.5
20
-1.86671
30
0
10
-6.5
20
-1.47381
30
0
10
-6.5
20
-1.47381
30
0
10
-6.5
20
-1.47381
30
0
10
-6.5
20
-1.47381
30
0
10
-4.5
20
-1.11235
30
0
10
-4.5
20
-1.11235
30
0
10
-4.5
20
-1.11235
30
0
10
-4.5
20
-1.11235
30
0
10
-2.5
20
-0.782323
30
0
10
-2.5
20
-0.782323
30
0
10
-2.5
20
-0.782323
30
0
10
-2.5
20
-0.782323
30
0
10
-0.5
20
-0.483725
30
0
10
-0.5
20
-0.483725
30
0
10
-0.5
20
-0.483725
30
0
10
-0.5
20
-0.483725
30
0
10
1.5
20
-0.216558
30
0
10
1.5
20
-0.216558
30
0
10
1.5
20
-0.216558
30
0
10
1.5
20
-0.216558
30
0
10
3.5
20
0.0191772
30
0
10
3.5
20
0.0191772
30
0
10
3.5
20
0.0191772
30
0
10
3.5
20
0.0191772
30
0
10
5.5
20
0.223481
30
0
10
5.5
20
0.223481
30
0
10
5.5
20
0.223481
30
0
10
5.5
20
0.223481
30
0
10
7.5
20
0.396354
30
0
10
7.5
20
0.396354
30
0
10
7.5
20
0.396354
30
0
10
7.5
20
0.396354
30
0
10
9.5
20
0.537795
30
0
10
9.5
20
0.537795
30
0
10
9.5
20
0.537795
30
0
10
9.5
20
0.537795
30
0
10
11.5
20
0.647805
30
0
10
11.5
20
0.647805
30
0
10
11.5
20
0.647805
30
0
10
11.5
20
0.647805
30
0
10
13.5
20
0.726384
30
0
10
13.5
20
0.726384
30
0
10
13.5
20
0.726384
30
0
10
13.5
20
0.726384
30
0
10
15.5
20
0.773531
30
0
10
15.5
20
0.773531
30
0
10
15.5
20
0.773531
30
0
10
15.5
20
0.773531
30
0
10
17.5
20
0.789246
30
0
10
17.5
20
0.789246
30
0
10
17.5
20
0.789246
30
0
10
17.5
20
0.789246
30
0
10
19.5
20
0.773531
30
0
10
19.5
20
0.773531
30
0
10
19.5
20
0.773531
30
0
10
19.5
20
0.773531
30
0
10
21.5
20
0.726384
30
0
10
21.5
20
0.726384
30
0
10
21.5
20
0.726384
30
0
10
21.5
20
0.726384
30
0
10
23.5
20
0.647805
30
0
10
23.5
20
0.647805
30
0
10
23.5
20
0.647805
30
0
10
23.5
20
0.647805
30
0
10
25.5
20
0.537795
30
0
10
25.5
20
0.537795
30
0
10
25.5
20
0.537795
30
0
10
25.5
20
0.537795
30
0
10
27.5
20
0.396354
30
0
10
27.5
20
0.396354
30
0
10
27.5
20
0.396354
30
0
10
27.5
20
0.396354
30
0
10
29.5
20
0.223481
30
0
10
29.5
20
0.223481
30
0
10
29.5
20
0.223481
30
0
10
29.5
20
0.223481
30
0
10
31.5
20
0.0191772
30
0
10
31.5
20
0.0191772
30
0
10
31.5
20
0.0191772
30
0
10
31.5
20
0.0191772
30
0
10
33.5
20
-0.216558
30
0
10
33.5
20
-0.216558
30
0
10
33.5
20
-0.216558
30
0
10
33.5
20
-0.216558
30
0
10
35.5
20
-0.483725
30
0
10
35.5
20
-0.483725
30
0
10
35.5
20
-0.483725
30
0
10
35.5
20
-0.483725
30
0
10
37.5
20
-0.782323
30
0
10
37.5
20
-0.782323
30
0
10
37.5
20
-0.782323
30
0
10
37.5
20
-0.782323
30
0
10
39.5
20
-1.11235
30
0
10
39.5
20
-1.11235
30
0
10
39.5
20
-1.11235
30
0
10
39.5
20
-1.11235
30
0
10
41.5
20
-1.47381
30
0
10
41.5
20
-1.47381
30
0
10
41.5
20
-1.47381
30
0
10
41.5
20
-1.47381
30
0
10
43.5
20
-1.86671
30
0
10
43.5
20
-1.86671
30
0
10
43.5
20
-1.86671
30
0
10
43.5
20
-1.86671
30
0
10
45.5
20
-2.29103
30
0
10
45.5
20
-2.29103
30
0
10
45.5
20
-2.29103
30
0
10
45.5
20
-2.29103
30
0
10
47.5
20
-2.74679
30
0
10
47.5
20
-2.74679
30
0
10
47.5
20
-2.74679
30
0
10
47.5
20
-2.74679
30
0
10
49.5
20
-3.23397
30
0
10
49.5
20
-3.23397
30
0
10
49.5
20
-3.23397
30
0
10
49.5
20
-3.23397
30
0
10
51.5
20
-3.75259
30
0
10
51.5
20
-3.75259
30
0
10
51.5
20
-3.75259
30
0
10
51.5
20
-3.75259
30
0
10
53.5
20
-4.30264
30
0
10
53.5
20
-4.30264
30
0
10
53.5
20
-4.30264
30
0
10
53.5
20
-4.30264
30
0
10
55.5
20
-4.88412
30
0
10
55.5
20
-4.88412
30
0
10
55.5
20
-4.88412
30
0
10
55.5
20
-4.88412
30
0
10
57.5
20
-5.49703
30
0
10
57.5
20
-5.49703
30
0
10
57.5
20
-5.49703
30
0
10
57.5
20
-5.49703
30
0
10
59.5
20
-6.14138
30
0
10
59.5
20
-6.14138
30
0
10
59.5
20
-6.14138
30
0
10
59.5
20
-6.14138
30
0
10
61.5
20
-6.81715
30
0
10
61.5
20
-6.81715
30
0
10
61.5
20
-6.81715
30
0
10
61.5
20
-6.81715
30
0
10
63.5
20
-7.52436
30
0
10
63.5
20
-7.52436
30
0
10
63.5
20
-7.52436
30
0
10
63.5
20
-7.52436
30
0
10
65.5
20
-8.263
30
0
10
65.5
20
-8.263
30
0
10
65.5
20
-8.263
30
0
10
65.5
20
-8.263
30
0
10
67.5
20
-9.03307
30
0
10
67.5
20
-9.03307
30
0
10
67.5
20
-9.03307
30
0
10
67.5
20
-9.03307
30
0
10
69.5
20
-9.83457
30
0
10
69.5
20
-9.83457
30
0
10
69.5
20
-9.83457
30
0
10
69.5
20
-9.83457
30
0
10
71.5
20
-10.6675
30
0
10
71.5
20
-10.6675
30
0
10
71.5
20
-10.6675
30
0
10
71.5
20
-10.6675
30
0
10
73.5
20
-11.5319
30
0
10
73.5
20
-11.5319
30
0
10
73.5
20
-11.5319
30
0
10
73.5
20
-11.5319
30
0
10
75.5
20
-12.4277
30
0
10
75.5
20
-12.4277
30
0
10
75.5
20
-12.4277
30
0
10
75.5
20
-12.4277
30
0
10
77.5
20
-13.3549
30
0
10
77.5
20
-13.3549
30
0
10
77.5
20
-13.3549
30
0
10
77.5
20
-13.3549
30
0
10
79.5
20
-14.3135
30
0
10
79.5
20
-14.3135
30
0
10
79.5
20
-14.3135
30
0
10
79.5
20
-14.3135
30
0
10
81.5
20
-15.3036
30
0
10
81.5
20
-15.3036
30
0
10
81.5
20
-15.3036
30
0
10
81.5
20
-15.3036
30
0
10
83.5
20
-16.3251
30
0
10
83.5
20
-16.3251
30
0
10
83.5
20
-16.3251
30
0
10
83.5
20
-16.3251
30
0
10
85.5
20
-17.3781
30
0
10
85.5
20
-17.3781
30
0
10
85.5
20
-17.3781
30
0
10
85.5
20
-17.3781
30
0
10
87.5
20
-18.4625
30
0
10
87.5
20
-18.4625
30
0
10
87.5
20
-18.4625
30
0
10
87.5
20
-18.4625
30
0
10
89.5
20
-19.5783
30
0
10
89.5
20
-19.5783
30
0
10
89.5
20
-19.5783
30
0
10
89.5
20
-19.5783
30
0
10
91.5
20
-20.7255
30
0
10
91.5
20
-20.7255
30
0
10
91.5
20
-20.7255
30
0
10
91.5
20
-20.7255
30
0
10
93.5
20
-21.9042
30
0
10
93.5
20
-21.9042
30
0
10
93.5
20
-21.9042
30
0
10
93.5
20
-21.9042
30
0
10
95.5
20
-23.1143
30
0
10
95.5
20
-23.1143
30
0
10
95.5
20
-23.1143
30
0
10
95.5
20
-23.1143
30
0
10
97.5
20
-24.3559
30
0
10
97.5
20
-24.3559
30
0
10
97.5
20
-24.3559
30
0
10
97.5
20
-24.3559
30
0
10
99.5
20
-25.6288
30
0
10
99.5
20
-25.6288
30
0
10
99.5
20
-25.6288
30
0
10
99.5
20
-25.6288
30
0
10
101.5
20
-26.9332
30
0
10
101.5
20
-26.9332
30
0
10
101.5
20
-26.9332
30
0
10
101.5
20
-26.9332
30
0
10
103.5
20
-28.2691
30
0
10
103.5
20
-28.2691
30
0
10
103.5
20
-28.2691
30
0
10
103.5
20
-28.2691
30
0
10
105.5
20
-29.6363
30
0
10
105.5
20
-29.6363
30
0
10
105.5
20
-29.6363
30
0
10
105.5
20
-29.6363
30
0
10
107.5
20
-31.035
30
0
10
107.5
20
-31.035
30
0
10
107.5
20
-31.035
30
0
10
107.5
20
-31.035
30
0
10
109.5
20
-32.4652
30
0
10
109.5
20
-32.4652
30
0
10
109.5
20
-32.4652
30
0
10
109.5
20
-32.4652
30
0
10
111.5
20
-33.9267
30
0
10
111.5
20
-33.9267
30
0
10
111.5
20
-33.9267
30
0
10
111.5
20
-33.9267
30
0
10
113.5
20
-35.4197
30
0
10
113.5
20
-35.4197
30
0
10
113.5
20
-35.4197
30
0
10
113.5
20
-35.4197
30
0
10
115.5
20
-36.9441
30
0
10
115.5
20
-36.9441
30
0
10
115.5
20
-36.9441
30
0
10
115.5
20
-36.9441
30
0
10
117.5
20
-38.5
30
0
10
117.5
20
-38.5
30
0
0
SPLINE
5
136
100
AcDbEntity
8
0
62
3
39
1500
100
AcDbSpline
210
0
220
0
230
1
70
0
71
3
72
324
73
320
74
0
42
1e-10
43
1e-10
40
0
40
0
40
0
40
0
40
0.0125
40
0.0125
40
0.0125
40
0.0125
40
0.025
40
0.025
40
0.025
40
0.025
40
0.0375
40
0.0375
40
0.0375
40
0.0375
40
0.05
40
0.05
40
0.05
40
0.05
40
0.0625
40
0.0625
40
0.0625
40
0.0625
40
0.075
40
0.075
40
0.075
40
0.075
40
0.0875
40
0.0875
40
0.0875
40
0.0875
40
0.1
40
0.1
40
0.1
40
0.1
40
0.1125
40
0.1125
40
0.1125
40
0.1125
40
0.125
40
0.125
40
0.125
40
0.125
40
0.1375
40
0.1375
40
0.1375
40
0.1375
40
0.15
40
0.15
40
0.15
40
0.15
40
0.1625
40
0.1625
40
0.1625
40
0.1625
40
0.175
40
0.175
40
0.175
40
0.175
40
0.1875
40
0.1875
40
0.1875
40
0.1875
40
0.2
40
0.2
40
0.2
40
0.2
40
0.2125
40
0.2125
40
0.2125
40
0.2125
40
0.225
40
0.225
40
0.225
40
0.225
40
0.2375
40
0.2375
40
0.2375
40
0.2375
40
0.25
40
0.25
40
0.25
40
0.25
40
0.2625
40
0.2625
40
0.2625
40
0.2625
40
0.275
40
0.275
40
0.275
40
0.275
40
0.2875
40
0.2875
40
0.2875
40
0.2875
40
0.3
40
0.3
40
0.3
40
0.3
40
0.3125
40
0.3125
40
0.3125
40
0.3125
40
0.325
40
0.325
40
0.325
40
0.325
40
0.3375
40
0.3375
40
0.3375
40
0.3375
40
0.35
40
0.35
40
0.35
40
0.35
40
0.3625
40
0.3625
40
0.3625
40
0.3625
40
0.375
40
0.375
40
0.375
40
0.375
40
0.3875
40
0.3875
40
0.3875
40
0.3875
40
0.4
40
0.4
40
0.4
40
0.4
40
0.4125
40
0.4125
40
0.4125
40
0.4125
40
0.425
40
0.425
40
0.425
40
0.425
40
0.4375
40
0.4375
40
0.4375
40
0.4375
40
0.45
40
0.45
40
0.45
40
0.45
40
0.4625
40
0.4625
40
0.4625
40
0.4625
40
0.475
40
0.475
40
0.475
40
0.475
40
0.4875
40
0.4875
40
0.4875
40
0.4875
40
0.5
40
0.5
40
0.5
40
0.5
40
0.5125
40
0.5125
40
0.5125
40
0.5125
40
0.525
40
0.525
40
0.525
40
0.525
40
0.5375
40
0.5375
40
0.5375
40
0.5375
40
0.55
40
0.55
40
0.55
40
0.55
40
0.5625
40
0.5625
40
0.5625
40
0.5625
40
0.575
40
0.575
40
0.575
40
0.575
40
0.5875
40
0.5875
40
0.5875
40
0.5875
40
0.6
40
0.6
40
0.6
40
0.6
40
0.6125
40
0.6125
40
0.6125
40
0.6125
40
0.625
40
0.625
40
0.625
40
0.625
40
0.6375
40
0.6375
40
0.6375
40
0.6375
40
0.65
40
0.65
40
0.65
40
0.65
40
0.6625
40
0.6625
40
0.6625
40
0.6625
40
0.675
40
0.675
40
0.675
40
0.675
40
0.6875
40
0.6875
40
0.6875
40
0.6875
40
0.7
40
0.7
40
0.7
40
0.7
40
0.7125
40
0.7125
40
0.7125
40
0.7125
40
0.725
40
0.725
40
0.725
40
0.725
40
0.7375
40
0.7375
40
0.7375
40
0.7375
40
0.75
40
0.75
40
0.75
40
0.75
40
0.7625
40
0.7625
40
0.7625
40
0.7625
40
0.775
40
0.775
40
0.775
40
0.775
40
0.7875
40
0.7875
40
0.7875
40
0.7875
40
0.8
40
0.8
40
0.8
40
0.8
40
0.8125
40
0.8125
40
0.8125
40
0.8125
40
0.825
40
0.825
40
0.825
40
0.825
40
0.8375
40
0.8375
40
0.8375
40
0.8375
40
0.85
40
0.85
40
0.85
40
0.85
40
0.8625
40
0.8625
40
0.8625
40
0.8625
40
0.875
40
0.875
40
0.875
40
0.875
40
0.8875
40
0.8875
40
0.8875
40
0.8875
40
0.9
40
0.9
40
0.9
40
0.9
40
0.9125
40
0.9125
40
0.9125
40
0.9125
40
0.925
40
0.925
40
0.925
40
0.925
40
0.9375
40
0.9375
40
0.9375
40
0.9375
40
0.95
40
0.95
40
0.95
40
0.95
40
0.9625
40
0.9625
40
0.9625
40
0.9625
40
0.975
40
0.975
40
0.975
40
0.975
40
0.9875
40
0.9875
40
0.9875
40
0.9875
40
1
40
1
40
1
40
1
10
-2.5
20
51.2177
30
0
10
-2.5
20
51.2177
30
0
10
-2
20
51.4953
30
0
10
-2
20
51.4953
30
0
10
-2
20
51.4953
30
0
10
-2
20
51.4953
30
0
10
-1.5
20
51.7709
30
0
10
-1.5
20
51.7709
30
0
10
-1.5
20
51.7709
30
0
10
-1.5
20
51.7709
30
0
10
-1
20
52.0446
30
0
10
-1
20
52.0446
30
0
10
-1
20
52.0446
30
0
10
-1
20
52.0446
30
0
10
-0.5
20
52.3163
30
0
10
-0.5
20
52.3163
30
0
10
-0.5
20
52.3163
30
0
10
-0.5
20
52.3163
30
0
10
0
20
52.586
30
0
10
0
20
52.586
30
0
10
0
20
52.586
30
0
10
0
20
52.586
30
0
10
0.5
20
52.8538
30
0
10
0.5
20
52.8538
30
0
10
0.5
20
52.8538
30
0
10
0.5
20
52.8538
30
0
10
1
20
53.1196
30
0
10
1
20
53.1196
30
0
10
1
20
53.1196
30
0
10
1
20
53.1196
30
0
10
1.5
20
53.3834
30
0
10
1.5
20
53.3834
30
0
10
1.5
20
53.3834
30
0
10
1.5
20
53.3834
30
0
10
2
20
53.6453
30
0
10
2
20
53.6453
30
0
10
2
20
53.6453
30
0
10
2
20
53.6453
30
0
10
2.5
20
53.9052
30
0
10
2.5
20
53.9052
30
0
10
2.5
20
53.9052
30
0
10
2.5
20
53.9052
30
0
10
3
20
54.1632
30
0
10
3
20
54.1632
30
0
10
3
20
54.1632
30
0
10
3
20
54.1632
30
0
10
3.5
20
54.4192
30
0
10
3.5
20
54.4192
30
0
10
3.5
20
54.4192
30
0
10
3.5
20
54.4192
30
0
10
4
20
54.6732
30
0
10
4
20
54.6732
30
0
10
4
20
54.6732
30
0
10
4
20
54.6732
30
0
10
4.5
20
54.9253
30
0
10
4.5
20
54.9253
30
0
10
4.5
20
54.9253
30
0
10
4.5
20
54.9253
30
0
10
5
20
55.1754
30
0
10
5
20
55.1754
30
0
10
5
20
55.1754
30
0
10
5
20
55.1754
30
0
10
5.5
20
55.4235
30
0
10
5.5
20
55.4235
30
0
10
5.5
20
55.4235
30
0
10
5.5
20
55.4235
30
0
10
6
20
55.6696
30
0
10
6
20
55.6696
30
0
10
6
20
55.6696
30
0
10
6
20
55.6696
30
0
10
6.5
20
55.9138
30
0
10
6.5
20
55.9138
30
0
10
6.5
20
55.9138
30
0
10
6.5
20
55.9138
30
0
10
7
20
56.1561
30
0
10
7
20
56.1561
30
0
10
7
20
56.1561
30
0
10
7
20
56.1561
30
0
10
7.5
20
56.3964
30
0
10
7.5
20
56.3964
30
0
10
7.5
20
56.3964
30
0
10
7.5
20
56.3964
30
0
10
8
20
56.6347
30
0
10
8
20
56.6347
30
0
10
8
20
56.6347
30
0
10
8
20
56.6347
30
0
10
8.5
20
56.871
30
0
10
8.5
20
56.871
30
0
10
8.5
20
56.871
30
0
10
8.5
20
56.871
30
0
10
9
20
57.1054
30
0
10
9
20
57.1054
30
0
10
9
20
57.1054
30
0
10
9
20
57.1054
30
0
10
9.5
20
57.3378
30
0
10
9.5
20
57.3378
30
0
10
9.5
20
57.3378
30
0
10
9.5
20
57.3378
30
0
10
10
20
57.5682
30
0
10
10
20
57.5682
30
0
10
10
20
57.5682
30
0
10
10
20
57.5682
30
0
10
10.5
20
57.7967
30
0
10
10.5
20
57.7967
30
0
10
10.5
20
57.7967
30
0
10
10.5
20
57.7967
30
0
10
11
20
58.0232
30
0
10
11
20
58.0232
30
0
10
11
20
58.0232
30
0
10
11
20
58.0232
30
0
10
11.5
20
58.2478
30
0
10
11.5
20
58.2478
30
0
10
11.5
20
58.2478
30
0
10
11.5
20
58.2478
30
0
10
12
20
58.4704
30
0
10
12
20
58.4704
30
0
10
12
20
58.4704
30
0
10
12
20
58.4704
30
0
10
12.5
20
58.691
30
0
10
12.5
20
58.691
30
0
10
12.5
20
58.691
30
0
10
12.5
20
58.691
30
0
10
13
20
58.9097
30
0
10
13
20
58.9097
30
0
10
13
20
58.9097
30
0
10
13
20
58.9097
30
0
10
13.5
20
59.1264
30
0
10
13.5
20
59.1264
30
0
10
13.5
20
59.1264
30
0
10
13.5
20
59.1264
30
0
10
14
20
59.3411
30
0
10
14
20
59.3411
30
0
10
14
20
59.3411
30
0
10
14
20
59.3411
30
0
10
14.5
20
59.5539
30
0
10
14.5
20
59.5539
30
0
10
14.5
20
59.5539
30
0
10
14.5
20
59.5539
30
0
10
15
20
59.7647
30
0
10
15
20
59.7647
30
0
10
15
20
59.7647
30
0
10
15
20
59.7647
30
0
10
15.5
20
59.9735
30
0
10
15.5
20
59.9735
30
0
10
15.5
20
59.9735
30
0
10
15.5
20
59.9735
30
0
10
16
20
60.1804
30
0
10
16
20
60.1804
30
0
10
16
20
60.1804
30
0
10
16
20
60.1804
30
0
10
16.5
20
60.3853
30
0
10
16.5
20
60.3853
30
0
10
16.5
20
60.3853
30
0
10
16.5
20
60.3853
30
0
10
17
20
60.5883
30
0
10
17
20
60.5883
30
0
10
17
20
60.5883
30
0
10
17
20
60.5883
30
0
10
17.5
20
60.7892
30
0
10
17.5
20
60.7892
30
0
10
17.5
20
60.7892
30
0
10
17.5
20
60.7892
30
0
10
18
20
60.6883
30
0
10
18
20
60.6883
30
0
10
18
20
60.6883
30
0
10
18
20
60.6883
30
0
10
18.5
20
60.5853
30
0
10
18.5
20
60.5853
30
0
10
18.5
20
60.5853
30
0
10
18.5
20
60.5853
30
0
10
19
20
60.4804
30
0
10
19
20
60.4804
30
0
10
19
20
60.4804
30
0
10
19
20
60.4804
30
0
10
19.5
20
60.3735
30
0
10
19.5
20
60.3735
30
0
10
19.5
20
60.3735
30
0
10
19.5
20
60.3735
30
0
10
20
20
60.2647
30
0
10
20
20
60.2647
30
0
10
20
20
60.2647
30
0
10
20
20
60.2647
30
0
10
20.5
20
60.1539
30
0
10
20.5
20
60.1539
30
0
10
20.5
20
60.1539
30
0
10
20.5
20
60.1539
30
0
10
21
20
60.0411
30
0
10
21
20
60.0411
30
0
10
21
20
60.0411
30
0
10
21
20
60.0411
30
0
10
21.5
20
59.9264
30
0
10
21.5
20
59.9264
30
0
10
21.5
20
59.9264
30
0
10
21.5
20
59.9264
30
0
10
22
20
59.8097
30
0
10
22
20
59.8097
30
0
10
22
20
59.8097
30
0
10
22
20
59.8097
30
0
10
22.5
20
59.691
30
0
10
22.5
20
59.691
30
0
10
22.5
20
59.691
30
0
10
22.5
20
59.691
30
0
10
23
20
59.5704
30
0
10
23
20
59.5704
30
0
10
23
20
59.5704
30
0
10
23
20
59.5704
30
0
10
23.5
20
59.4478
30
0
10
23.5
20
59.4478
30
0
10
23.5
20
59.4478
30
0
10
23.5
20
59.4478
30
0
10
24
20
59.3232
30
0
10
24
20
59.3232
30
0
10
24
20
59.3232
30
0
10
24
20
59.3232
30
0
10
24.5
20
59.1967
30
0
10
24.5
20
59.1967
30
0
10
24.5
20
59.1967
30
0
10
24.5
20
59.1967
30
0
10
25
20
59.0682
30
0
10
25
20
59.0682
30
0
10
25
20
59.0682
30
0
10
25
20
59.0682
30
0
10
25.5
20
58.9378
30
0
10
25.5
20
58.9378
30
0
10
25.5
20
58.9378
30
0
10
25.5
20
58.9378
30
0
10
26
20
58.8054
30
0
10
26
20
58.8054
30
0
10
26
20
58.8054
30
0
10
26
20
58.8054
30
0
10
26.5
20
58.671
30
0
10
26.5
20
58.671
30
0
10
26.5
20
58.671
30
0
10
26.5
20
58.671
30
0
10
27
20
58.5347
30
0
10
27
20
58.5347
30
0
10
27
20
58.5347
30
0
10
27
20
58.5347
30
0
10
27.5
20
58.3964
30
0
10
27.5
20
58.3964
30
0
10
27.5
20
58.3964
30
0
10
27.5
20
58.3964
30
0
10
28
20
58.2561
30
0
10
28
20
58.2561
30
0
10
28
20
58.2561
30
0
10
28
20
58.2561
30
0
10
28.5
20
58.1138
30
0
10
28.5
20
58.1138
30
0
10
28.5
20
58.1138
30
0
10
28.5
20
58.1138
30
0
10
29
20
57.9696
30
0
10
29
20
57.9696
30
0
10
29
20
57.9696
30
0
10
29
20
57.9696
30
0
10
29.5
20
57.8235
30
0
10
29.5
20
57.8235
30
0
10
29.5
20
57.8235
30
0
10
29.5
20
57.8235
30
0
10
30
20
57.6754
30
0
10
30
20
57.6754
30
0
10
30
20
57.6754
30
0
10
30
20
57.6754
30
0
10
30.5
20
57.5253
30
0
10
30.5
20
57.5253
30
0
10
30.5
20
57.5253
30
0
10
30.5
20
57.5253
30
0
10
31
20
57.3732
30
0
10
31
20
57.3732
30
0
10
31
20
57.3732
30
0
10
31
20
57.3732
30
0
10
31.5
20
57.2192
30
0
10
31.5
20
57.2192
30
0
10
31.5
20
57.2192
30
0
10
31.5
20
57.2192
30
0
10
32
20
57.0632
30
0
10
32
20
57.0632
30
0
10
32
20
57.0632
30
0
10
32
20
57.0632
30
0
10
32.5
20
56.9052
30
0
10
32.5
20
56.9052
30
0
10
32.5
20
56.9052
30
0
10
32.5
20
56.9052
30
0
10
33
20
56.7453
30
0
10
33
20
56.7453
30
0
10
33
20
56.7453
30
0
10
33
20
56.7453
30
0
10
33.5
20
56.5834
30
0
10
33.5
20
56.5834
30
0
10
33.5
20
56.5834
30
0
10
33.5
20
56.5834
30
0
10
34
20
56.4196
30
0
10
34
20
56.4196
30
0
10
34
20
56.4196
30
0
10
34
20
56.4196
30
0
10
34.5
20
56.2538
30
0
10
34.5
20
56.2538
30
0
10
34.5
20
56.2538
30
0
10
34.5
20
56.2538
30
0
10
35
20
56.086
30
0
10
35
20
56.086
30
0
10
35
20
56.086
30
0
10
35
20
56.086
30
0
10
35.5
20
55.9163
30
0
10
35.5
20
55.9163
30
0
10
35.5
20
55.9163
30
0
10
35.5
20
55.9163
30
0
10
36
20
55.7446
30
0
10
36
20
55.7446
30
0
10
36
20
55.7446
30
0
10
36
20
55.7446
30
0
10
36.5
20
55.5709
30
0
10
36.5
20
55.5709
30
0
10
36.5
20
55.5709
30
0
10
36.5
20
55.5709
30
0
10
37
20
55.3953
30
0
10
37
20
55.3953
30
0
10
37
20
55.3953
30
0
10
37
20
55.3953
30
0
10
37
20
35.3953
30
0
10
37
20
35.3953
30
0
0
SPLINE
5
137
100
AcDbEntity
8
0
62
3
39
1500
100
AcDbSpline
210
0
220
0
230
1
70
0
71
3
72
8
73
4
74
0
42
1e-10
43
1e-10
40
0
40
0
40
0
40
0
40
1
40
1
40
1
40
1
10
-2.5
20
31.2177
30
0
10
-2.5
20
31.2177
30
0
10
-2.5
20
51.2177
30
0
10
-2.5
20
51.2177
30
0
0
SPLINE
5
138
100
AcDbEntity
8
0
62
3
39
1500
100
AcDbSpline
210
0
220
0
230
1
70
0
71
3
72
8
73
4
74
0
42
1e-10
43
1e-10
40
0
40
0
40
0
40
0
40
1
40
1
40
1
40
1
10
-1
20
32.0446
30
0
10
-1
20
32.0446
30
0
10
-1
20
52.0446
30
0
10
-1
20
52.0446
30
0
0
SPLINE
5
139
100
AcDbEntity
8
0
62
3
39
1500
100
AcDbSpline
210
0
220
0
230
1
70
0
71
3
72
8
73
4
74
0
42
1e-10
43
1e-10
40
0
40
0
40
0
40
0
40
1
40
1
40
1
40
1
10
0.5
20
32.8538
30
0
10
0.5
20
32.8538
30
0
10
0.5
20
52.8538
30
0
10
0.5
20
52.8538
30
0
0
SPLINE
5
140
100
AcDbEntity
8
0
62
3
39
1500
100
AcDbSpline
210
0
220
0
230
1
70
0
71
3
72
8
73
4
74
0
42
1e-10
43
1e-10
40
0
40
0
40
0
40
0
40
1
40
1
40
1
40
1
10
2
20
33.6453
30
0
10
2
20
33.6453
30
0
10
2
20
53.6453
30
0
10
2
20
53.6453
30
0
0
SPLINE
5
141
100
AcDbEntity
8
0
62
3
39
1500
100
AcDbSpline
210
0
220
0
230
1
70
0
71
3
72
8
73
4
74
0
42
1e-10
43
1e-10
40
0
40
0
40
0
40
0
40
1
40
1
40
1
40
1
10
3.5
20
34.4192
30
0
10
3.5
20
34.4192
30
0
10
3.5
20
54.4192
30
0
10
3.5
20
54.4192
30
0
0
SPLINE
5
142
100
AcDbEntity
8
0
62
3
39
1500
100
AcDbSpline
210
0
220
0
230
1
70
0
71
3
72
8
73
4
74
0
42
1e-10
43
1e-10
40
0
40
0
40
0
40
0
40
1
40
1
40
1
40
1
10
5
20
35.1754
30
0
10
5
20
35.1754
30
0
10
5
20
55.1754
30
0
10
5
20
55.1754
30
0
0
SPLINE
5
143
100
AcDbEntity
8
0
62
3
39
1500
100
AcDbSpline
210
0
220
0
230
1
70
0
71
3
72
8
73
4
74
0
42
1e-10
43
1e-10
40
0
40
0
40
0
40
0
40
1
40
1
40
1
40
1
10
6.5
20
35.9138
30
0
10
6.5
20
35.9138
30
0
10
6.5
20
55.9138
30
0
10
6.5
20
55.9138
30
0
0
SPLINE
5
144
100
AcDbEntity
8
0
62
3
39
1500
100
AcDbSpline
210
0
220
0
230
1
70
0
71
3
72
8
73
4
74
0
42
1e-10
43
1e-10
40
0
40
0
40
0
40
0
40
1
40
1
40
1
40
1
10
8
20
36.6347
30
0
10
8
20
36.6347
30
0
10
8
20
56.6347
30
0
10
8
20
56.6347
30
0
0
SPLINE
5
145
100
AcDbEntity
8
0
62
3
39
1500
100
AcDbSpline
210
0
220
0
230
1
70
0
71
3
72
8
73
4
74
0
42
1e-10
43
1e-10
40
0
40
0
40
0
40
0
40
1
40
1
40
1
40
1
10
9.5
20
37.3378
30
0
10
9.5
20
37.3378
30
0
10
9.5
20
57.3378
30
0
10
9.5
20
57.3378
30
0
0
SPLINE
5
146
100
AcDbEntity
8
0
62
3
39
1500
100
AcDbSpline
210
0
220
0
230
1
70
0
71
3
72
8
73
4
74
0
42
1e-10
43
1e-10
40
0
40
0
40
0
40
0
40
1
40
1
40
1
40
1
10
11
20
38.0232
30
0
10
11
20
38.0232
30
0
10
11
20
58.0232
30
0
10
11
20
58.0232
30
0
0
SPLINE
5
147
100
AcDbEntity
8
0
62
3
39
1500
100
AcDbSpline
210
0
220
0
230
1
70
0
71
3
72
8
73
4
74
0
42
1e-10
43
1e-10
40
0
40
0
40
0
40
0
40
1
40
1
40
1
40
1
10
12.5
20
38.691
30
0
10
12.5
20
38.691
30
0
10
12.5
20
58.691
30
0
10
12.5
20
58.691
30
0
0
SPLINE
5
148
100
AcDbEntity
8
0
62
3
39
1500
100
AcDbSpline
210
0
220
0
230
1
70
0
71
3
72
8
73
4
74
0
42
1e-10
43
1e-10
40
0
40
0
40
0
40
0
40
1
40
1
40
1
40
1
10
14
20
39.3411
30
0
10
14
20
39.3411
30
0
10
14
20
59.3411
30
0
10
14
20
59.3411
30
0
0
SPLINE
5
149
100
AcDbEntity
8
0
62
3
39
1500
100
AcDbSpline
210
0
220
0
230
1
70
0
71
3
72
8
73
4
74
0
42
1e-10
43
1e-10
40
0
40
0
40
0
40
0
40
1
40
1
40
1
40
1
10
15.5
20
39.9735
30
0
10
15.5
20
39.9735
30
0
10
15.5
20
59.9735
30
0
10
15.5
20
59.9735
30
0
0
SPLINE
5
150
100
AcDbEntity
8
0
62
3
39
1500
100
AcDbSpline
210
0
220
0
230
1
70
0
71
3
72
8
73
4
74
0
42
1e-10
43
1e-10
40
0
40
0
40
0
40
0
40
1
40
1
40
1
40
1
10
17
20
40.5883
30
0
10
17
20
40.5883
30
0
10
17
20
60.5883
30
0
10
17
20
60.5883
30
0
0
SPLINE
5
151
100
AcDbEntity
8
0
62
3
39
1500
100
AcDbSpline
210
0
220
0
230
1
70
0
71
3
72
8
73
4
74
0
42
1e-10
43
1e-10
40
0
40
0
40
0
40
0
40
1
40
1
40
1
40
1
10
18.5
20
40.5853
30
0
10
18.5
20
40.5853
30
0
10
18.5
20
60.5853
30
0
10
18.5
20
60.5853
30
0
0
SPLINE
5
152
100
AcDbEntity
8
0
62
3
39
1500
100
AcDbSpline
210
0
220
0
230
1
70
0
71
3
72
8
73
4
74
0
42
1e-10
43
1e-10
40
0
40
0
40
0
40
0
40
1
40
1
40
1
40
1
10
20
20
40.2647
30
0
10
20
20
40.2647
30
0
10
20
20
60.2647
30
0
10
20
20
60.2647
30
0
0
SPLINE
5
153
100
AcDbEntity
8
0
62
3
39
1500
100
AcDbSpline
210
0
220
0
230
1
70
0
71
3
72
8
73
4
74
0
42
1e-10
43
1e-10
40
0
40
0
40
0
40
0
40
1
40
1
40
1
40
1
10
21.5
20
39.9264
30
0
10
21.5
20
39.9264
30
0
10
21.5
20
59.9264
30
0
10
21.5
20
59.9264
30
0
0
SPLINE
5
154
100
AcDbEntity
8
0
62
3
39
1500
100
AcDbSpline
210
0
220
0
230
1
70
0
71
3
72
8
73
4
74
0
42
1e-10
43
1e-10
40
0
40
0
40
0
40
0
40
1
40
1
40
1
40
1
10
23
20
39.5704
30
0
10
23
20
39.5704
30
0
10
23
20
59.5704
30
0
10
23
20
59.5704
30
0
0
SPLINE
5
155
100
AcDbEntity
8
0
62
3
39
1500
100
AcDbSpline
210
0
220
0
230
1
70
0
71
3
72
8
73
4
74
0
42
1e-10
43
1e-10
40
0
40
0
40
0
40
0
40
1
40
1
40
1
40
1
10
24.5
20
39.1967
30
0
10
24.5
20
39.1967
30
0
10
24.5
20
59.1967
30
0
10
24.5
20
59.1967
30
0
0
SPLINE
5
156
100
AcDbEntity
8
0
62
3
39
1500
100
AcDbSpline
210
0
220
0
230
1
70
0
71
3
72
8
73
4
74
0
42
1e-10
43
1e-10
40
0
40
0
40
0
40
0
40
1
40
1
40
1
40
1
10
26
20
38.8054
30
0
10
26
20
38.8054
30
0
10
26
20
58.8054
30
0
10
26
20
58.8054
30
0
0
SPLINE
5
157
100
AcDbEntity
8
0
62
3
39
1500
100
AcDbSpline
210
0
220
0
230
1
70
0
71
3
72
8
73
4
74
0
42
1e-10
43
1e-10
40
0
40
0
40
0
40
0
40
1
40
1
40
1
40
1
10
27.5
20
38.3964
30
0
10
27.5
20
38.3964
30
0
10
27.5
20
58.3964
30
0
10
27.5
20
58.3964
30
0
0
SPLINE
5
158
100
AcDbEntity
8
0
62
3
39
1500
100
AcDbSpline
210
0
220
0
230
1
70
0
71
3
72
8
73
4
74
0
42
1e-10
43
1e-10
40
0
40
0
40
0
40
0
40
1
40
1
40
1
40
1
10
29
20
37.9696
30
0
10
29
20
37.9696
30
0
10
29
20
57.9696
30
0
10
29
20
57.9696
30
0
0
SPLINE
5
159
100
AcDbEntity
8
0
62
3
39
1500
100
AcDbSpline
210
0
220
0
230
1
70
0
71
3
72
8
73
4
74
0
42
1e-10
43
1e-10
40
0
40
0
40
0
40
0
40
1
40
1
40
1
40
1
10
30.5
20
37.5253
30
0
10
30.5
20
37.5253
30
0
10
30.5
20
57.5253
30
0
10
30.5
20
57.5253
30
0
0
SPLINE
5
160
100
AcDbEntity
8
0
62
3
39
1500
100
AcDbSpline
210
0
220
0
230
1
70
0
71
3
72
8
73
4
74
0
42
1e-10
43
1e-10
40
0
40
0
40
0
40
0
40
1
40
1
40
1
40
1
10
32
20
37.0632
30
0
10
32
20
37.0632
30
0
10
32
20
57.0632
30
0
10
32
20
57.0632
30
0
0
SPLINE
5
161
100
AcDbEntity
8
0
62
3
39
1500
100
AcDbSpline
210
0
220
0
230
1
70
0
71
3
72
8
73
4
74
0
42
1e-10
43
1e-10
40
0
40
0
40
0
40
0
40
1
40
1
40
1
40
1
10
33.5
20
36.5834
30
0
10
33.5
20
36.5834
30
0
10
33.5
20
56.5834
30
0
10
33.5
20
56.5834
30
0
0
SPLINE
5
162
100
AcDbEntity
8
0
62
3
39
1500
100
AcDbSpline
210
0
220
0
230
1
70
0
71
3
72
8
73
4
74
0
42
1e-10
43
1e-10
40
0
40
0
40
0
40
0
40
1
40
1
40
1
40
1
10
35
20
36.086
30
0
10
35
20
36.086
30
0
10
35
20
56.086
30
0
10
35
20
56.086
30
0
0
SPLINE
5
163
100
AcDbEntity
8
0
62
3
39
1500
100
AcDbSpline
210
0
220
0
230
1
70
0
71
3
72
8
73
4
74
0
42
1e-10
43
1e-10
40
0
40
0
40
0
40
0
40
1
40
1
40
1
40
1
10
36.5
20
35.5709
30
0
10
36.5
20
35.5709
30
0
10
36.5
20
55.5709
30
0
10
36.5
20
55.5709
30
0
0
SPLINE
5
164
100
AcDbEntity
8
0
62
255
39
2000
100
AcDbSpline
210
0
220
0
230
1
70
0
71
3
72
172
73
168
74
0
42
1e-10
43
1e-10
40
0
40
0
40
0
40
0
40
0.0238095
40
0.0238095
40
0.0238095
40
0.0238095
40
0.047619
40
0.047619
40
0.047619
40
0.047619
40
0.0714286
40
0.0714286
40
0.0714286
40
0.0714286
40
0.0952381
40
0.0952381
40
0.0952381
40
0.0952381
40
0.119048
40
0.119048
40
0.119048
40
0.119048
40
0.142857
40
0.142857
40
0.142857
40
0.142857
40
0.166667
40
0.166667
40
0.166667
40
0.166667
40
0.190476
40
0.190476
40
0.190476
40
0.190476
40
0.214286
40
0.214286
40
0.214286
40
0.214286
40
0.238095
40
0.238095
40
0.238095
40
0.238095
40
0.261905
40
0.261905
40
0.261905
40
0.261905
40
0.285714
40
0.285714
40
0.285714
40
0.285714
40
0.309524
40
0.309524
40
0.309524
40
0.309524
40
0.333333
40
0.333333
40
0.333333
40
0.333333
40
0.357143
40
0.357143
40
0.357143
40
0.357143
40
0.380952
40
0.380952
40
0.380952
40
0.380952
40
0.404762
40
0.404762
40
0.404762
40
0.404762
40
0.428571
40
0.428571
40
0.428571
40
0.428571
40
0.452381
40
0.452381
40
0.452381
40
0.452381
40
0.47619
40
0.47619
40
0.47619
40
0.47619
40
0.5
40
0.5
40
0.5
40
0.5
40
0.52381
40
0.52381
40
0.52381
40
0.52381
40
0.547619
40
0.547619
40
0.547619
40
0.547619
40
0.571429
40
0.571429
40
0.571429
40
0.571429
40
0.595238
40
0.595238
40
0.595238
40
0.595238
40
0.619048
40
0.619048
40
0.619048
40
0.619048
40
0.642857
40
0.642857
40
0.642857
40
0.642857
40
0.666667
40
0.666667
40
0.666667
40
0.666667
40
0.690476
40
0.690476
40
0.690476
40
0.690476
40
0.714286
40
0.714286
40
0.714286
40
0.714286
40
0.738095
40
0.738095
40
0.738095
40
0.738095
40
0.761905
40
0.761905
40
0.761905
40
0.761905
40
0.785714
40
0.785714
40
0.785714
40
0.785714
40
0.809524
40
0.809524
40
0.809524
40
0.809524
40
0.833333
40
0.833333
40
0.833333
40
0.833333
40
0.857143
40
0.857143
40
0.857143
40
0.857143
40
0.880952
40
0.880952
40
0.880952
40
0.880952
40
0.904762
40
0.904762
40
0.904762
40
0.904762
40
0.928571
40
0.928571
40
0.928571
40
0.928571
40
0.952381
40
0.952381
40
0.952381
40
0.952381
40
0.97619
40
0.97619
40
0.97619
40
0.97619
40
1
40
1
40
1
40
1
10
57
20
46.7591
30
0
10
57
20
46.7591
30
0
10
57.5
20
46.503
30
0
10
57.5
20
46.503
30
0
10
57.5
20
46.503
30
0
10
57.5
20
46.503
30
0
10
58
20
46.2448
30
0
10
58
20
46.2448
30
0
10
58
20
46.2448
30
0
10
58
20
46.2448
30
0
10
58.5
20
45.9847
30
0
10
58.5
20
45.9847
30
0
10
58.5
20
45.9847
30
0
10
58.5
20
45.9847
30
0
10
59
20
45.7227
30
0
10
59
20
45.7227
30
0
10
59
20
45.7227
30
0
10
59
20
45.7227
30
0
10
59.5
20
45.4586
30
0
10
59.5
20
45.4586
30
0
10
59.5
20
45.4586
30
0
10
59.5
20
45.4586
30
0
10
60
20
45.1926
30
0
10
60
20
45.1926
30
0
10
60
20
45.1926
30
0
10
60
20
45.1926
30
0
10
60.5
20
44.9247
30
0
10
60.5
20
44.9247
30
0
10
60.5
20
44.9247
30
0
10
60.5
20
44.9247
30
0
10
61
20
44.6547
30
0
10
61
20
44.6547
30
0
10
61
20
44.6547
30
0
10
61
20
44.6547
30
0
10
61.5
20
44.3828
30
0
10
61.5
20
44.3828
30
0
10
61.5
20
44.3828
30
0
10
61.5
20
44.3828
30
0
10
62
20
44.109
30
0
10
62
20
44.109
30
0
10
62
20
44.109
30
0
10
62
20
44.109
30
0
10
62.5
20
43.8332
30
0
10
62.5
20
43.8332
30
0
10
62.5
20
43.8332
30
0
10
62.5
20
43.8332
30
0
10
63
20
43.5554
30
0
10
63
20
43.5554
30
0
10
63
20
43.5554
30
0
10
63
20
43.5554
30
0
10
63.5
20
43.2756
30
0
10
63.5
20
43.2756
30
0
10
63.5
20
43.2756
30
0
10
63.5
20
43.2756
30
0
10
64
20
42.9939
30
0
10
64
20
42.9939
30
0
10
64
20
42.9939
30
0
10
64
20
42.9939
30
0
10
64.5
20
42.7103
30
0
10
64.5
20
42.7103
30
0
10
64.5
20
42.7103
30
0
10
64.5
20
42.7103
30
0
10
65
20
42.4246
30
0
10
65
20
42.4246
30
0
10
65
20
42.4246
30
0
10
65
20
42.4246
30
0
10
65.5
20
42.137
30
0
10
65.5
20
42.137
30
0
10
65.5
20
42.137
30
0
10
65.5
20
42.137
30
0
10
66
20
41.8474
30
0
10
66
20
41.8474
30
0
10
66
20
41.8474
30
0
10
66
20
41.8474
30
0
10
66.5
20
41.5559
30
0
10
66.5
20
41.5559
30
0
10
66.5
20
41.5559
30
0
10
66.5
20
41.5559
30
0
10
67
20
41.2624
30
0
10
67
20
41.2624
30
0
10
67
20
41.2624
30
0
10
67
20
41.2624
30
0
10
67.5
20
40.9669
30
0
10
67.5
20
40.9669
30
0
10
67.5
20
40.9669
30
0
10
67.5
20
40.9669
30
0
10
68
20
40.6695
30
0
10
68
20
40.6695
30
0
10
68
20
40.6695
30
0
10
68
20
40.6695
30
0
10
68.5
20
40.3701
30
0
10
68.5
20
40.3701
30
0
10
68.5
20
40.3701
30
0
10
68.5
20
40.3701
30
0
10
69
20
40.0688
30
0
10
69
20
40.0688
30
0
10
69
20
40.0688
30
0
10
69
20
40.0688
30
0
10
69.5
20
39.7654
30
0
10
69.5
20
39.7654
30
0
10
69.5
20
39.7654
30
0
10
69.5
20
39.7654
30
0
10
70
20
39.4601
30
0
10
70
20
39.4601
30
0
10
70
20
39.4601
30
0
10
70
20
39.4601
30
0
10
70.5
20
39.1529
30
0
10
70.5
20
39.1529
30
0
10
70.5
20
39.1529
30
0
10
70.5
20
39.1529
30
0
10
71
20
38.8437
30
0
10
71
20
38.8437
30
0
10
71
20
38.8437
30
0
10
71
20
38.8437
30
0
10
71.5
20
38.5325
30
0
10
71.5
20
38.5325
30
0
10
71.5
20
38.5325
30
0
10
71.5
20
38.5325
30
0
10
72
20
38.2194
30
0
10
72
20
38.2194
30
0
10
72
20
38.2194
30
0
10
72
20
38.2194
30
0
10
72.5
20
37.9042
30
0
10
72.5
20
37.9042
30
0
10
72.5
20
37.9042
30
0
10
72.5
20
37.9042
30
0
10
73
20
37.5872
30
0
10
73
20
37.5872
30
0
10
73
20
37.5872
30
0
10
73
20
37.5872
30
0
10
73.5
20
37.2681
30
0
10
73.5
20
37.2681
30
0
10
73.5
20
37.2681
30
0
10
73.5
20
37.2681
30
0
10
74
20
36.9471
30
0
10
74
20
36.9471
30
0
10
74
20
36.9471
30
0
10
74
20
36.9471
30
0
10
74.5
20
36.6242
30
0
10
74.5
20
36.6242
30
0
10
74.5
20
36.6242
30
0
10
74.5
20
36.6242
30
0
10
75
20
36.2992
30
0
10
75
20
36.2992
30
0
10
75
20
36.2992
30
0
10
75
20
36.2992
30
0
10
75.5
20
35.9723
30
0
10
75.5
20
35.9723
30
0
10
75.5
20
35.9723
30
0
10
75.5
20
35.9723
30
0
10
76
20
35.6435
30
0
10
76
20
35.6435
30
0
10
76
20
35.6435
30
0
10
76
20
35.6435
30
0
10
76.5
20
35.3127
30
0
10
76.5
20
35.3127
30
0
10
76.5
20
35.3127
30
0
10
76.5
20
35.3127
30
0
10
77
20
34.9799
30
0
10
77
20
34.9799
30
0
10
77
20
34.9799
30
0
10
77
20
34.9799
30
0
10
77.5
20
34.6451
30
0
10
77.5
20
34.6451
30
0
10
77.5
20
34.6451
30
0
10
77.5
20
34.6451
30
0
10
77.5
20
14.6451
30
0
10
77.5
20
14.6451
30
0
0
SPLINE
5
165
100
AcDbEntity
8
0
62
255
39
2000
100
AcDbSpline
210
0
220
0
230
1
70
0
71
3
72
8
73
4
74
0
42
1e-10
43
1e-10
40
0
40
0
40
0
40
0
40
1
40
1
40
1
40
1
10
57
20
26.7591
30
0
10
57
20
26.7591
30
0
10
57
20
46.7591
30
0
10
57
20
46.7591
30
0
0
SPLINE
5
166
100
AcDbEntity
8
0
62
255
39
2000
100
AcDbSpline
210
0
220
0
230
1
70
0
71
3
72
8
73
4
74
0
42
1e-10
43
1e-10
40
0
40
0
40
0
40
0
40
1
40
1
40
1
40
1
10
58.5
20
25.9847
30
0
10
58.5
20
25.9847
30
0
10
58.5
20
45.9847
30
0
10
58.5
20
45.9847
30
0
0
SPLINE
5
167
100
AcDbEntity
8
0
62
255
39
2000
100
AcDbSpline
210
0
220
0
230
1
70
0
71
3
72
8
73
4
74
0
42
1e-10
43
1e-10
40
0
40
0
40
0
40
0
40
1
40
1
40
1
40
1
10
60
20
25.1926
30
0
10
60
20
25.1926
30
0
10
60
20
45.1926
30
0
10
60
20
45.1926
30
0
0
SPLINE
5
168
100
AcDbEntity
8
0
62
255
39
2000
100
AcDbSpline
210
0
220
0
230
1
70
0
71
3
72
8
73
4
74
0
42
1e-10
43
1e-10
40
0
40
0
40
0
40
0
40
1
40
1
40
1
40
1
10
61.5
20
24.3828
30
0
10
61.5
20
24.3828
30
0
10
61.5
20
44.3828
30
0
10
61.5
20
44.3828
30
0
0
SPLINE
5
169
100
AcDbEntity
8
0
62
255
39
2000
100
AcDbSpline
210
0
220
0
230
1
70
0
71
3
72
8
73
4
74
0
42
1e-10
43
1e-10
40
0
40
0
40
0
40
0
40
1
40
1
40
1
40
1
10
63
20
23.5554
30
0
10
63
20
23.5554
30
0
10
63
20
43.5554
30
0
10
63
20
43.5554
30
0
0
SPLINE
5
170
100
AcDbEntity
8
0
62
255
39
2000
100
AcDbSpline
210
0
220
0
230
1
70
0
71
3
72
8
73
4
74
0
42
1e-10
43
1e-10
40
0
40
0
40
0
40
0
40
1
40
1
40
1
40
1
10
64.5
20
22.7103
30
0
10
64.5
20
22.7103
30
0
10
64.5
20
42.7103
30
0
10
64.5
20
42.7103
30
0
0
SPLINE
5
171
100
AcDbEntity
8
0
62
255
39
2000
100
AcDbSpline
210
0
220
0
230
1
70
0
71
3
72
8
73
4
74
0
42
1e-10
43
1e-10
40
0
40
0
40
0
40
0
40
1
40
1
40
1
40
1
10
66
20
21.8474
30
0
10
66
20
21.8474
30
0
10
66
20
41.8474
30
0
10
66
20
41.8474
30
0
0
SPLINE
5
172
100
AcDbEntity
8
0
62
255
39
2000
100
AcDbSpline
210
0
220
0
230
1
70
0
71
3
72
8
73
4
74
0
42
1e-10
43
1e-10
40
0
40
0
40
0
40
0
40
1
40
1
40
1
40
1
10
67.5
20
20.9669
30
0
10
67.5
20
20.9669
30
0
10
67.5
20
40.9669
30
0
10
67.5
20
40.9669
30
0
0
SPLINE
5
173
100
AcDbEntity
8
0
62
255
39
2000
100
AcDbSpline
210
0
220
0
230
1
70
0
71
3
72
8
73
4
74
0
42
1e-10
43
1e-10
40
0
40
0
40
0
40
0
40
1
40
1
40
1
40
1
10
69
20
20.0688
30
0
10
69
20
20.0688
30
0
10
69
20
40.0688
30
0
10
69
20
40.0688
30
0
0
SPLINE
5
174
100
AcDbEntity
8
0
62
255
39
2000
100
AcDbSpline
210
0
220
0
230
1
70
0
71
3
72
8
73
4
74
0
42
1e-10
43
1e-10
40
0
40
0
40
0
40
0
40
1
40
1
40
1
40
1
10
70.5
20
19.1529
30
0
10
70.5
20
19.1529
30
0
10
70.5
20
39.1529
30
0
10
70.5
20
39.1529
30
0
0
SPLINE
5
175
100
AcDbEntity
8
0
62
255
39
2000
100
AcDbSpline
210
0
220
0
230
1
70
0
71
3
72
8
73
4
74
0
42
1e-10
43
1e-10
40
0
40
0
40
0
40
0
40
1
40
1
40
1
40
1
10
72
20
18.2194
30
0
10
72
20
18.2194
30
0
10
72
20
38.2194
30
0
10
72
20
38.2194
30
0
0
SPLINE
5
176
100
AcDbEntity
8
0
62
255
39
2000
100
AcDbSpline
210
0
220
0
230
1
70
0
71
3
72
8
73
4
74
0
42
1e-10
43
1e-10
40
0
40
0
40
0
40
0
40
1
40
1
40
1
40
1
10
73.5
20
17.2681
30
0
10
73.5
20
17.2681
30
0
10
73.5
20
37.2681
30
0
10
73.5
20
37.2681
30
0
0
SPLINE
5
177
100
AcDbEntity
8
0
62
255
39
2000
100
AcDbSpline
210
0
220
0
230
1
70
0
71
3
72
8
73
4
74
0
42
1e-10
43
1e-10
40
0
40
0
40
0
40
0
40
1
40
1
40
1
40
1
10
75
20
16.2992
30
0
10
75
20
16.2992
30
0
10
75
20
36.2992
30
0
10
75
20
36.2992
30
0
0
SPLINE
5
178
100
AcDbEntity
8
0
62
255
39
2000
100
AcDbSpline
210
0
220
0
230
1
70
0
71
3
72
8
73
4
74
0
42
1e-10
43
1e-10
40
0
40
0
40
0
40
0
40
1
40
1
40
1
40
1
10
76.5
20
15.3127
30
0
10
76.5
20
15.3127
30
0
10
76.5
20
35.3127
30
0
10
76.5
20
35.3127
30
0
0
SPLINE
5
179
100
AcDbEntity
8
0
62
255
39
3500
100
AcDbSpline
210
0
220
0
230
1
70
0
71
3
72
1604
73
1600
74
0
42
1e-10
43
1e-10
40
0
40
0
40
0
40
0
40
0.0025
40
0.0025
40
0.0025
40
0.0025
40
0.005
40
0.005
40
0.005
40
0.005
40
0.0075
40
0.0075
40
0.0075
40
0.0075
40
0.01
40
0.01
40
0.01
40
0.01
40
0.0125
40
0.0125
40
0.0125
40
0.0125
40
0.015
40
0.015
40
0.015
40
0.015
40
0.0175
40
0.0175
40
0.0175
40
0.0175
40
0.02
40
0.02
40
0.02
40
0.02
40
0.0225
40
0.0225
40
0.0225
40
0.0225
40
0.025
40
0.025
40
0.025
40
0.025
40
0.0275
40
0.0275
40
0.0275
40
0.0275
40
0.03
40
0.03
40
0.03
40
0.03
40
0.0325
40
0.0325
40
0.0325
40
0.0325
40
0.035
40
0.035
40
0.035
40
0.035
40
0.0375
40
0.0375
40
0.0375
40
0.0375
40
0.04
40
0.04
40
0.04
40
0.04
40
0.0425
40
0.0425
40
0.0425
40
0.0425
40
0.045
40
0.045
40
0.045
40
0.045
40
0.0475
40
0.0475
40
0.0475
40
0.0475
40
0.05
40
0.05
40
0.05
40
0.05
40
0.0525
40
0.0525
40
0.0525
40
0.0525
40
0.055
40
0.055
40
0.055
40
0.055
40
0.0575
40
0.0575
40
0.0575
40
0.0575
40
0.06
40
0.06
40
0.06
40
0.06
40
0.0625
40
0.0625
40
0.0625
40
0.0625
40
0.065
40
0.065
40
0.065
40
0.065
40
0.0675
40
0.0675
40
0.0675
40
0.0675
40
0.07
40
0.07
40
0.07
40
0.07
40
0.0725
40
0.0725
40
0.0725
40
0.0725
40
0.075
40
0.075
40
0.075
40
0.075
40
0.0775
40
0.0775
40
0.0775
40
0.0775
40
0.08
40
0.08
40
0.08
40
0.08
40
0.0825
40
0.0825
40
0.0825
40
0.0825
40
0.085
40
0.085
40
0.085
40
0.085
40
0.0875
40
0.0875
40
0.0875
40
0.0875
40
0.09
40
0.09
40
0.09
40
0.09
40
0.0925
40
0.0925
40
0.0925
40
0.0925
40
0.095
40
0.095
40
0.095
40
0.095
40
0.0975
40
0.0975
40
0.0975
40
0.0975
40
0.1
40
0.1
40
0.1
40
0.1
40
0.1025
40
0.1025
40
0.1025
40
0.1025
40
0.105
40
0.105
40
0.105
40
0.105
40
0.1075
40
0.1075
40
0.1075
40
0.1075
40
0.11
40
0.11
40
0.11
40
0.11
40
0.1125
40
0.1125
40
0.1125
40
0.1125
40
0.115
40
0.115
40
0.115
40
0.115
40
0.1175
40
0.1175
40
0.1175
40
0.1175
40
0.12
40
0.12
40
0.12
40
0.12
40
0.1225
40
0.1225
40
0.1225
40
0.1225
40
0.125
40
0.125
40
0.125
40
0.125
40
0.1275
40
0.1275
40
0.1275
40
0.1275
40
0.13
40
0.13
40
0.13
40
0.13
40
0.1325
40
0.1325
40
0.1325
40
0.1325
40
0.135
40
0.135
40
0.135
40
0.135
40
0.1375
40
0.1375
40
0.1375
40
0.1375
40
0.14
40
0.14
40
0.14
40
0.14
40
0.1425
40
0.1425
40
0.1425
40
0.1425
40
0.145
40
0.145
40
0.145
40
0.145
40
0.1475
40
0.1475
40
0.1475
40
0.1475
40
0.15
40
0.15
40
0.15
40
0.15
40
0.1525
40
0.1525
40
0.1525
40
0.1525
40
0.155
40
0.155
40
0.155
40
0.155
40
0.1575
40
0.1575
40
0.1575
40
0.1575
40
0.16
40
0.16
40
0.16
40
0.16
40
0.1625
40
0.1625
40
0.1625
40
0.1625
40
0.165
40
0.165
40
0.165
40
0.165
40
0.1675
40
0.1675
40
0.1675
40
0.1675
40
0.17
40
0.17
40
0.17
40
0.17
40
0.1725
40
0.1725
40
0.1725
40
0.1725
40
0.175
40
0.175
40
0.175
40
0.175
40
0.1775
40
0.1775
40
0.1775
40
0.1775
40
0.18
40
0.18
40
0.18
40
0.18
40
0.1825
40
0.1825
40
0.1825
40
0.1825
40
0.185
40
0.185
40
0.185
40
0.185
40
0.1875
40
0.1875
40
0.1875
40
0.1875
40
0.19
40
0.19
40
0.19
40
0.19
40
0.1925
40
0.1925
40
0.1925
40
0.1925
40
0.195
40
0.195
40
0.195
40
0.195
40
0.1975
40
0.1975
40
0.1975
40
0.1975
40
0.2
40
0.2
40
0.2
40
0.2
40
0.2025
40
0.2025
40
0.2025
40
0.2025
40
0.205
40
0.205
40
0.205
40
0.205
40
0.2075
40
0.2075
40
0.2075
40
0.2075
40
0.21
40
0.21
40
0.21
40
0.21
40
0.2125
40
0.2125
40
0.2125
40
0.2125
40
0.215
40
0.215
40
0.215
40
0.215
40
0.2175
40
0.2175
40
0.2175
40
0.2175
40
0.22
40
0.22
40
0.22
40
0.22
40
0.2225
40
0.2225
40
0.2225
40
0.2225
40
0.225
40
0.225
40
0.225
40
0.225
40
0.2275
40
0.2275
40
0.2275
40
0.2275
40
0.23
40
0.23
40
0.23
40
0.23
40
0.2325
40
0.2325
40
0.2325
40
0.2325
40
0.235
40
0.235
40
0.235
40
0.235
40
0.2375
40
0.2375
40
0.2375
40
0.2375
40
0.24
40
0.24
40
0.24
40
0.24
40
0.2425
40
0.2425
40
0.2425
40
0.2425
40
0.245
40
0.245
40
0.245
40
0.245
40
0.2475
40
0.2475
40
0.2475
40
0.2475
40
0.25
40
0.25
40
0.25
40
0.25
40
0.2525
40
0.2525
40
0.2525
40
0.2525
40
0.255
40
0.255
40
0.255
40
0.255
40
0.2575
40
0.2575
40
0.2575
40
0.2575
40
0.26
40
0.26
40
0.26
40
0.26
40
0.2625
40
0.2625
40
0.2625
40
0.2625
40
0.265
40
0.265
40
0.265
40
0.265
40
0.2675
40
0.2675
40
0.2675
40
0.2675
40
0.27
40
0.27
40
0.27
40
0.27
40
0.2725
40
0.2725
40
0.2725
40
0.2725
40
0.275
40
0.275
40
0.275
40
0.275
40
0.2775
40
0.2775
40
0.2775
40
0.2775
40
0.28
40
0.28
40
0.28
40
0.28
40
0.2825
40
0.2825
40
0.2825
40
0.2825
40
0.285
40
0.285
40
0.285
40
0.285
40
0.2875
40
0.2875
40
0.2875
40
0.2875
40
0.29
40
0.29
40
0.29
40
0.29
40
0.2925
40
0.2925
40
0.2925
40
0.2925
40
0.295
40
0.295
40
0.295
40
0.295
40
0.2975
40
0.2975
40
0.2975
40
0.2975
40
0.3
40
0.3
40
0.3
40
0.3
40
0.3025
40
0.3025
40
0.3025
40
0.3025
40
0.305
40
0.305
40
0.305
40
0.305
40
0.3075
40
0.3075
40
0.3075
40
0.3075
40
0.31
40
0.31
40
0.31
40
0.31
40
0.3125
40
0.3125
40
0.3125
40
0.3125
40
0.315
40
0.315
40
0.315
40
0.315
40
0.3175
40
0.3175
40
0.3175
40
0.3175
40
0.32
40
0.32
40
0.32
40
0.32
40
0.3225
40
0.3225
40
0.3225
40
0.3225
40
0.325
40
0.325
40
0.325
40
0.325
40
0.3275
40
0.3275
40
0.3275
40
0.3275
40
0.33
40
0.33
40
0.33
40
0.33
40
0.3325
40
0.3325
40
0.3325
40
0.3325
40
0.335
40
0.335
40
0.335
40
0.335
40
0.3375
40
0.3375
40
0.3375
40
0.3375
40
0.34
40
0.34
40
0.34
40
0.34
40
0.3425
40
0.3425
40
0.3425
40
0.3425
40
0.345
40
0.345
40
0.345
40
0.345
40
0.3475
40
0.3475
40
0.3475
40
0.3475
40
0.35
40
0.35
40
0.35
40
0.35
40
0.3525
40
0.3525
40
0.3525
40
0.3525
40
0.355
40
0.355
40
0.355
40
0.355
40
0.3575
40
0.3575
40
0.3575
40
0.3575
40
0.36
40
0.36
40
0.36
40
0.36
40
0.3625
40
0.3625
40
0.3625
40
0.3625
40
0.365
40
0.365
40
0.365
40
0.365
40
0.3675
40
0.3675
40
0.3675
40
0.3675
40
0.37
40
0.37
40
0.37
40
0.37
40
0.3725
40
0.3725
40
0.3725
40
0.3725
40
0.375
40
0.375
40
0.375
40
0.375
40
0.3775
40
0.3775
40
0.3775
40
0.3775
40
0.38
40
0.38
40
0.38
40
0.38
40
0.3825
40
0.3825
40
0.3825
40
0.3825
40
0.385
40
0.385
40
0.385
40
0.385
40
0.3875
40
0.3875
40
0.3875
40
0.3875
40
0.39
40
0.39
40
0.39
40
0.39
40
0.3925
40
0.3925
40
0.3925
40
0.3925
40
0.395
40
0.395
40
0.395
40
0.395
40
0.3975
40
0.3975
40
0.3975
40
0.3975
40
0.4
40
0.4
40
0.4
40
0.4
40
0.4025
40
0.4025
40
0.4025
40
0.4025
40
0.405
40
0.405
40
0.405
40
0.405
40
0.4075
40
0.4075
40
0.4075
40
0.4075
40
0.41
40
0.41
40
0.41
40
0.41
40
0.4125
40
0.4125
40
0.4125
40
0.4125
40
0.415
40
0.415
40
0.415
40
0.415
40
0.4175
40
0.4175
40
0.4175
40
0.4175
40
0.42
40
0.42
40
0.42
40
0.42
40
0.4225
40
0.4225
40
0.4225
40
0.4225
40
0.425
40
0.425
40
0.425
40
0.425
40
0.4275
40
0.4275
40
0.4275
40
0.4275
40
0.43
40
0.43
40
0.43
40
0.43
40
0.4325
40
0.4325
40
0.4325
40
0.4325
40
0.435
40
0.435
40
0.435
40
0.435
40
0.4375
40
0.4375
40
0.4375
40
0.4375
40
0.44
40
0.44
40
0.44
40
0.44
40
0.4425
40
0.4425
40
0.4425
40
0.4425
40
0.445
40
0.445
40
0.445
40
0.445
40
0.4475
40
0.4475
40
0.4475
40
0.4475
40
0.45
40
0.45
40
0.45
40
0.45
40
0.4525
40
0.4525
40
0.4525
40
0.4525
40
0.455
40
0.455
40
0.455
40
0.455
40
0.4575
40
0.4575
40
0.4575
40
0.4575
40
0.46
40
0.46
40
0.46
40
0.46
40
0.4625
40
0.4625
40
0.4625
40
0.4625
40
0.465
40
0.465
40
0.465
40
0.465
40
0.4675
40
0.4675
40
0.4675
40
0.4675
40
0.47
40
0.47
40
0.47
40
0.47
40
0.4725
40
0.4725
40
0.4725
40
0.4725
40
0.475
40
0.475
40
0.475
40
0.475
40
0.4775
40
0.4775
40
0.4775
40
0.4775
40
0.48
40
0.48
40
0.48
40
0.48
40
0.4825
40
0.4825
40
0.4825
40
0.4825
40
0.485
40
0.485
40
0.485
40
0.485
40
0.4875
40
0.4875
40
0.4875
40
0.4875
40
0.49
40
0.49
40
0.49
40
0.49
40
0.4925
40
0.4925
40
0.4925
40
0.4925
40
0.495
40
0.495
40
0.495
40
0.495
40
0.4975
40
0.4975
40
0.4975
40
0.4975
40
0.5
40
0.5
40
0.5
40
0.5
40
0.5025
40
0.5025
40
0.5025
40
0.5025
40
0.505
40
0.505
40
0.505
40
0.505
40
0.5075
40
0.5075
40
0.5075
40
0.5075
40
0.51
40
0.51
40
0.51
40
0.51
40
0.5125
40
0.5125
40
0.5125
40
0.5125
40
0.515
40
0.515
40
0.515
40
0.515
40
0.5175
40
0.5175
40
0.5175
40
0.5175
40
0.52
40
0.52
40
0.52
40
0.52
40
0.5225
40
0.5225
40
0.5225
40
0.5225
40
0.525
40
0.525
40
0.525
40
0.525
40
0.5275
40
0.5275
40
0.5275
40
0.5275
40
0.53
40
0.53
40
0.53
40
0.53
40
0.5325
40
0.5325
40
0.5325
40
0.5325
40
0.535
40
0.535
40
0.535
40
0.535
40
0.5375
40
0.5375
40
0.5375
40
0.5375
40
0.54
40
0.54
40
0.54
40
0.54
40
0.5425
40
0.5425
40
0.5425
40
0.5425
40
0.545
40
0.545
40
0.545
40
0.545
40
0.5475
40
0.5475
40
0.5475
40
0.5475
40
0.55
40
0.55
40
0.55
40
0.55
40
0.5525
40
0.5525
40
0.5525
40
0.5525
40
0.555
40
0.555
40
0.555
40
0.555
40
0.5575
40
0.5575
40
0.5575
40
0.5575
40
0.56
40
0.56
40
0.56
40
0.56
40
0.5625
40
0.5625
40
0.5625
40
0.5625
40
0.565
40
0.565
40
0.565
40
0.565
40
0.5675
40
0.5675
40
0.5675
40
0.5675
40
0.57
40
0.57
40
0.57
40
0.57
40
0.5725
40
0.5725
40
0.5725
40
0.5725
40
0.575
40
0.575
40
0.575
40
0.575
40
0.5775
40
0.5775
40
0.5775
40
0.5775
40
0.58
40
0.58
40
0.58
40
0.58
40
0.5825
40
0.5825
40
0.5825
40
0.5825
40
0.585
40
0.585
40
0.585
40
0.585
40
0.5875
40
0.5875
40
0.5875
40
0.5875
40
0.59
40
0.59
40
0.59
40
0.59
40
0.5925
40
0.5925
40
0.5925
40
0.5925
40
0.595
40
0.595
40
0.595
40
0.595
40
0.5975
40
0.5975
40
0.5975
40
0.5975
40
0.6
40
0.6
40
0.6
40
0.6
40
0.6025
40
0.6025
40
0.6025
40
0.6025
40
0.605
40
0.605
40
0.605
40
0.605
40
0.6075
40
0.6075
40
0.6075
40
0.6075
40
0.61
40
0.61
40
0.61
40
0.61
40
0.6125
40
0.6125
40
0.6125
40
0.6125
40
0.615
40
0.615
40
0.615
40
0.615
40
0.6175
40
0.6175
40
0.6175
40
0.6175
40
0.62
40
0.62
40
0.62
40
0.62
40
0.6225
40
0.6225
40
0.6225
40
0.6225
40
0.625
40
0.625
40
0.625
40
0.625
40
0.6275
40
0.6275
40
0.6275
40
0.6275
40
0.63
40
0.63
40
0.63
40
0.63
40
0.6325
40
0.6325
40
0.6325
40
0.6325
40
0.635
40
0.635
40
0.635
40
0.635
40
0.6375
40
0.6375
40
0.6375
40
0.6375
40
0.64
40
0.64
40
0.64
40
0.64
40
0.6425
40
0.6425
40
0.6425
40
0.6425
40
0.645
40
0.645
40
0.645
40
0.645
40
0.6475
40
0.6475
40
0.6475
40
0.6475
40
0.65
40
0.65
40
0.65
40
0.65
40
0.6525
40
0.6525
40
0.6525
40
0.6525
40
0.655
40
0.655
40
0.655
40
0.655
40
0.6575
40
0.6575
40
0.6575
40
0.6575
40
0.66
40
0.66
40
0.66
40
0.66
40
0.6625
40
0.6625
40
0.6625
40
0.6625
40
0.665
40
0.665
40
0.665
40
0.665
40
0.6675
40
0.6675
40
0.6675
40
0.6675
40
0.67
40
0.67
40
0.67
40
0.67
40
0.6725
40
0.6725
40
0.6725
40
0.6725
40
0.675
40
0.675
40
0.675
40
0.675
40
0.6775
40
0.6775
40
0.6775
40
0.6775
40
0.68
40
0.68
40
0.68
40
0.68
40
0.6825
40
0.6825
40
0.6825
40
0.6825
40
0.685
40
0.685
40
0.685
40
0.685
40
0.6875
40
0.6875
40
0.6875
40
0.6875
40
0.69
40
0.69
40
0.69
40
0.69
40
0.6925
40
0.6925
40
0.6925
40
0.6925
40
0.695
40
0.695
40
0.695
40
0.695
40
0.6975
40
0.6975
40
0.6975
40
0.6975
40
0.7
40
0.7
40
0.7
40
0.7
40
0.7025
40
0.7025
40
0.7025
40
0.7025
40
0.705
40
0.705
40
0.705
40
0.705
40
0.7075
40
0.7075
40
0.7075
40
0.7075
40
0.71
40
0.71
40
0.71
40
0.71
40
0.7125
40
0.7125
40
0.7125
40
0.7125
40
0.715
40
0.715
40
0.715
40
0.715
40
0.7175
40
0.7175
40
0.7175
40
0.7175
40
0.72
40
0.72
40
0.72
40
0.72
40
0.7225
40
0.7225
40
0.7225
40
0.7225
40
0.725
40
0.725
40
0.725
40
0.725
40
0.7275
40
0.7275
40
0.7275
40
0.7275
40
0.73
40
0.73
40
0.73
40
0.73
40
0.7325
40
0.7325
40
0.7325
40
0.7325
40
0.735
40
0.735
40
0.735
40
0.735
40
0.7375
40
0.7375
40
0.7375
40
0.7375
40
0.74
40
0.74
40
0.74
40
0.74
40
0.7425
40
0.7425
40
0.7425
40
0.7425
40
0.745
40
0.745
40
0.745
40
0.745
40
0.7475
40
0.7475
40
0.7475
40
0.7475
40
0.75
40
0.75
40
0.75
40
0.75
40
0.7525
40
0.7525
40
0.7525
40
0.7525
40
0.755
40
0.755
40
0.755
40
0.755
40
0.7575
40
0.7575
40
0.7575
40
0.7575
40
0.76
40
0.76
40
0.76
40
0.76
40
0.7625
40
0.7625
40
0.7625
40
0.7625
40
0.765
40
0.765
40
0.765
40
0.765
40
0.7675
40
0.7675
40
0.7675
40
0.7675
40
0.77
40
0.77
40
0.77
40
0.77
40
0.7725
40
0.7725
40
0.7725
40
0.7725
40
0.775
40
0.775
40
0.775
40
0.775
40
0.7775
40
0.7775
40
0.7775
40
0.7775
40
0.78
40
0.78
40
0.78
40
0.78
40
0.7825
40
0.7825
40
0.7825
40
0.7825
40
0.785
40
0.785
40
0.785
40
0.785
40
0.7875
40
0.7875
40
0.7875
40
0.7875
40
0.79
40
0.79
40
0.79
40
0.79
40
0.7925
40
0.7925
40
0.7925
40
0.7925
40
0.795
40
0.795
40
0.795
40
0.795
40
0.7975
40
0.7975
40
0.7975
40
0.7975
40
0.8
40
0.8
40
0.8
40
0.8
40
0.8025
40
0.8025
40
0.8025
40
0.8025
40
0.805
40
0.805
40
0.805
40
0.805
40
0.8075
40
0.8075
40
0.8075
40
0.8075
40
0.81
40
0.81
40
0.81
40
0.81
40
0.8125
40
0.8125
40
0.8125
40
0.8125
40
0.815
40
0.815
40
0.815
40
0.815
40
0.8175
40
0.8175
40
0.8175
40
0.8175
40
0.82
40
0.82
40
0.82
40
0.82
40
0.8225
40
0.8225
40
0.8225
40
0.8225
40
0.825
40
0.825
40
0.825
40
0.825
40
0.8275
40
0.8275
40
0.8275
40
0.8275
40
0.83
40
0.83
40
0.83
40
0.83
40
0.8325
40
0.8325
40
0.8325
40
0.8325
40
0.835
40
0.835
40
0.835
40
0.835
40
0.8375
40
0.8375
40
0.8375
40
0.8375
40
0.84
40
0.84
40
0.84
40
0.84
40
0.8425
40
0.8425
40
0.8425
40
0.8425
40
0.845
40
0.845
40
0.845
40
0.845
40
0.8475
40
0.8475
40
0.8475
40
0.8475
40
0.85
40
0.85
40
0.85
40
0.85
40
0.8525
40
0.8525
40
0.8525
40
0.8525
40
0.855
40
0.855
40
0.855
40
0.855
40
0.8575
40
0.8575
40
0.8575
40
0.8575
40
0.86
40
0.86
40
0.86
40
0.86
40
0.8625
40
0.8625
40
0.8625
40
0.8625
40
0.865
40
0.865
40
0.865
40
0.865
40
0.8675
40
0.8675
40
0.8675
40
0.8675
40
0.87
40
0.87
40
0.87
40
0.87
40
0.8725
40
0.8725
40
0.8725
40
0.8725
40
0.875
40
0.875
40
0.875
40
0.875
40
0.8775
40
0.8775
40
0.8775
40
0.8775
40
0.88
40
0.88
40
0.88
40
0.88
40
0.8825
40
0.8825
40
0.8825
40
0.8825
40
0.885
40
0.885
40
0.885
40
0.885
40
0.8875
40
0.8875
40
0.8875
40
0.8875
40
0.89
40
0.89
40
0.89
40
0.89
40
0.8925
40
0.8925
40
0.8925
40
0.8925
40
0.895
40
0.895
40
0.895
40
0.895
40
0.8975
40
0.8975
40
0.8975
40
0.8975
40
0.9
40
0.9
40
0.9
40
0.9
40
0.9025
40
0.9025
40
0.9025
40
0.9025
40
0.905
40
0.905
40
0.905
40
0.905
40
0.9075
40
0.9075
40
0.9075
40
0.9075
40
0.91
40
0.91
40
0.91
40
0.91
40
0.9125
40
0.9125
40
0.9125
40
0.9125
40
0.915
40
0.915
40
0.915
40
0.915
40
0.9175
40
0.9175
40
0.9175
40
0.9175
40
0.92
40
0.92
40
0.92
40
0.92
40
0.9225
40
0.9225
40
0.9225
40
0.9225
40
0.925
40
0.925
40
0.925
40
0.925
40
0.9275
40
0.9275
40
0.9275
40
0.9275
40
0.93
40
0.93
40
0.93
40
0.93
40
0.9325
40
0.9325
40
0.9325
40
0.9325
40
0.935
40
0.935
40
0.935
40
0.935
40
0.9375
40
0.9375
40
0.9375
40
0.9375
40
0.94
40
0.94
40
0.94
40
0.94
40
0.9425
40
0.9425
40
0.9425
40
0.9425
40
0.945
40
0.945
40
0.945
40
0.945
40
0.9475
40
0.9475
40
0.9475
40
0.9475
40
0.95
40
0.95
40
0.95
40
0.95
40
0.9525
40
0.9525
40
0.9525
40
0.9525
40
0.955
40
0.955
40
0.955
40
0.955
40
0.9575
40
0.9575
40
0.9575
40
0.9575
40
0.96
40
0.96
40
0.96
40
0.96
40
0.9625
40
0.9625
40
0.9625
40
0.9625
40
0.965
40
0.965
40
0.965
40
0.965
40
0.9675
40
0.9675
40
0.9675
40
0.9675
40
0.97
40
0.97
40
0.97
40
0.97
40
0.9725
40
0.9725
40
0.9725
40
0.9725
40
0.975
40
0.975
40
0.975
40
0.975
40
0.9775
40
0.9775
40
0.9775
40
0.9775
40
0.98
40
0.98
40
0.98
40
0.98
40
0.9825
40
0.9825
40
0.9825
40
0.9825
40
0.985
40
0.985
40
0.985
40
0.985
40
0.9875
40
0.9875
40
0.9875
40
0.9875
40
0.99
40
0.99
40
0.99
40
0.99
40
0.9925
40
0.9925
40
0.9925
40
0.9925
40
0.995
40
0.995
40
0.995
40
0.995
40
0.9975
40
0.9975
40
0.9975
40
0.9975
40
1
40
1
40
1
40
1
10
-82.5
20
-38.5
30
0
10
-82.5
20
-38.5
30
0
10
-82
20
-37.9081
30
0
10
-82
20
-37.9081
30
0
10
-82
20
-37.9081
30
0
10
-82
20
-37.9081
30
0
10
-81.5
20
-37.3181
30
0
10
-81.5
20
-37.3181
30
0
10
-81.5
20
-37.3181
30
0
10
-81.5
20
-37.3181
30
0
10
-81
20
-36.7302
30
0
10
-81
20
-36.7302
30
0
10
-81
20
-36.7302
30
0
10
-81
20
-36.7302
30
0
10
-80.5
20
-36.1441
30
0
10
-80.5
20
-36.1441
30
0
10
-80.5
20
-36.1441
30
0
10
-80.5
20
-36.1441
30
0
10
-80
20
-35.5601
30
0
10
-80
20
-35.5601
30
0
10
-80
20
-35.5601
30
0
10
-80
20
-35.5601
30
0
10
-79.5
20
-34.978
30
0
10
-79.5
20
-34.978
30
0
10
-79.5
20
-34.978
30
0
10
-79.5
20
-34.978
30
0
10
-79
20
-34.3979
30
0
10
-79
20
-34.3979
30
0
10
-79
20
-34.3979
30
0
10
-79
20
-34.3979
30
0
10
-78.5
20
-33.8197
30
0
10
-78.5
20
-33.8197
30
0
10
-78.5
20
-33.8197
30
0
10
-78.5
20
-33.8197
30
0
10
-78
20
-33.2435
30
0
10
-78
20
-33.2435
30
0
10
-78
20
-33.2435
30
0
10
-78
20
-33.2435
30
0
10
-77.5
20
-32.6693
30
0
10
-77.5
20
-32.6693
30
0
10
-77.5
20
-32.6693
30
0
10
-77.5
20
-32.6693
30
0
10
-77
20
-32.097
30
0
10
-77
20
-32.097
30
0
10
-77
20
-32.097
30
0
10
-77
20
-32.097
30
0
10
-76.5
20
-31.5267
30
0
10
-76.5
20
-31.5267
30
0
10
-76.5
20
-31.5267
30
0
10
-76.5
20
-31.5267
30
0
10
-76
20
-30.9584
30
0
10
-76
20
-30.9584
30
0
10
-76
20
-30.9584
30
0
10
-76
20
-30.9584
30
0
10
-75.5
20
-30.392
30
0
10
-75.5
20
-30.392
30
0
10
-75.5
20
-30.392
30
0
10
-75.5
20
-30.392
30
0
10
-75
20
-29.8276
30
0
10
-75
20
-29.8276
30
0
10
-75
20
-29.8276
30
0
10
-75
20
-29.8276
30
0
10
-74.5
20
-29.2652
30
0
10
-74.5
20
-29.2652
30
0
10
-74.5
20
-29.2652
30
0
10
-74.5
20
-29.2652
30
0
10
-74
20
-28.7047
30
0
10
-74
20
-28.7047
30
0
10
-74
20
-28.7047
30
0
10
-74
20
-28.7047
30
0
10
-73.5
20
-28.1462
30
0
10
-73.5
20
-28.1462
30
0
10
-73.5
20
-28.1462
30
0
10
-73.5
20
-28.1462
30
0
10
-73
20
-27.5896
30
0
10
-73
20
-27.5896
30
0
10
-73
20
-27.5896
30
0
10
-73
20
-27.5896
30
0
10
-72.5
20
-27.035
30
0
10
-72.5
20
-27.035
30
0
10
-72.5
20
-27.035
30
0
10
-72.5
20
-27.035
30
0
10
-72
20
-26.4824
30
0
10
-72
20
-26.4824
30
0
10
-72
20
-26.4824
30
0
10
-72
20
-26.4824
30
0
10
-71.5
20
-25.9318
30
0
10
-71.5
20
-25.9318
30
0
10
-71.5
20
-25.9318
30
0
10
-71.5
20
-25.9318
30
0
10
-71
20
-25.3831
30
0
10
-71
20
-25.3831
30
0
10
-71
20
-25.3831
30
0
10
-71
20
-25.3831
30
0
10
-70.5
20
-24.8363
30
0
10
-70.5
20
-24.8363
30
0
10
-70.5
20
-24.8363
30
0
10
-70.5
20
-24.8363
30
0
10
-70
20
-24.2916
30
0
10
-70
20
-24.2916
30
0
10
-70
20
-24.2916
30
0
10
-70
20
-24.2916
30
0
10
-69.5
20
-23.7488
30
0
10
-69.5
20
-23.7488
30
0
10
-69.5
20
-23.7488
30
0
10
-69.5
20
-23.7488
30
0
10
-69
20
-23.2079
30
0
10
-69
20
-23.2079
30
0
10
-69
20
-23.2079
30
0
10
-69
20
-23.2079
30
0
10
-68.5
20
-22.6691
30
0
10
-68.5
20
-22.6691
30
0
10
-68.5
20
-22.6691
30
0
10
-68.5
20
-22.6691
30
0
10
-68
20
-22.1322
30
0
10
-68
20
-22.1322
30
0
10
-68
20
-22.1322
30
0
10
-68
20
-22.1322
30
0
10
-67.5
20
-21.5972
30
0
10
-67.5
20
-21.5972
30
0
10
-67.5
20
-21.5972
30
0
10
-67.5
20
-21.5972
30
0
10
-67
20
-21.0643
30
0
10
-67
20
-21.0643
30
0
10
-67
20
-21.0643
30
0
10
-67
20
-21.0643
30
0
10
-66.5
20
-20.5332
30
0
10
-66.5
20
-20.5332
30
0
10
-66.5
20
-20.5332
30
0
10
-66.5
20
-20.5332
30
0
10
-66
20
-20.0042
30
0
10
-66
20
-20.0042
30
0
10
-66
20
-20.0042
30
0
10
-66
20
-20.0042
30
0
10
-65.5
20
-19.4771
30
0
10
-65.5
20
-19.4771
30
0
10
-65.5
20
-19.4771
30
0
10
-65.5
20
-19.4771
30
0
10
-65
20
-18.952
30
0
10
-65
20
-18.952
30
0
10
-65
20
-18.952
30
0
10
-65
20
-18.952
30
0
10
-64.5
20
-18.4288
30
0
10
-64.5
20
-18.4288
30
0
10
-64.5
20
-18.4288
30
0
10
-64.5
20
-18.4288
30
0
10
-64
20
-17.9077
30
0
10
-64
20
-17.9077
30
0
10
-64
20
-17.9077
30
0
10
-64
20
-17.9077
30
0
10
-63.5
20
-17.3884
30
0
10
-63.5
20
-17.3884
30
0
10
-63.5
20
-17.3884
30
0
10
-63.5
20
-17.3884
30
0
10
-63
20
-16.8712
30
0
10
-63
20
-16.8712
30
0
10
-63
20
-16.8712
30
0
10
-63
20
-16.8712
30
0
10
-62.5
20
-16.3559
30
0
10
-62.5
20
-16.3559
30
0
10
-62.5
20
-16.3559
30
0
10
-62.5
20
-16.3559
30
0
10
-62
20
-15.8425
30
0
10
-62
20
-15.8425
30
0
10
-62
20
-15.8425
30
0
10
-62
20
-15.8425
30
0
10
-61.5
20
-15.3312
30
0
10
-61.5
20
-15.3312
30
0
10
-61.5
20
-15.3312
30
0
10
-61.5
20
-15.3312
30
0
10
-61
20
-14.8218
30
0
10
-61
20
-14.8218
30
0
10
-61
20
-14.8218
30
0
10
-61
20
-14.8218
30
0
10
-60.5
20
-14.3143
30
0
10
-60.5
20
-14.3143
30
0
10
-60.5
20
-14.3143
30
0
10
-60.5
20
-14.3143
30
0
10
-60
20
-13.8089
30
0
10
-60
20
-13.8089
30
0
10
-60
20
-13.8089
30
0
10
-60
20
-13.8089
30
0
10
-59.5
20
-13.3053
30
0
10
-59.5
20
-13.3053
30
0
10
-59.5
20
-13.3053
30
0
10
-59.5
20
-13.3053
30
0
10
-59
20
-12.8038
30
0
10
-59
20
-12.8038
30
0
10
-59
20
-12.8038
30
0
10
-59
20
-12.8038
30
0
10
-58.5
20
-12.3042
30
0
10
-58.5
20
-12.3042
30
0
10
-58.5
20
-12.3042
30
0
10
-58.5
20
-12.3042
30
0
10
-58
20
-11.8066
30
0
10
-58
20
-11.8066
30
0
10
-58
20
-11.8066
30
0
10
-58
20
-11.8066
30
0
10
-57.5
20
-11.311
30
0
10
-57.5
20
-11.311
30
0
10
-57.5
20
-11.311
30
0
10
-57.5
20
-11.311
30
0
10
-57
20
-10.8173
30
0
10
-57
20
-10.8173
30
0
10
-57
20
-10.8173
30
0
10
-57
20
-10.8173
30
0
10
-56.5
20
-10.3255
30
0
10
-56.5
20
-10.3255
30
0
10
-56.5
20
-10.3255
30
0
10
-56.5
20
-10.3255
30
0
10
-56
20
-9.83579
30
0
10
-56
20
-9.83579
30
0
10
-56
20
-9.83579
30
0
10
-56
20
-9.83579
30
0
10
-55.5
20
-9.34799
30
0
10
-55.5
20
-9.34799
30
0
10
-55.5
20
-9.34799
30
0
10
-55.5
20
-9.34799
30
0
10
-55
20
-8.86216
30
0
10
-55
20
-8.86216
30
0
10
-55
20
-8.86216
30
0
10
-55
20
-8.86216
30
0
10
-54.5
20
-8.3783
30
0
10
-54.5
20
-8.3783
30
0
10
-54.5
20
-8.3783
30
0
10
-54.5
20
-8.3783
30
0
10
-54
20
-7.8964
30
0
10
-54
20
-7.8964
30
0
10
-54
20
-7.8964
30
0
10
-54
20
-7.8964
30
0
10
-53.5
20
-7.41646
30
0
10
-53.5
20
-7.41646
30
0
10
-53.5
20
-7.41646
30
0
10
-53.5
20
-7.41646
30
0
10
-53
20
-6.93849
30
0
10
-53
20
-6.93849
30
0
10
-53
20
-6.93849
30
0
10
-53
20
-6.93849
30
0
10
-52.5
20
-6.46248
30
0
10
-52.5
20
-6.46248
30
0
10
-52.5
20
-6.46248
30
0
10
-52.5
20
-6.46248
30
0
10
-52
20
-5.98844
30
0
10
-52
20
-5.98844
30
0
10
-52
20
-5.98844
30
0
10
-52
20
-5.98844
30
0
10
-51.5
20
-5.51636
30
0
10
-51.5
20
-5.51636
30
0
10
-51.5
20
-5.51636
30
0
10
-51.5
20
-5.51636
30
0
10
-51
20
-5.04625
30
0
10
-51
20
-5.04625
30
0
10
-51
20
-5.04625
30
0
10
-51
20
-5.04625
30
0
10
-50.5
20
-4.5781
30
0
10
-50.5
20
-4.5781
30
0
10
-50.5
20
-4.5781
30
0
10
-50.5
20
-4.5781
30
0
10
-50
20
-4.11192
30
0
10
-50
20
-4.11192
30
0
10
-50
20
-4.11192
30
0
10
-50
20
-4.11192
30
0
10
-49.5
20
-3.6477
30
0
10
-49.5
20
-3.6477
30
0
10
-49.5
20
-3.6477
30
0
10
-49.5
20
-3.6477
30
0
10
-49
20
-3.18544
30
0
10
-49
20
-3.18544
30
0
10
-49
20
-3.18544
30
0
10
-49
20
-3.18544
30
0
10
-48.5
20
-2.72515
30
0
10
-48.5
20
-2.72515
30
0
10
-48.5
20
-2.72515
30
0
10
-48.5
20
-2.72515
30
0
10
-48
20
-2.26682
30
0
10
-48
20
-2.26682
30
0
10
-48
20
-2.26682
30
0
10
-48
20
-2.26682
30
0
10
-47.5
20
-1.81046
30
0
10
-47.5
20
-1.81046
30
0
10
-47.5
20
-1.81046
30
0
10
-47.5
20
-1.81046
30
0
10
-47
20
-1.35606
30
0
10
-47
20
-1.35606
30
0
10
-47
20
-1.35606
30
0
10
-47
20
-1.35606
30
0
10
-46.5
20
-0.903629
30
0
10
-46.5
20
-0.903629
30
0
10
-46.5
20
-0.903629
30
0
10
-46.5
20
-0.903629
30
0
10
-46
20
-0.45316
30
0
10
-46
20
-0.45316
30
0
10
-46
20
-0.45316
30
0
10
-46
20
-0.45316
30
0
10
-45.5
20
-0.00465546
30
0
10
-45.5
20
-0.00465546
30
0
10
-45.5
20
-0.00465546
30
0
10
-45.5
20
-0.00465546
30
0
10
-45
20
0.441885
30
0
10
-45
20
0.441885
30
0
10
-45
20
0.441885
30
0
10
-45
20
0.441885
30
0
10
-44.5
20
0.88646
30
0
10
-44.5
20
0.88646
30
0
10
-44.5
20
0.88646
30
0
10
-44.5
20
0.88646
30
0
10
-44
20
1.32907
30
0
10
-44
20
1.32907
30
0
10
-44
20
1.32907
30
0
10
-44
20
1.32907
30
0
10
-43.5
20
1.76972
30
0
10
-43.5
20
1.76972
30
0
10
-43.5
20
1.76972
30
0
10
-43.5
20
1.76972
30
0
10
-43
20
2.2084
30
0
10
-43
20
2.2084
30
0
10
-43
20
2.2084
30
0
10
-43
20
2.2084
30
0
10
-42.5
20
2.64512
30
0
10
-42.5
20
2.64512
30
0
10
-42.5
20
2.64512
30
0
10
-42.5
20
2.64512
30
0
10
-42
20
3.07987
30
0
10
-42
20
3.07987
30
0
10
-42
20
3.07987
30
0
10
-42
20
3.07987
30
0
10
-41.5
20
3.51266
30
0
10
-41.5
20
3.51266
30
0
10
-41.5
20
3.51266
30
0
10
-41.5
20
3.51266
30
0
10
-41
20
3.94348
30
0
10
-41
20
3.94348
30
0
10
-41
20
3.94348
30
0
10
-41
20
3.94348
30
0
10
-40.5
20
4.37234
30
0
10
-40.5
20
4.37234
30
0
10
-40.5
20
4.37234
30
0
10
-40.5
20
4.37234
30
0
10
-40
20
4.79924
30
0
10
-40
20
4.79924
30
0
10
-40
20
4.79924
30
0
10
-40
20
4.79924
30
0
10
-39.5
20
5.22417
30
0
10
-39.5
20
5.22417
30
0
10
-39.5
20
5.22417
30
0
10
-39.5
20
5.22417
30
0
10
-39
20
5.64714
30
0
10
-39
20
5.64714
30
0
10
-39
20
5.64714
30
0
10
-39
20
5.64714
30
0
10
-38.5
20
6.06814
30
0
10
-38.5
20
6.06814
30
0
10
-38.5
20
6.06814
30
0
10
-38.5
20
6.06814
30
0
10
-38
20
6.48718
30
0
10
-38
20
6.48718
30
0
10
-38
20
6.48718
30
0
10
-38
20
6.48718
30
0
10
-37.5
20
6.90425
30
0
10
-37.5
20
6.90425
30
0
10
-37.5
20
6.90425
30
0
10
-37.5
20
6.90425
30
0
10
-37
20
7.31936
30
0
10
-37
20
7.31936
30
0
10
-37
20
7.31936
30
0
10
-37
20
7.31936
30
0
10
-36.5
20
7.7325
30
0
10
-36.5
20
7.7325
30
0
10
-36.5
20
7.7325
30
0
10
-36.5
20
7.7325
30
0
10
-36
20
8.14368
30
0
10
-36
20
8.14368
30
0
10
-36
20
8.14368
30
0
10
-36
20
8.14368
30
0
10
-35.5
20
8.5529
30
0
10
-35.5
20
8.5529
30
0
10
-35.5
20
8.5529
30
0
10
-35.5
20
8.5529
30
0
10
-35
20
8.96015
30
0
10
-35
20
8.96015
30
0
10
-35
20
8.96015
30
0
10
-35
20
8.96015
30
0
10
-34.5
20
9.36543
30
0
10
-34.5
20
9.36543
30
0
10
-34.5
20
9.36543
30
0
10
-34.5
20
9.36543
30
0
10
-34
20
9.76876
30
0
10
-34
20
9.76876
30
0
10
-34
20
9.76876
30
0
10
-34
20
9.76876
30
0
10
-33.5
20
10.1701
30
0
10
-33.5
20
10.1701
30
0
10
-33.5
20
10.1701
30
0
10
-33.5
20
10.1701
30
0
10
-33
20
10.5695
30
0
10
-33
20
10.5695
30
0
10
-33
20
10.5695
30
0
10
-33
20
10.5695
30
0
10
-32.5
20
10.9669
30
0
10
-32.5
20
10.9669
30
0
10
-32.5
20
10.9669
30
0
10
-32.5
20
10.9669
30
0
10
-32
20
11.3624
30
0
10
-32
20
11.3624
30
0
10
-32
20
11.3624
30
0
10
-32
20
11.3624
30
0
10
-31.5
20
11.7559
30
0
10
-31.5
20
11.7559
30
0
10
-31.5
20
11.7559
30
0
10
-31.5
20
11.7559
30
0
10
-31
20
12.1474
30
0
10
-31
20
12.1474
30
0
10
-31
20
12.1474
30
0
10
-31
20
12.1474
30
0
10
-30.5
20
12.537
30
0
10
-30.5
20
12.537
30
0
10
-30.5
20
12.537
30
0
10
-30.5
20
12.537
30
0
10
-30
20
12.9246
30
0
10
-30
20
12.9246
30
0
10
-30
20
12.9246
30
0
10
-30
20
12.9246
30
0
10
-29.5
20
13.3103
30
0
10
-29.5
20
13.3103
30
0
10
-29.5
20
13.3103
30
0
10
-29.5
20
13.3103
30
0
10
-29
20
13.6939
30
0
10
-29
20
13.6939
30
0
10
-29
20
13.6939
30
0
10
-29
20
13.6939
30
0
10
-28.5
20
14.0756
30
0
10
-28.5
20
14.0756
30
0
10
-28.5
20
14.0756
30
0
10
-28.5
20
14.0756
30
0
10
-28
20
14.4554
30
0
10
-28
20
14.4554
30
0
10
-28
20
14.4554
30
0
10
-28
20
14.4554
30
0
10
-27.5
20
14.8332
30
0
10
-27.5
20
14.8332
30
0
10
-27.5
20
14.8332
30
0
10
-27.5
20
14.8332
30
0
10
-27
20
15.209
30
0
10
-27
20
15.209
30
0
10
-27
20
15.209
30
0
10
-27
20
15.209
30
0
10
-26.5
20
15.5828
30
0
10
-26.5
20
15.5828
30
0
10
-26.5
20
15.5828
30
0
10
-26.5
20
15.5828
30
0
10
-26
20
15.9547
30
0
10
-26
20
15.9547
30
0
10
-26
20
15.9547
30
0
10
-26
20
15.9547
30
0
10
-25.5
20
16.3247
30
0
10
-25.5
20
16.3247
30
0
10
-25.5
20
16.3247
30
0
10
-25.5
20
16.3247
30
0
10
-25
20
16.6926
30
0
10
-25
20
16.6926
30
0
10
-25
20
16.6926
30
0
10
-25
20
16.6926
30
0
10
-24.5
20
17.0586
30
0
10
-24.5
20
17.0586
30
0
10
-24.5
20
17.0586
30
0
10
-24.5
20
17.0586
30
0
10
-24
20
17.4227
30
0
10
-24
20
17.4227
30
0
10
-24
20
17.4227
30
0
10
-24
20
17.4227
30
0
10
-23.5
20
17.7847
30
0
10
-23.5
20
17.7847
30
0
10
-23.5
20
17.7847
30
0
10
-23.5
20
17.7847
30
0
10
-23
20
18.1448
30
0
10
-23
20
18.1448
30
0
10
-23
20
18.1448
30
0
10
-23
20
18.1448
30
0
10
-22.5
20
18.503
30
0
10
-22.5
20
18.503
30
0
10
-22.5
20
18.503
30
0
10
-22.5
20
18.503
30
0
10
-22
20
18.8591
30
0
10
-22
20
18.8591
30
0
10
-22
20
18.8591
30
0
10
-22
20
18.8591
30
0
10
-21.5
20
19.2134
30
0
10
-21.5
20
19.2134
30
0
10
-21.5
20
19.2134
30
0
10
-21.5
20
19.2134
30
0
10
-21
20
19.5656
30
0
10
-21
20
19.5656
30
0
10
-21
20
19.5656
30
0
10
-21
20
19.5656
30
0
10
-20.5
20
19.9159
30
0
10
-20.5
20
19.9159
30
0
10
-20.5
20
19.9159
30
0
10
-20.5
20
19.9159
30
0
10
-20
20
20.2642
30
0
10
-20
20
20.2642
30
0
10
-20
20
20.2642
30
0
10
-20
20
20.2642
30
0
10
-19.5
20
20.6105
30
0
10
-19.5
20
20.6105
30
0
10
-19.5
20
20.6105
30
0
10
-19.5
20
20.6105
30
0
10
-19
20
20.9549
30
0
10
-19
20
20.9549
30
0
10
-19
20
20.9549
30
0
10
-19
20
20.9549
30
0
10
-18.5
20
21.2974
30
0
10
-18.5
20
21.2974
30
0
10
-18.5
20
21.2974
30
0
10
-18.5
20
21.2974
30
0
10
-18
20
21.6378
30
0
10
-18
20
21.6378
30
0
10
-18
20
21.6378
30
0
10
-18
20
21.6378
30
0
10
-17.5
20
21.9763
30
0
10
-17.5
20
21.9763
30
0
10
-17.5
20
21.9763
30
0
10
-17.5
20
21.9763
30
0
10
-17
20
22.3128
30
0
10
-17
20
22.3128
30
0
10
-17
20
22.3128
30
0
10
-17
20
22.3128
30
0
10
-16.5
20
22.6474
30
0
10
-16.5
20
22.6474
30
0
10
-16.5
20
22.6474
30
0
10
-16.5
20
22.6474
30
0
10
-16
20
22.98
30
0
10
-16
20
22.98
30
0
10
-16
20
22.98
30
0
10
-16
20
22.98
30
0
10
-15.5
20
23.3106
30
0
10
-15.5
20
23.3106
30
0
10
-15.5
20
23.3106
30
0
10
-15.5
20
23.3106
30
0
10
-15
20
23.6393
30
0
10
-15
20
23.6393
30
0
10
-15
20
23.6393
30
0
10
-15
20
23.6393
30
0
10
-14.5
20
23.966
30
0
10
-14.5
20
23.966
30
0
10
-14.5
20
23.966
30
0
10
-14.5
20
23.966
30
0
10
-14
20
24.2908
30
0
10
-14
20
24.2908
30
0
10
-14
20
24.2908
30
0
10
-14
20
24.2908
30
0
10
-13.5
20
24.6135
30
0
10
-13.5
20
24.6135
30
0
10
-13.5
20
24.6135
30
0
10
-13.5
20
24.6135
30
0
10
-13
20
24.9344
30
0
10
-13
20
24.9344
30
0
10
-13
20
24.9344
30
0
10
-13
20
24.9344
30
0
10
-12.5
20
25.2532
30
0
10
-12.5
20
25.2532
30
0
10
-12.5
20
25.2532
30
0
10
-12.5
20
25.2532
30
0
10
-12
20
25.5701
30
0
10
-12
20
25.5701
30
0
10
-12
20
25.5701
30
0
10
-12
20
25.5701
30
0
10
-11.5
20
25.885
30
0
10
-11.5
20
25.885
30
0
10
-11.5
20
25.885
30
0
10
-11.5
20
25.885
30
0
10
-11
20
26.198
30
0
10
-11
20
26.198
30
0
10
-11
20
26.198
30
0
10
-11
20
26.198
30
0
10
-10.5
20
26.509
30
0
10
-10.5
20
26.509
30
0
10
-10.5
20
26.509
30
0
10
-10.5
20
26.509
30
0
10
-10
20
26.818
30
0
10
-10
20
26.818
30
0
10
-10
20
26.818
30
0
10
-10
20
26.818
30
0
10
-9.5
20
27.1251
30
0
10
-9.5
20
27.1251
30
0
10
-9.5
20
27.1251
30
0
10
-9.5
20
27.1251
30
0
10
-9
20
27.4302
30
0
10
-9
20
27.4302
30
0
10
-9
20
27.4302
30
0
10
-9
20
27.4302
30
0
10
-8.5
20
27.7333
30
0
10
-8.5
20
27.7333
30
0
10
-8.5
20
27.7333
30
0
10
-8.5
20
27.7333
30
0
10
-8
20
28.0345
30
0
10
-8
20
28.0345
30
0
10
-8
20
28.0345
30
0
10
-8
20
28.0345
30
0
10
-7.5
20
28.3337
30
0
10
-7.5
20
28.3337
30
0
10
-7.5
20
28.3337
30
0
10
-7.5
20
28.3337
30
0
10
-7
20
28.6309
30
0
10
-7
20
28.6309
30
0
10
-7
20
28.6309
30
0
10
-7
20
28.6309
30
0
10
-6.5
20
28.9262
30
0
10
-6.5
20
28.9262
30
0
10
-6.5
20
28.9262
30
0
10
-6.5
20
28.9262
30
0
10
-6
20
29.2195
30
0
10
-6
20
29.2195
30
0
10
-6
20
29.2195
30
0
10
-6
20
29.2195
30
0
10
-5.5
20
29.5108
30
0
10
-5.5
20
29.5108
30
0
10
-5.5
20
29.5108
30
0
10
-5.5
20
29.5108
30
0
10
-5
20
29.8002
30
0
10
-5
20
29.8002
30
0
10
-5
20
29.8002
30
0
10
-5
20
29.8002
30
0
10
-4.5
20
30.0876
30
0
10
-4.5
20
30.0876
30
0
10
-4.5
20
30.0876
30
0
10
-4.5
20
30.0876
30
0
10
-4
20
30.3731
30
0
10
-4
20
30.3731
30
0
10
-4
20
30.3731
30
0
10
-4
20
30.3731
30
0
10
-3.5
20
30.6566
30
0
10
-3.5
20
30.6566
30
0
10
-3.5
20
30.6566
30
0
10
-3.5
20
30.6566
30
0
10
-3
20
30.9381
30
0
10
-3
20
30.9381
30
0
10
-3
20
30.9381
30
0
10
-3
20
30.9381
30
0
10
-2.5
20
31.2177
30
0
10
-2.5
20
31.2177
30
0
10
-2.5
20
31.2177
30
0
10
-2.5
20
31.2177
30
0
10
-2
20
31.4953
30
0
10
-2
20
31.4953
30
0
10
-2
20
31.4953
30
0
10
-2
20
31.4953
30
0
10
-1.5
20
31.7709
30
0
10
-1.5
20
31.7709
30
0
10
-1.5
20
31.7709
30
0
10
-1.5
20
31.7709
30
0
10
-1
20
32.0446
30
0
10
-1
20
32.0446
30
0
10
-1
20
32.0446
30
0
10
-1
20
32.0446
30
0
10
-0.5
20
32.3163
30
0
10
-0.5
20
32.3163
30
0
10
-0.5
20
32.3163
30
0
10
-0.5
20
32.3163
30
0
10
0
20
32.586
30
0
10
0
20
32.586
30
0
10
0
20
32.586
30
0
10
0
20
32.586
30
0
10
0.5
20
32.8538
30
0
10
0.5
20
32.8538
30
0
10
0.5
20
32.8538
30
0
10
0.5
20
32.8538
30
0
10
1
20
33.1196
30
0
10
1
20
33.1196
30
0
10
1
20
33.1196
30
0
10
1
20
33.1196
30
0
10
1.5
20
33.3834
30
0
10
1.5
20
33.3834
30
0
10
1.5
20
33.3834
30
0
10
1.5
20
33.3834
30
0
10
2
20
33.6453
30
0
10
2
20
33.6453
30
0
10
2
20
33.6453
30
0
10
2
20
33.6453
30
0
10
2.5
20
33.9052
30
0
10
2.5
20
33.9052
30
0
10
2.5
20
33.9052
30
0
10
2.5
20
33.9052
30
0
10
3
20
34.1632
30
0
10
3
20
34.1632
30
0
10
3
20
34.1632
30
0
10
3
20
34.1632
30
0
10
3.5
20
34.4192
30
0
10
3.5
20
34.4192
30
0
10
3.5
20
34.4192
30
0
10
3.5
20
34.4192
30
0
10
4
20
34.6732
30
0
10
4
20
34.6732
30
0
10
4
20
34.6732
30
0
10
4
20
34.6732
30
0
10
4.5
20
34.9253
30
0
10
4.5
20
34.9253
30
0
10
4.5
20
34.9253
30
0
10
4.5
20
34.9253
30
0
10
5
20
35.1754
30
0
10
5
20
35.1754
30
0
10
5
20
35.1754
30
0
10
5
20
35.1754
30
0
10
5.5
20
35.4235
30
0
10
5.5
20
35.4235
30
0
10
5.5
20
35.4235
30
0
10
5.5
20
35.4235
30
0
10
6
20
35.6696
30
0
10
6
20
35.6696
30
0
10
6
20
35.6696
30
0
10
6
20
35.6696
30
0
10
6.5
20
35.9138
30
0
10
6.5
20
35.9138
30
0
10
6.5
20
35.9138
30
0
10
6.5
20
35.9138
30
0
10
7
20
36.1561
30
0
10
7
20
36.1561
30
0
10
7
20
36.1561
30
0
10
7
20
36.1561
30
0
10
7.5
20
36.3964
30
0
10
7.5
20
36.3964
30
0
10
7.5
20
36.3964
30
0
10
7.5
20
36.3964
30
0
10
8
20
36.6347
30
0
10
8
20
36.6347
30
0
10
8
20
36.6347
30
0
10
8
20
36.6347
30
0
10
8.5
20
36.871
30
0
10
8.5
20
36.871
30
0
10
8.5
20
36.871
30
0
10
8.5
20
36.871
30
0
10
9
20
37.1054
30
0
10
9
20
37.1054
30
0
10
9
20
37.1054
30
0
10
9
20
37.1054
30
0
10
9.5
20
37.3378
30
0
10
9.5
20
37.3378
30
0
10
9.5
20
37.3378
30
0
10
9.5
20
37.3378
30
0
10
10
20
37.5682
30
0
10
10
20
37.5682
30
0
10
10
20
37.5682
30
0
10
10
20
37.5682
30
0
10
10.5
20
37.7967
30
0
10
10.5
20
37.7967
30
0
10
10.5
20
37.7967
30
0
10
10.5
20
37.7967
30
0
10
11
20
38.0232
30
0
10
11
20
38.0232
30
0
10
11
20
38.0232
30
0
10
11
20
38.0232
30
0
10
11.5
20
38.2478
30
0
10
11.5
20
38.2478
30
0
10
11.5
20
38.2478
30
0
10
11.5
20
38.2478
30
0
10
12
20
38.4704
30
0
10
12
20
38.4704
30
0
10
12
20
38.4704
30
0
10
12
20
38.4704
30
0
10
12.5
20
38.691
30
0
10
12.5
20
38.691
30
0
10
12.5
20
38.691
30
0
10
12.5
20
38.691
30
0
10
13
20
38.9097
30
0
10
13
20
38.9097
30
0
10
13
20
38.9097
30
0
10
13
20
38.9097
30
0
10
13.5
20
39.1264
30
0
10
13.5
20
39.1264
30
0
10
13.5
20
39.1264
30
0
10
13.5
20
39.1264
30
0
10
14
20
39.3411
30
0
10
14
20
39.3411
30
0
10
14
20
39.3411
30
0
10
14
20
39.3411
30
0
10
14.5
20
39.5539
30
0
10
14.5
20
39.5539
30
0
10
14.5
20
39.5539
30
0
10
14.5
20
39.5539
30
0
10
15
20
39.7647
30
0
10
15
20
39.7647
30
0
10
15
20
39.7647
30
0
10
15
20
39.7647
30
0
10
15.5
20
39.9735
30
0
10
15.5
20
39.9735
30
0
10
15.5
20
39.9735
30
0
10
15.5
20
39.9735
30
0
10
16
20
40.1804
30
0
10
16
20
40.1804
30
0
10
16
20
40.1804
30
0
10
16
20
40.1804
30
0
10
16.5
20
40.3853
30
0
10
16.5
20
40.3853
30
0
10
16.5
20
40.3853
30
0
10
16.5
20
40.3853
30
0
10
17
20
40.5883
30
0
10
17
20
40.5883
30
0
10
17
20
40.5883
30
0
10
17
20
40.5883
30
0
10
17.5
20
40.7892
30
0
10
17.5
20
40.7892
30
0
10
17.5
20
40.7892
30
0
10
17.5
20
40.7892
30
0
10
18
20
40.6883
30
0
10
18
20
40.6883
30
0
10
18
20
40.6883
30
0
10
18
20
40.6883
30
0
10
18.5
20
40.5853
30
0
10
18.5
20
40.5853
30
0
10
18.5
20
40.5853
30
0
10
18.5
20
40.5853
30
0
10
19
20
40.4804
30
0
10
19
20
40.4804
30
0
10
19
20
40.4804
30
0
10
19
20
40.4804
30
0
10
19.5
20
40.3735
30
0
10
19.5
20
40.3735
30
0
10
19.5
20
40.3735
30
0
10
19.5
20
40.3735
30
0
10
20
20
40.2647
30
0
10
20
20
40.2647
30
0
10
20
20
40.2647
30
0
10
20
20
40.2647
30
0
10
20.5
20
40.1539
30
0
10
20.5
20
40.1539
30
0
10
20.5
20
40.1539
30
0
10
20.5
20
40.1539
30
0
10
21
20
40.0411
30
0
10
21
20
40.0411
30
0
10
21
20
40.0411
30
0
10
21
20
40.0411
30
0
10
21.5
20
39.9264
30
0
10
21.5
20
39.9264
30
0
10
21.5
20
39.9264
30
0
10
21.5
20
39.9264
30
0
10
22
20
39.8097
30
0
10
22
20
39.8097
30
0
10
22
20
39.8097
30
0
10
22
20
39.8097
30
0
10
22.5
20
39.691
30
0
10
22.5
20
39.691
30
0
10
22.5
20
39.691
30
0
10
22.5
20
39.691
30
0
10
23
20
39.5704
30
0
10
23
20
39.5704
30
0
10
23
20
39.5704
30
0
10
23
20
39.5704
30
0
10
23.5
20
39.4478
30
0
10
23.5
20
39.4478
30
0
10
23.5
20
39.4478
30
0
10
23.5
20
39.4478
30
0
10
24
20
39.3232
30
0
10
24
20
39.3232
30
0
10
24
20
39.3232
30
0
10
24
20
39.3232
30
0
10
24.5
20
39.1967
30
0
10
24.5
20
39.1967
30
0
10
24.5
20
39.1967
30
0
10
24.5
20
39.1967
30
0
10
25
20
39.0682
30
0
10
25
20
39.0682
30
0
10
25
20
39.0682
30
0
10
25
20
39.0682
30
0
10
25.5
20
38.9378
30
0
10
25.5
20
38.9378
30
0
10
25.5
20
38.9378
30
0
10
25.5
20
38.9378
30
0
10
26
20
38.8054
30
0
10
26
20
38.8054
30
0
10
26
20
38.8054
30
0
10
26
20
38.8054
30
0
10
26.5
20
38.671
30
0
10
26.5
20
38.671
30
0
10
26.5
20
38.671
30
0
10
26.5
20
38.671
30
0
10
27
20
38.5347
30
0
10
27
20
38.5347
30
0
10
27
20
38.5347
30
0
10
27
20
38.5347
30
0
10
27.5
20
38.3964
30
0
10
27.5
20
38.3964
30
0
10
27.5
20
38.3964
30
0
10
27.5
20
38.3964
30
0
10
28
20
38.2561
30
0
10
28
20
38.2561
30
0
10
28
20
38.2561
30
0
10
28
20
38.2561
30
0
10
28.5
20
38.1138
30
0
10
28.5
20
38.1138
30
0
10
28.5
20
38.1138
30
0
10
28.5
20
38.1138
30
0
10
29
20
37.9696
30
0
10
29
20
37.9696
30
0
10
29
20
37.9696
30
0
10
29
20
37.9696
30
0
10
29.5
20
37.8235
30
0
10
29.5
20
37.8235
30
0
10
29.5
20
37.8235
30
0
10
29.5
20
37.8235
30
0
10
30
20
37.6754
30
0
10
30
20
37.6754
30
0
10
30
20
37.6754
30
0
10
30
20
37.6754
30
0
10
30.5
20
37.5253
30
0
10
30.5
20
37.5253
30
0
10
30.5
20
37.5253
30
0
10
30.5
20
37.5253
30
0
10
31
20
37.3732
30
0
10
31
20
37.3732
30
0
10
31
20
37.3732
30
0
10
31
20
37.3732
30
0
10
31.5
20
37.2192
30
0
10
31.5
20
37.2192
30
0
10
31.5
20
37.2192
30
0
10
31.5
20
37.2192
30
0
10
32
20
37.0632
30
0
10
32
20
37.0632
30
0
10
32
20
37.0632
30
0
10
32
20
37.0632
30
0
10
32.5
20
36.9052
30
0
10
32.5
20
36.9052
30
0
10
32.5
20
36.9052
30
0
10
32.5
20
36.9052
30
0
10
33
20
36.7453
30
0
10
33
20
36.7453
30
0
10
33
20
36.7453
30
0
10
33
20
36.7453
30
0
10
33.5
20
36.5834
30
0
10
33.5
20
36.5834
30
0
10
33.5
20
36.5834
30
0
10
33.5
20
36.5834
30
0
10
34
20
36.4196
30
0
10
34
20
36.4196
30
0
10
34
20
36.4196
30
0
10
34
20
36.4196
30
0
10
34.5
20
36.2538
30
0
10
34.5
20
36.2538
30
0
10
34.5
20
36.2538
30
0
10
34.5
20
36.2538
30
0
10
35
20
36.086
30
0
10
35
20
36.086
30
0
10
35
20
36.086
30
0
10
35
20
36.086
30
0
10
35.5
20
35.9163
30
0
10
35.5
20
35.9163
30
0
10
35.5
20
35.9163
30
0
10
35.5
20
35.9163
30
0
10
36
20
35.7446
30
0
10
36
20
35.7446
30
0
10
36
20
35.7446
30
0
10
36
20
35.7446
30
0
10
36.5
20
35.5709
30
0
10
36.5
20
35.5709
30
0
10
36.5
20
35.5709
30
0
10
36.5
20
35.5709
30
0
10
37
20
35.3953
30
0
10
37
20
35.3953
30
0
10
37
20
35.3953
30
0
10
37
20
35.3953
30
0
10
37.5
20
35.2177
30
0
10
37.5
20
35.2177
30
0
10
37.5
20
35.2177
30
0
10
37.5
20
35.2177
30
0
10
38
20
35.0381
30
0
10
38
20
35.0381
30
0
10
38
20
35.0381
30
0
10
38
20
35.0381
30
0
10
38.5
20
34.8566
30
0
10
38.5
20
34.8566
30
0
10
38.5
20
34.8566
30
0
10
38.5
20
34.8566
30
0
10
39
20
34.6731
30
0
10
39
20
34.6731
30
0
10
39
20
34.6731
30
0
10
39
20
34.6731
30
0
10
39.5
20
34.4876
30
0
10
39.5
20
34.4876
30
0
10
39.5
20
34.4876
30
0
10
39.5
20
34.4876
30
0
10
40
20
34.3002
30
0
10
40
20
34.3002
30
0
10
40
20
34.3002
30
0
10
40
20
34.3002
30
0
10
40.5
20
34.1108
30
0
10
40.5
20
34.1108
30
0
10
40.5
20
34.1108
30
0
10
40.5
20
34.1108
30
0
10
41
20
33.9195
30
0
10
41
20
33.9195
30
0
10
41
20
33.9195
30
0
10
41
20
33.9195
30
0
10
41.5
20
33.7262
30
0
10
41.5
20
33.7262
30
0
10
41.5
20
33.7262
30
0
10
41.5
20
33.7262
30
0
10
42
20
33.5309
30
0
10
42
20
33.5309
30
0
10
42
20
33.5309
30
0
10
42
20
33.5309
30
0
10
42.5
20
33.3337
30
0
10
42.5
20
33.3337
30
0
10
42.5
20
33.3337
30
0
10
42.5
20
33.3337
30
0
10
43
20
33.1345
30
0
10
43
20
33.1345
30
0
10
43
20
33.1345
30
0
10
43
20
33.1345
30
0
10
43.5
20
32.9333
30
0
10
43.5
20
32.9333
30
0
10
43.5
20
32.9333
30
0
10
43.5
20
32.9333
30
0
10
44
20
32.7302
30
0
10
44
20
32.7302
30
0
10
44
20
32.7302
30
0
10
44
20
32.7302
30
0
10
44.5
20
32.5251
30
0
10
44.5
20
32.5251
30
0
10
44.5
20
32.5251
30
0
10
44.5
20
32.5251
30
0
10
45
20
32.318
30
0
10
45
20
32.318
30
0
10
45
20
32.318
30
0
10
45
20
32.318
30
0
10
45.5
20
32.109
30
0
10
45.5
20
32.109
30
0
10
45.5
20
32.109
30
0
10
45.5
20
32.109
30
0
10
46
20
31.898
30
0
10
46
20
31.898
30
0
10
46
20
31.898
30
0
10
46
20
31.898
30
0
10
46.5
20
31.685
30
0
10
46.5
20
31.685
30
0
10
46.5
20
31.685
30
0
10
46.5
20
31.685
30
0
10
47
20
31.4701
30
0
10
47
20
31.4701
30
0
10
47
20
31.4701
30
0
10
47
20
31.4701
30
0
10
47.5
20
31.2532
30
0
10
47.5
20
31.2532
30
0
10
47.5
20
31.2532
30
0
10
47.5
20
31.2532
30
0
10
48
20
31.0344
30
0
10
48
20
31.0344
30
0
10
48
20
31.0344
30
0
10
48
20
31.0344
30
0
10
48.5
20
30.8135
30
0
10
48.5
20
30.8135
30
0
10
48.5
20
30.8135
30
0
10
48.5
20
30.8135
30
0
10
49
20
30.5908
30
0
10
49
20
30.5908
30
0
10
49
20
30.5908
30
0
10
49
20
30.5908
30
0
10
49.5
20
30.366
30
0
10
49.5
20
30.366
30
0
10
49.5
20
30.366
30
0
10
49.5
20
30.366
30
0
10
50
20
30.1393
30
0
10
50
20
30.1393
30
0
10
50
20
30.1393
30
0
10
50
20
30.1393
30
0
10
50.5
20
29.9106
30
0
10
50.5
20
29.9106
30
0
10
50.5
20
29.9106
30
0
10
50.5
20
29.9106
30
0
10
51
20
29.68
30
0
10
51
20
29.68
30
0
10
51
20
29.68
30
0
10
51
20
29.68
30
0
10
51.5
20
29.4474
30
0
10
51.5
20
29.4474
30
0
10
51.5
20
29.4474
30
0
10
51.5
20
29.4474
30
0
10
52
20
29.2128
30
0
10
52
20
29.2128
30
0
10
52
20
29.2128
30
0
10
52
20
29.2128
30
0
10
52.5
20
28.9763
30
0
10
52.5
20
28.9763
30
0
10
52.5
20
28.9763
30
0
10
52.5
20
28.9763
30
0
10
53
20
28.7378
30
0
10
53
20
28.7378
30
0
10
53
20
28.7378
30
0
10
53
20
28.7378
30
0
10
53.5
20
28.4974
30
0
10
53.5
20
28.4974
30
0
10
53.5
20
28.4974
30
0
10
53.5
20
28.4974
30
0
10
54
20
28.2549
30
0
10
54
20
28.2549
30
0
10
54
20
28.2549
30
0
10
54
20
28.2549
30
0
10
54.5
20
28.0105
30
0
10
54.5
20
28.0105
30
0
10
54.5
20
28.0105
30
0
10
54.5
20
28.0105
30
0
10
55
20
27.7642
30
0
10
55
20
27.7642
30
0
10
55
20
27.7642
30
0
10
55
20
27.7642
30
0
10
55.5
20
27.5159
30
0
10
55.5
20
27.5159
30
0
10
55.5
20
27.5159
30
0
10
55.5
20
27.5159
30
0
10
56
20
27.2656
30
0
10
56
20
27.2656
30
0
10
56
20
27.2656
30
0
10
56
20
27.2656
30
0
10
56.5
20
27.0134
30
0
10
56.5
20
27.0134
30
0
10
56.5
20
27.0134
30
0
10
56.5
20
27.0134
30
0
10
57
20
26.7591
30
0
10
57
20
26.7591
30
0
10
57
20
26.7591
30
0
10
57
20
26.7591
30
0
10
57.5
20
26.503
30
0
10
57.5
20
26.503
30
0
10
57.5
20
26.503
30
0
10
57.5
20
26.503
30
0
10
58
20
26.2448
30
0
10
58
20
26.2448
30
0
10
58
20
26.2448
30
0
10
58
20
26.2448
30
0
10
58.5
20
25.9847
30
0
10
58.5
20
25.9847
30
0
10
58.5
20
25.9847
30
0
10
58.5
20
25.9847
30
0
10
59
20
25.7227
30
0
10
59
20
25.7227
30
0
10
59
20
25.7227
30
0
10
59
20
25.7227
30
0
10
59.5
20
25.4586
30
0
10
59.5
20
25.4586
30
0
10
59.5
20
25.4586
30
0
10
59.5
20
25.4586
30
0
10
60
20
25.1926
30
0
10
60
20
25.1926
30
0
10
60
20
25.1926
30
0
10
60
20
25.1926
30
0
10
60.5
20
24.9247
30
0
10
60.5
20
24.9247
30
0
10
60.5
20
24.9247
30
0
10
60.5
20
24.9247
30
0
10
61
20
24.6547
30
0
10
61
20
24.6547
30
0
10
61
20
24.6547
30
0
10
61
20
24.6547
30
0
10
61.5
20
24.3828
30
0
10
61.5
20
24.3828
30
0
10
61.5
20
24.3828
30
0
10
61.5
20
24.3828
30
0
10
62
20
24.109
30
0
10
62
20
24.109
30
0
10
62
20
24.109
30
0
10
62
20
24.109
30
0
10
62.5
20
23.8332
30
0
10
62.5
20
23.8332
30
0
10
62.5
20
23.8332
30
0
10
62.5
20
23.8332
30
0
10
63
20
23.5554
30
0
10
63
20
23.5554
30
0
10
63
20
23.5554
30
0
10
63
20
23.5554
30
0
10
63.5
20
23.2756
30
0
10
63.5
20
23.2756
30
0
10
63.5
20
23.2756
30
0
10
63.5
20
23.2756
30
0
10
64
20
22.9939
30
0
10
64
20
22.9939
30
0
10
64
20
22.9939
30
0
10
64
20
22.9939
30
0
10
64.5
20
22.7103
30
0
10
64.5
20
22.7103
30
0
10
64.5
20
22.7103
30
0
10
64.5
20
22.7103
30
0
10
65
20
22.4246
30
0
10
65
20
22.4246
30
0
10
65
20
22.4246
30
0
10
65
20
22.4246
30
0
10
65.5
20
22.137
30
0
10
65.5
20
22.137
30
0
10
65.5
20
22.137
30
0
10
65.5
20
22.137
30
0
10
66
20
21.8474
30
0
10
66
20
21.8474
30
0
10
66
20
21.8474
30
0
10
66
20
21.8474
30
0
10
66.5
20
21.5559
30
0
10
66.5
20
21.5559
30
0
10
66.5
20
21.5559
30
0
10
66.5
20
21.5559
30
0
10
67
20
21.2624
30
0
10
67
20
21.2624
30
0
10
67
20
21.2624
30
0
10
67
20
21.2624
30
0
10
67.5
20
20.9669
30
0
10
67.5
20
20.9669
30
0
10
67.5
20
20.9669
30
0
10
67.5
20
20.9669
30
0
10
68
20
20.6695
30
0
10
68
20
20.6695
30
0
10
68
20
20.6695
30
0
10
68
20
20.6695
30
0
10
68.5
20
20.3701
30
0
10
68.5
20
20.3701
30
0
10
68.5
20
20.3701
30
0
10
68.5
20
20.3701
30
0
10
69
20
20.0688
30
0
10
69
20
20.0688
30
0
10
69
20
20.0688
30
0
10
69
20
20.0688
30
0
10
69.5
20
19.7654
30
0
10
69.5
20
19.7654
30
0
10
69.5
20
19.7654
30
0
10
69.5
20
19.7654
30
0
10
70
20
19.4601
30
0
10
70
20
19.4601
30
0
10
70
20
19.4601
30
0
10
70
20
19.4601
30
0
10
70.5
20
19.1529
30
0
10
70.5
20
19.1529
30
0
10
70.5
20
19.1529
30
0
10
70.5
20
19.1529
30
0
10
71
20
18.8437
30
0
10
71
20
18.8437
30
0
10
71
20
18.8437
30
0
10
71
20
18.8437
30
0
10
71.5
20
18.5325
30
0
10
71.5
20
18.5325
30
0
10
71.5
20
18.5325
30
0
10
71.5
20
18.5325
30
0
10
72
20
18.2194
30
0
10
72
20
18.2194
30
0
10
72
20
18.2194
30
0
10
72
20
18.2194
30
0
10
72.5
20
17.9042
30
0
10
72.5
20
17.9042
30
0
10
72.5
20
17.9042
30
0
10
72.5
20
17.9042
30
0
10
73
20
17.5872
30
0
10
73
20
17.5872
30
0
10
73
20
17.5872
30
0
10
73
20
17.5872
30
0
10
73.5
20
17.2681
30
0
10
73.5
20
17.2681
30
0
10
73.5
20
17.2681
30
0
10
73.5
20
17.2681
30
0
10
74
20
16.9471
30
0
10
74
20
16.9471
30
0
10
74
20
16.9471
30
0
10
74
20
16.9471
30
0
10
74.5
20
16.6242
30
0
10
74.5
20
16.6242
30
0
10
74.5
20
16.6242
30
0
10
74.5
20
16.6242
30
0
10
75
20
16.2992
30
0
10
75
20
16.2992
30
0
10
75
20
16.2992
30
0
10
75
20
16.2992
30
0
10
75.5
20
15.9723
30
0
10
75.5
20
15.9723
30
0
10
75.5
20
15.9723
30
0
10
75.5
20
15.9723
30
0
10
76
20
15.6435
30
0
10
76
20
15.6435
30
0
10
76
20
15.6435
30
0
10
76
20
15.6435
30
0
10
76.5
20
15.3127
30
0
10
76.5
20
15.3127
30
0
10
76.5
20
15.3127
30
0
10
76.5
20
15.3127
30
0
10
77
20
14.9799
30
0
10
77
20
14.9799
30
0
10
77
20
14.9799
30
0
10
77
20
14.9799
30
0
10
77.5
20
14.6451
30
0
10
77.5
20
14.6451
30
0
10
77.5
20
14.6451
30
0
10
77.5
20
14.6451
30
0
10
78
20
14.3084
30
0
10
78
20
14.3084
30
0
10
78
20
14.3084
30
0
10
78
20
14.3084
30
0
10
78.5
20
13.9697
30
0
10
78.5
20
13.9697
30
0
10
78.5
20
13.9697
30
0
10
78.5
20
13.9697
30
0
10
79
20
13.6291
30
0
10
79
20
13.6291
30
0
10
79
20
13.6291
30
0
10
79
20
13.6291
30
0
10
79.5
20
13.2865
30
0
10
79.5
20
13.2865
30
0
10
79.5
20
13.2865
30
0
10
79.5
20
13.2865
30
0
10
80
20
12.9419
30
0
10
80
20
12.9419
30
0
10
80
20
12.9419
30
0
10
80
20
12.9419
30
0
10
80.5
20
12.5953
30
0
10
80.5
20
12.5953
30
0
10
80.5
20
12.5953
30
0
10
80.5
20
12.5953
30
0
10
81
20
12.2468
30
0
10
81
20
12.2468
30
0
10
81
20
12.2468
30
0
10
81
20
12.2468
30
0
10
81.5
20
11.8964
30
0
10
81.5
20
11.8964
30
0
10
81.5
20
11.8964
30
0
10
81.5
20
11.8964
30
0
10
82
20
11.5439
30
0
10
82
20
11.5439
30
0
10
82
20
11.5439
30
0
10
82
20
11.5439
30
0
10
82.5
20
11.1895
30
0
10
82.5
20
11.1895
30
0
10
82.5
20
11.1895
30
0
10
82.5
20
11.1895
30
0
10
83
20
10.8332
30
0
10
83
20
10.8332
30
0
10
83
20
10.8332
30
0
10
83
20
10.8332
30
0
10
83.5
20
10.4749
30
0
10
83.5
20
10.4749
30
0
10
83.5
20
10.4749
30
0
10
83.5
20
10.4749
30
0
10
84
20
10.1146
30
0
10
84
20
10.1146
30
0
10
84
20
10.1146
30
0
10
84
20
10.1146
30
0
10
84.5
20
9.7523
30
0
10
84.5
20
9.7523
30
0
10
84.5
20
9.7523
30
0
10
84.5
20
9.7523
30
0
10
85
20
9.38808
30
0
10
85
20
9.38808
30
0
10
85
20
9.38808
30
0
10
85
20
9.38808
30
0
10
85.5
20
9.0219
30
0
10
85.5
20
9.0219
30
0
10
85.5
20
9.0219
30
0
10
85.5
20
9.0219
30
0
10
86
20
8.65375
30
0
10
86
20
8.65375
30
0
10
86
20
8.65375
30
0
10
86
20
8.65375
30
0
10
86.5
20
8.28364
30
0
10
86.5
20
8.28364
30
0
10
86.5
20
8.28364
30
0
10
86.5
20
8.28364
30
0
10
87
20
7.91156
30
0
10
87
20
7.91156
30
0
10
87
20
7.91156
30
0
10
87
20
7.91156
30
0
10
87.5
20
7.53752
30
0
10
87.5
20
7.53752
30
0
10
87.5
20
7.53752
30
0
10
87.5
20
7.53752
30
0
10
88
20
7.16151
30
0
10
88
20
7.16151
30
0
10
88
20
7.16151
30
0
10
88
20
7.16151
30
0
10
88.5
20
6.78354
30
0
10
88.5
20
6.78354
30
0
10
88.5
20
6.78354
30
0
10
88.5
20
6.78354
30
0
10
89
20
6.4036
30
0
10
89
20
6.4036
30
0
10
89
20
6.4036
30
0
10
89
20
6.4036
30
0
10
89.5
20
6.0217
30
0
10
89.5
20
6.0217
30
0
10
89.5
20
6.0217
30
0
10
89.5
20
6.0217
30
0
10
90
20
5.63784
30
0
10
90
20
5.63784
30
0
10
90
20
5.63784
30
0
10
90
20
5.63784
30
0
10
90.5
20
5.25201
30
0
10
90.5
20
5.25201
30
0
10
90.5
20
5.25201
30
0
10
90.5
20
5.25201
30
0
10
91
20
4.86421
30
0
10
91
20
4.86421
30
0
10
91
20
4.86421
30
0
10
91
20
4.86421
30
0
10
91.5
20
4.47446
30
0
10
91.5
20
4.47446
30
0
10
91.5
20
4.47446
30
0
10
91.5
20
4.47446
30
0
10
92
20
4.08273
30
0
10
92
20
4.08273
30
0
10
92
20
4.08273
30
0
10
92
20
4.08273
30
0
10
92.5
20
3.68905
30
0
10
92.5
20
3.68905
30
0
10
92.5
20
3.68905
30
0
10
92.5
20
3.68905
30
0
10
93
20
3.29339
30
0
10
93
20
3.29339
30
0
10
93
20
3.29339
30
0
10
93
20
3.29339
30
0
10
93.5
20
2.89578
30
0
10
93.5
20
2.89578
30
0
10
93.5
20
2.89578
30
0
10
93.5
20
2.89578
30
0
10
94
20
2.4962
30
0
10
94
20
2.4962
30
0
10
94
20
2.4962
30
0
10
94
20
2.4962
30
0
10
94.5
20
2.09465
30
0
10
94.5
20
2.09465
30
0
10
94.5
20
2.09465
30
0
10
94.5
20
2.09465
30
0
10
95
20
1.69114
30
0
10
95
20
1.69114
30
0
10
95
20
1.69114
30
0
10
95
20
1.69114
30
0
10
95.5
20
1.28567
30
0
10
95.5
20
1.28567
30
0
10
95.5
20
1.28567
30
0
10
95.5
20
1.28567
30
0
10
96
20
0.878231
30
0
10
96
20
0.878231
30
0
10
96
20
0.878231
30
0
10
96
20
0.878231
30
0
10
96.5
20
0.468828
30
0
10
96.5
20
0.468828
30
0
10
96.5
20
0.468828
30
0
10
96.5
20
0.468828
30
0
10
97
20
0.0574605
30
0
10
97
20
0.0574605
30
0
10
97
20
0.0574605
30
0
10
97
20
0.0574605
30
0
10
97.5
20
-0.355871
30
0
10
97.5
20
-0.355871
30
0
10
97.5
20
-0.355871
30
0
10
97.5
20
-0.355871
30
0
10
98
20
-0.771167
30
0
10
98
20
-0.771167
30
0
10
98
20
-0.771167
30
0
10
98
20
-0.771167
30
0
10
98.5
20
-1.18843
30
0
10
98.5
20
-1.18843
30
0
10
98.5
20
-1.18843
30
0
10
98.5
20
-1.18843
30
0
10
99
20
-1.60765
30
0
10
99
20
-1.60765
30
0
10
99
20
-1.60765
30
0
10
99
20
-1.60765
30
0
10
99.5
20
-2.02884
30
0
10
99.5
20
-2.02884
30
0
10
99.5
20
-2.02884
30
0
10
99.5
20
-2.02884
30
0
10
100
20
-2.452
30
0
10
100
20
-2.452
30
0
10
100
20
-2.452
30
0
10
100
20
-2.452
30
0
10
100.5
20
-2.87712
30
0
10
100.5
20
-2.87712
30
0
10
100.5
20
-2.87712
30
0
10
100.5
20
-2.87712
30
0
10
101
20
-3.3042
30
0
10
101
20
-3.3042
30
0
10
101
20
-3.3042
30
0
10
101
20
-3.3042
30
0
10
101.5
20
-3.73325
30
0
10
101.5
20
-3.73325
30
0
10
101.5
20
-3.73325
30
0
10
101.5
20
-3.73325
30
0
10
102
20
-4.16426
30
0
10
102
20
-4.16426
30
0
10
102
20
-4.16426
30
0
10
102
20
-4.16426
30
0
10
102.5
20
-4.59723
30
0
10
102.5
20
-4.59723
30
0
10
102.5
20
-4.59723
30
0
10
102.5
20
-4.59723
30
0
10
103
20
-5.03217
30
0
10
103
20
-5.03217
30
0
10
103
20
-5.03217
30
0
10
103
20
-5.03217
30
0
10
103.5
20
-5.46908
30
0
10
103.5
20
-5.46908
30
0
10
103.5
20
-5.46908
30
0
10
103.5
20
-5.46908
30
0
10
104
20
-5.90795
30
0
10
104
20
-5.90795
30
0
10
104
20
-5.90795
30
0
10
104
20
-5.90795
30
0
10
104.5
20
-6.34878
30
0
10
104.5
20
-6.34878
30
0
10
104.5
20
-6.34878
30
0
10
104.5
20
-6.34878
30
0
10
105
20
-6.79158
30
0
10
105
20
-6.79158
30
0
10
105
20
-6.79158
30
0
10
105
20
-6.79158
30
0
10
105.5
20
-7.23635
30
0
10
105.5
20
-7.23635
30
0
10
105.5
20
-7.23635
30
0
10
105.5
20
-7.23635
30
0
10
106
20
-7.68307
30
0
10
106
20
-7.68307
30
0
10
106
20
-7.68307
30
0
10
106
20
-7.68307
30
0
10
106.5
20
-8.13177
30
0
10
106.5
20
-8.13177
30
0
10
106.5
20
-8.13177
30
0
10
106.5
20
-8.13177
30
0
10
107
20
-8.58242
30
0
10
107
20
-8.58242
30
0
10
107
20
-8.58242
30
0
10
107
20
-8.58242
30
0
10
107.5
20
-9.03504
30
0
10
107.5
20
-9.03504
30
0
10
107.5
20
-9.03504
30
0
10
107.5
20
-9.03504
30
0
10
108
20
-9.48963
30
0
10
108
20
-9.48963
30
0
10
108
20
-9.48963
30
0
10
108
20
-9.48963
30
0
10
108.5
20
-9.94618
30
0
10
108.5
20
-9.94618
30
0
10
108.5
20
-9.94618
30
0
10
108.5
20
-9.94618
30
0
10
109
20
-10.4047
30
0
10
109
20
-10.4047
30
0
10
109
20
-10.4047
30
0
10
109
20
-10.4047
30
0
10
109.5
20
-10.8652
30
0
10
109.5
20
-10.8652
30
0
10
109.5
20
-10.8652
30
0
10
109.5
20
-10.8652
30
0
10
110
20
-11.3276
30
0
10
110
20
-11.3276
30
0
10
110
20
-11.3276
30
0
10
110
20
-11.3276
30
0
10
110.5
20
-11.792
30
0
10
110.5
20
-11.792
30
0
10
110.5
20
-11.792
30
0
10
110.5
20
-11.792
30
0
10
111
20
-12.2584
30
0
10
111
20
-12.2584
30
0
10
111
20
-12.2584
30
0
10
111
20
-12.2584
30
0
10
111.5
20
-12.7267
30
0
10
111.5
20
-12.7267
30
0
10
111.5
20
-12.7267
30
0
10
111.5
20
-12.7267
30
0
10
112
20
-13.197
30
0
10
112
20
-13.197
30
0
10
112
20
-13.197
30
0
10
112
20
-13.197
30
0
10
112.5
20
-13.6693
30
0
10
112.5
20
-13.6693
30
0
10
112.5
20
-13.6693
30
0
10
112.5
20
-13.6693
30
0
10
113
20
-14.1435
30
0
10
113
20
-14.1435
30
0
10
113
20
-14.1435
30
0
10
113
20
-14.1435
30
0
10
113.5
20
-14.6197
30
0
10
113.5
20
-14.6197
30
0
10
113.5
20
-14.6197
30
0
10
113.5
20
-14.6197
30
0
10
114
20
-15.0979
30
0
10
114
20
-15.0979
30
0
10
114
20
-15.0979
30
0
10
114
20
-15.0979
30
0
10
114.5
20
-15.578
30
0
10
114.5
20
-15.578
30
0
10
114.5
20
-15.578
30
0
10
114.5
20
-15.578
30
0
10
115
20
-16.0601
30
0
10
115
20
-16.0601
30
0
10
115
20
-16.0601
30
0
10
115
20
-16.0601
30
0
10
115.5
20
-16.5441
30
0
10
115.5
20
-16.5441
30
0
10
115.5
20
-16.5441
30
0
10
115.5
20
-16.5441
30
0
10
116
20
-17.0302
30
0
10
116
20
-17.0302
30
0
10
116
20
-17.0302
30
0
10
116
20
-17.0302
30
0
10
116.5
20
-17.5181
30
0
10
116.5
20
-17.5181
30
0
10
116.5
20
-17.5181
30
0
10
116.5
20
-17.5181
30
0
10
117
20
-18.0081
30
0
10
117
20
-18.0081
30
0
10
117
20
-18.0081
30
0
10
117
20
-18.0081
30
0
10
117.5
20
-18.5
30
0
10
117.5
20
-18.5
30
0
0
SPLINE
5
180
100
AcDbEntity
8
0
62
255
39
1000
100
AcDbSpline
210
0
220
0
230
1
70
0
71
3
72
8
73
4
74
0
42
1e-10
43
1e-10
40
0
40
0
40
0
40
0
40
1
40
1
40
1
40
1
10
-82.5
20
-38.5
30
0
10
-82.5
20
-38.5
30
0
10
-82.5
20
-38.5
30
0
10
-82.5
20
-38.5
30
0
0
SPLINE
5
181
100
AcDbEntity
8
0
62
255
39
1000
100
AcDbSpline
210
0
220
0
230
1
70
0
71
3
72
8
73
4
74
0
42
1e-10
43
1e-10
40
0
40
0
40
0
40
0
40
1
40
1
40
1
40
1
10
17.5
20
-38.5
30
0
10
17.5
20
-38.5
30
0
10
17.5
20
40.7892
30
0
10
17.5
20
40.7892
30
0
0
SPLINE
5
182
100
AcDbEntity
8
0
62
255
39
1000
100
AcDbSpline
210
0
220
0
230
1
70
0
71
3
72
8
73
4
74
0
42
1e-10
43
1e-10
40
0
40
0
40
0
40
0
40
1
40
1
40
1
40
1
10
117.5
20
-38.5
30
0
10
117.5
20
-38.5
30
0
10
117.5
20
-18.5
30
0
10
117.5
20
-18.5
30
0
0
SPLINE
5
183
100
AcDbEntity
8
0
62
255
39
5000
100
AcDbSpline
210
0
220
0
230
1
70
0
71
3
72
8
73
4
74
0
42
1e-10
43
1e-10
40
0
40
0
40
0
40
0
40
1
40
1
40
1
40
1
10
-82.5
20
-38.5
30
0
10
-82.5
20
-38.5
30
0
10
-82.5
20
65.5
30
0
10
-82.5
20
65.5
30
0
0
SPLINE
5
184
100
AcDbEntity
8
0
62
255
39
5000
100
AcDbSpline
210
0
220
0
230
1
70
0
71
3
72
8
73
4
74
0
42
1e-10
43
1e-10
40
0
40
0
40
0
40
0
40
1
40
1
40
1
40
1
10
117.5
20
-38.5
30
0
10
117.5
20
-38.5
30
0
10
117.5
20
43.5
30
0
10
117.5
20
43.5
30
0
0
SPLINE
5
185
100
AcDbEntity
8
0
62
255
39
3000
100
AcDbSpline
210
0
220
0
230
1
70
0
71
3
72
8
73
4
74
0
42
1e-10
43
1e-10
40
0
40
0
40
0
40
0
40
1
40
1
40
1
40
1
10
-82.5
20
65.5
30
0
10
-82.5
20
65.5
30
0
10
117.5
20
43.5
30
0
10
117.5
20
43.5
30
0
0
SPLINE
5
186
100
AcDbEntity
8
0
62
255
39
3000
100
AcDbSpline
210
0
220
0
230
1
70
0
71
3
72
8
73
4
74
0
42
1e-10
43
1e-10
40
0
40
0
40
0
40
0
40
1
40
1
40
1
40
1
10
-82.5
20
65.5
30
0
10
-82.5
20
65.5
30
0
10
117.5
20
38.5
30
0
10
117.5
20
38.5
30
0
0
SPLINE
5
187
100
AcDbEntity
8
0
62
255
39
3000
100
AcDbSpline
210
0
220
0
230
1
70
0
71
3
72
8
73
4
74
0
42
1e-10
43
1e-10
40
0
40
0
40
0
40
0
40
1
40
1
40
1
40
1
10
-82.5
20
61.5
30
0
10
-82.5
20
61.5
30
0
10
117.5
20
43.5
30
0
10
117.5
20
43.5
30
0
0
SPLINE
5
188
100
AcDbEntity
8
0
6
Dash_line1
62
1
39
3000
100
AcDbSpline
210
0
220
0
230
1
70
0
71
3
72
804
73
800
74
0
42
1e-10
43
1e-10
40
0
40
0
40
0
40
0
40
0.005
40
0.005
40
0.005
40
0.005
40
0.01
40
0.01
40
0.01
40
0.01
40
0.015
40
0.015
40
0.015
40
0.015
40
0.02
40
0.02
40
0.02
40
0.02
40
0.025
40
0.025
40
0.025
40
0.025
40
0.03
40
0.03
40
0.03
40
0.03
40
0.035
40
0.035
40
0.035
40
0.035
40
0.04
40
0.04
40
0.04
40
0.04
40
0.045
40
0.045
40
0.045
40
0.045
40
0.05
40
0.05
40
0.05
40
0.05
40
0.055
40
0.055
40
0.055
40
0.055
40
0.06
40
0.06
40
0.06
40
0.06
40
0.065
40
0.065
40
0.065
40
0.065
40
0.07
40
0.07
40
0.07
40
0.07
40
0.075
40
0.075
40
0.075
40
0.075
40
0.08
40
0.08
40
0.08
40
0.08
40
0.085
40
0.085
40
0.085
40
0.085
40
0.09
40
0.09
40
0.09
40
0.09
40
0.095
40
0.095
40
0.095
40
0.095
40
0.1
40
0.1
40
0.1
40
0.1
40
0.105
40
0.105
40
0.105
40
0.105
40
0.11
40
0.11
40
0.11
40
0.11
40
0.115
40
0.115
40
0.115
40
0.115
40
0.12
40
0.12
40
0.12
40
0.12
40
0.125
40
0.125
40
0.125
40
0.125
40
0.13
40
0.13
40
0.13
40
0.13
40
0.135
40
0.135
40
0.135
40
0.135
40
0.14
40
0.14
40
0.14
40
0.14
40
0.145
40
0.145
40
0.145
40
0.145
40
0.15
40
0.15
40
0.15
40
0.15
40
0.155
40
0.155
40
0.155
40
0.155
40
0.16
40
0.16
40
0.16
40
0.16
40
0.165
40
0.165
40
0.165
40
0.165
40
0.17
40
0.17
40
0.17
40
0.17
40
0.175
40
0.175
40
0.175
40
0.175
40
0.18
40
0.18
40
0.18
40
0.18
40
0.185
40
0.185
40
0.185
40
0.185
40
0.19
40
0.19
40
0.19
40
0.19
40
0.195
40
0.195
40
0.195
40
0.195
40
0.2
40
0.2
40
0.2
40
0.2
40
0.205
40
0.205
40
0.205
40
0.205
40
0.21
40
0.21
40
0.21
40
0.21
40
0.215
40
0.215
40
0.215
40
0.215
40
0.22
40
0.22
40
0.22
40
0.22
40
0.225
40
0.225
40
0.225
40
0.225
40
0.23
40
0.23
40
0.23
40
0.23
40
0.235
40
0.235
40
0.235
40
0.235
40
0.24
40
0.24
40
0.24
40
0.24
40
0.245
40
0.245
40
0.245
40
0.245
40
0.25
40
0.25
40
0.25
40
0.25
40
0.255
40
0.255
40
0.255
40
0.255
40
0.26
40
0.26
40
0.26
40
0.26
40
0.265
40
0.265
40
0.265
40
0.265
40
0.27
40
0.27
40
0.27
40
0.27
40
0.275
40
0.275
40
0.275
40
0.275
40
0.28
40
0.28
40
0.28
40
0.28
40
0.285
40
0.285
40
0.285
40
0.285
40
0.29
40
0.29
40
0.29
40
0.29
40
0.295
40
0.295
40
0.295
40
0.295
40
0.3
40
0.3
40
0.3
40
0.3
40
0.305
40
0.305
40
0.305
40
0.305
40
0.31
40
0.31
40
0.31
40
0.31
40
0.315
40
0.315
40
0.315
40
0.315
40
0.32
40
0.32
40
0.32
40
0.32
40
0.325
40
0.325
40
0.325
40
0.325
40
0.33
40
0.33
40
0.33
40
0.33
40
0.335
40
0.335
40
0.335
40
0.335
40
0.34
40
0.34
40
0.34
40
0.34
40
0.345
40
0.345
40
0.345
40
0.345
40
0.35
40
0.35
40
0.35
40
0.35
40
0.355
40
0.355
40
0.355
40
0.355
40
0.36
40
0.36
40
0.36
40
0.36
40
0.365
40
0.365
40
0.365
40
0.365
40
0.37
40
0.37
40
0.37
40
0.37
40
0.375
40
0.375
40
0.375
40
0.375
40
0.38
40
0.38
40
0.38
40
0.38
40
0.385
40
0.385
40
0.385
40
0.385
40
0.39
40
0.39
40
0.39
40
0.39
40
0.395
40
0.395
40
0.395
40
0.395
40
0.4
40
0.4
40
0.4
40
0.4
40
0.405
40
0.405
40
0.405
40
0.405
40
0.41
40
0.41
40
0.41
40
0.41
40
0.415
40
0.415
40
0.415
40
0.415
40
0.42
40
0.42
40
0.42
40
0.42
40
0.425
40
0.425
40
0.425
40
0.425
40
0.43
40
0.43
40
0.43
40
0.43
40
0.435
40
0.435
40
0.435
40
0.435
40
0.44
40
0.44
40
0.44
40
0.44
40
0.445
40
0.445
40
0.445
40
0.445
40
0.45
40
0.45
40
0.45
40
0.45
40
0.455
40
0.455
40
0.455
40
0.455
40
0.46
40
0.46
40
0.46
40
0.46
40
0.465
40
0.465
40
0.465
40
0.465
40
0.47
40
0.47
40
0.47
40
0.47
40
0.475
40
0.475
40
0.475
40
0.475
40
0.48
40
0.48
40
0.48
40
0.48
40
0.485
40
0.485
40
0.485
40
0.485
40
0.49
40
0.49
40
0.49
40
0.49
40
0.495
40
0.495
40
0.495
40
0.495
40
0.5
40
0.5
40
0.5
40
0.5
40
0.505
40
0.505
40
0.505
40
0.505
40
0.51
40
0.51
40
0.51
40
0.51
40
0.515
40
0.515
40
0.515
40
0.515
40
0.52
40
0.52
40
0.52
40
0.52
40
0.525
40
0.525
40
0.525
40
0.525
40
0.53
40
0.53
40
0.53
40
0.53
40
0.535
40
0.535
40
0.535
40
0.535
40
0.54
40
0.54
40
0.54
40
0.54
40
0.545
40
0.545
40
0.545
40
0.545
40
0.55
40
0.55
40
0.55
40
0.55
40
0.555
40
0.555
40
0.555
40
0.555
40
0.56
40
0.56
40
0.56
40
0.56
40
0.565
40
0.565
40
0.565
40
0.565
40
0.57
40
0.57
40
0.57
40
0.57
40
0.575
40
0.575
40
0.575
40
0.575
40
0.58
40
0.58
40
0.58
40
0.58
40
0.585
40
0.585
40
0.585
40
0.585
40
0.59
40
0.59
40
0.59
40
0.59
40
0.595
40
0.595
40
0.595
40
0.595
40
0.6
40
0.6
40
0.6
40
0.6
40
0.605
40
0.605
40
0.605
40
0.605
40
0.61
40
0.61
40
0.61
40
0.61
40
0.615
40
0.615
40
0.615
40
0.615
40
0.62
40
0.62
40
0.62
40
0.62
40
0.625
40
0.625
40
0.625
40
0.625
40
0.63
40
0.63
40
0.63
40
0.63
40
0.635
40
0.635
40
0.635
40
0.635
40
0.64
40
0.64
40
0.64
40
0.64
40
0.645
40
0.645
40
0.645
40
0.645
40
0.65
40
0.65
40
0.65
40
0.65
40
0.655
40
0.655
40
0.655
40
0.655
40
0.66
40
0.66
40
0.66
40
0.66
40
0.665
40
0.665
40
0.665
40
0.665
40
0.67
40
0.67
40
0.67
40
0.67
40
0.675
40
0.675
40
0.675
40
0.675
40
0.68
40
0.68
40
0.68
40
0.68
40
0.685
40
0.685
40
0.685
40
0.685
40
0.69
40
0.69
40
0.69
40
0.69
40
0.695
40
0.695
40
0.695
40
0.695
40
0.7
40
0.7
40
0.7
40
0.7
40
0.705
40
0.705
40
0.705
40
0.705
40
0.71
40
0.71
40
0.71
40
0.71
40
0.715
40
0.715
40
0.715
40
0.715
40
0.72
40
0.72
40
0.72
40
0.72
40
0.725
40
0.725
40
0.725
40
0.725
40
0.73
40
0.73
40
0.73
40
0.73
40
0.735
40
0.735
40
0.735
40
0.735
40
0.74
40
0.74
40
0.74
40
0.74
40
0.745
40
0.745
40
0.745
40
0.745
40
0.75
40
0.75
40
0.75
40
0.75
40
0.755
40
0.755
40
0.755
40
0.755
40
0.76
40
0.76
40
0.76
40
0.76
40
0.765
40
0.765
40
0.765
40
0.765
40
0.77
40
0.77
40
0.77
40
0.77
40
0.775
40
0.775
40
0.775
40
0.775
40
0.78
40
0.78
40
0.78
40
0.78
40
0.785
40
0.785
40
0.785
40
0.785
40
0.79
40
0.79
40
0.79
40
0.79
40
0.795
40
0.795
40
0.795
40
0.795
40
0.8
40
0.8
40
0.8
40
0.8
40
0.805
40
0.805
40
0.805
40
0.805
40
0.81
40
0.81
40
0.81
40
0.81
40
0.815
40
0.815
40
0.815
40
0.815
40
0.82
40
0.82
40
0.82
40
0.82
40
0.825
40
0.825
40
0.825
40
0.825
40
0.83
40
0.83
40
0.83
40
0.83
40
0.835
40
0.835
40
0.835
40
0.835
40
0.84
40
0.84
40
0.84
40
0.84
40
0.845
40
0.845
40
0.845
40
0.845
40
0.85
40
0.85
40
0.85
40
0.85
40
0.855
40
0.855
40
0.855
40
0.855
40
0.86
40
0.86
40
0.86
40
0.86
40
0.865
40
0.865
40
0.865
40
0.865
40
0.87
40
0.87
40
0.87
40
0.87
40
0.875
40
0.875
40
0.875
40
0.875
40
0.88
40
0.88
40
0.88
40
0.88
40
0.885
40
0.885
40
0.885
40
0.885
40
0.89
40
0.89
40
0.89
40
0.89
40
0.895
40
0.895
40
0.895
40
0.895
40
0.9
40
0.9
40
0.9
40
0.9
40
0.905
40
0.905
40
0.905
40
0.905
40
0.91
40
0.91
40
0.91
40
0.91
40
0.915
40
0.915
40
0.915
40
0.915
40
0.92
40
0.92
40
0.92
40
0.92
40
0.925
40
0.925
40
0.925
40
0.925
40
0.93
40
0.93
40
0.93
40
0.93
40
0.935
40
0.935
40
0.935
40
0.935
40
0.94
40
0.94
40
0.94
40
0.94
40
0.945
40
0.945
40
0.945
40
0.945
40
0.95
40
0.95
40
0.95
40
0.95
40
0.955
40
0.955
40
0.955
40
0.955
40
0.96
40
0.96
40
0.96
40
0.96
40
0.965
40
0.965
40
0.965
40
0.965
40
0.97
40
0.97
40
0.97
40
0.97
40
0.975
40
0.975
40
0.975
40
0.975
40
0.98
40
0.98
40
0.98
40
0.98
40
0.985
40
0.985
40
0.985
40
0.985
40
0.99
40
0.99
40
0.99
40
0.99
40
0.995
40
0.995
40
0.995
40
0.995
40
1
40
1
40
1
40
1
10
-82.5
20
61.5
30
0
10
-82.5
20
61.5
30
0
10
-81.5
20
60.5118
30
0
10
-81.5
20
60.5118
30
0
10
-81.5
20
60.5118
30
0
10
-81.5
20
60.5118
30
0
10
-80.5
20
60.053
30
0
10
-80.5
20
60.053
30
0
10
-80.5
20
60.053
30
0
10
-80.5
20
60.053
30
0
10
-79.5
20
59.6821
30
0
10
-79.5
20
59.6821
30
0
10
-79.5
20
59.6821
30
0
10
-79.5
20
59.6821
30
0
10
-78.5
20
59.3572
30
0
10
-78.5
20
59.3572
30
0
10
-78.5
20
59.3572
30
0
10
-78.5
20
59.3572
30
0
10
-77.5
20
59.0619
30
0
10
-77.5
20
59.0619
30
0
10
-77.5
20
59.0619
30
0
10
-77.5
20
59.0619
30
0
10
-76.5
20
58.7877
30
0
10
-76.5
20
58.7877
30
0
10
-76.5
20
58.7877
30
0
10
-76.5
20
58.7877
30
0
10
-75.5
20
58.5297
30
0
10
-75.5
20
58.5297
30
0
10
-75.5
20
58.5297
30
0
10
-75.5
20
58.5297
30
0
10
-74.5
20
58.2846
30
0
10
-74.5
20
58.2846
30
0
10
-74.5
20
58.2846
30
0
10
-74.5
20
58.2846
30
0
10
-73.5
20
58.0501
30
0
10
-73.5
20
58.0501
30
0
10
-73.5
20
58.0501
30
0
10
-73.5
20
58.0501
30
0
10
-72.5
20
57.8246
30
0
10
-72.5
20
57.8246
30
0
10
-72.5
20
57.8246
30
0
10
-72.5
20
57.8246
30
0
10
-71.5
20
57.6068
30
0
10
-71.5
20
57.6068
30
0
10
-71.5
20
57.6068
30
0
10
-71.5
20
57.6068
30
0
10
-70.5
20
57.3958
30
0
10
-70.5
20
57.3958
30
0
10
-70.5
20
57.3958
30
0
10
-70.5
20
57.3958
30
0
10
-69.5
20
57.1907
30
0
10
-69.5
20
57.1907
30
0
10
-69.5
20
57.1907
30
0
10
-69.5
20
57.1907
30
0
10
-68.5
20
56.9909
30
0
10
-68.5
20
56.9909
30
0
10
-68.5
20
56.9909
30
0
10
-68.5
20
56.9909
30
0
10
-67.5
20
56.7959
30
0
10
-67.5
20
56.7959
30
0
10
-67.5
20
56.7959
30
0
10
-67.5
20
56.7959
30
0
10
-66.5
20
56.6053
30
0
10
-66.5
20
56.6053
30
0
10
-66.5
20
56.6053
30
0
10
-66.5
20
56.6053
30
0
10
-65.5
20
56.4186
30
0
10
-65.5
20
56.4186
30
0
10
-65.5
20
56.4186
30
0
10
-65.5
20
56.4186
30
0
10
-64.5
20
56.2357
30
0
10
-64.5
20
56.2357
30
0
10
-64.5
20
56.2357
30
0
10
-64.5
20
56.2357
30
0
10
-63.5
20
56.0561
30
0
10
-63.5
20
56.0561
30
0
10
-63.5
20
56.0561
30
0
10
-63.5
20
56.0561
30
0
10
-62.5
20
55.8797
30
0
10
-62.5
20
55.8797
30
0
10
-62.5
20
55.8797
30
0
10
-62.5
20
55.8797
30
0
10
-61.5
20
55.7063
30
0
10
-61.5
20
55.7063
30
0
10
-61.5
20
55.7063
30
0
10
-61.5
20
55.7063
30
0
10
-60.5
20
55.5356
30
0
10
-60.5
20
55.5356
30
0
10
-60.5
20
55.5356
30
0
10
-60.5
20
55.5356
30
0
10
-59.5
20
55.3675
30
0
10
-59.5
20
55.3675
30
0
10
-59.5
20
55.3675
30
0
10
-59.5
20
55.3675
30
0
10
-58.5
20
55.2018
30
0
10
-58.5
20
55.2018
30
0
10
-58.5
20
55.2018
30
0
10
-58.5
20
55.2018
30
0
10
-57.5
20
55.0385
30
0
10
-57.5
20
55.0385
30
0
10
-57.5
20
55.0385
30
0
10
-57.5
20
55.0385
30
0
10
-56.5
20
54.8774
30
0
10
-56.5
20
54.8774
30
0
10
-56.5
20
54.8774
30
0
10
-56.5
20
54.8774
30
0
10
-55.5
20
54.7184
30
0
10
-55.5
20
54.7184
30
0
10
-55.5
20
54.7184
30
0
10
-55.5
20
54.7184
30
0
10
-54.5
20
54.5614
30
0
10
-54.5
20
54.5614
30
0
10
-54.5
20
54.5614
30
0
10
-54.5
20
54.5614
30
0
10
-53.5
20
54.4062
30
0
10
-53.5
20
54.4062
30
0
10
-53.5
20
54.4062
30
0
10
-53.5
20
54.4062
30
0
10
-52.5
20
54.2529
30
0
10
-52.5
20
54.2529
30
0
10
-52.5
20
54.2529
30
0
10
-52.5
20
54.2529
30
0
10
-51.5
20
54.1014
30
0
10
-51.5
20
54.1014
30
0
10
-51.5
20
54.1014
30
0
10
-51.5
20
54.1014
30
0
10
-50.5
20
53.9515
30
0
10
-50.5
20
53.9515
30
0
10
-50.5
20
53.9515
30
0
10
-50.5
20
53.9515
30
0
10
-49.5
20
53.8033
30
0
10
-49.5
20
53.8033
30
0
10
-49.5
20
53.8033
30
0
10
-49.5
20
53.8033
30
0
10
-48.5
20
53.6566
30
0
10
-48.5
20
53.6566
30
0
10
-48.5
20
53.6566
30
0
10
-48.5
20
53.6566
30
0
10
-47.5
20
53.5114
30
0
10
-47.5
20
53.5114
30
0
10
-47.5
20
53.5114
30
0
10
-47.5
20
53.5114
30
0
10
-46.5
20
53.3676
30
0
10
-46.5
20
53.3676
30
0
10
-46.5
20
53.3676
30
0
10
-46.5
20
53.3676
30
0
10
-45.5
20
53.2253
30
0
10
-45.5
20
53.2253
30
0
10
-45.5
20
53.2253
30
0
10
-45.5
20
53.2253
30
0
10
-44.5
20
53.0843
30
0
10
-44.5
20
53.0843
30
0
10
-44.5
20
53.0843
30
0
10
-44.5
20
53.0843
30
0
10
-43.5
20
52.9447
30
0
10
-43.5
20
52.9447
30
0
10
-43.5
20
52.9447
30
0
10
-43.5
20
52.9447
30
0
10
-42.5
20
52.8063
30
0
10
-42.5
20
52.8063
30
0
10
-42.5
20
52.8063
30
0
10
-42.5
20
52.8063
30
0
10
-41.5
20
52.6691
30
0
10
-41.5
20
52.6691
30
0
10
-41.5
20
52.6691
30
0
10
-41.5
20
52.6691
30
0
10
-40.5
20
52.5332
30
0
10
-40.5
20
52.5332
30
0
10
-40.5
20
52.5332
30
0
10
-40.5
20
52.5332
30
0
10
-39.5
20
52.3985
30
0
10
-39.5
20
52.3985
30
0
10
-39.5
20
52.3985
30
0
10
-39.5
20
52.3985
30
0
10
-38.5
20
52.2649
30
0
10
-38.5
20
52.2649
30
0
10
-38.5
20
52.2649
30
0
10
-38.5
20
52.2649
30
0
10
-37.5
20
52.1324
30
0
10
-37.5
20
52.1324
30
0
10
-37.5
20
52.1324
30
0
10
-37.5
20
52.1324
30
0
10
-36.5
20
52.001
30
0
10
-36.5
20
52.001
30
0
10
-36.5
20
52.001
30
0
10
-36.5
20
52.001
30
0
10
-35.5
20
51.8707
30
0
10
-35.5
20
51.8707
30
0
10
-35.5
20
51.8707
30
0
10
-35.5
20
51.8707
30
0
10
-34.5
20
51.7414
30
0
10
-34.5
20
51.7414
30
0
10
-34.5
20
51.7414
30
0
10
-34.5
20
51.7414
30
0
10
-33.5
20
51.6131
30
0
10
-33.5
20
51.6131
30
0
10
-33.5
20
51.6131
30
0
10
-33.5
20
51.6131
30
0
10
-32.5
20
51.4859
30
0
10
-32.5
20
51.4859
30
0
10
-32.5
20
51.4859
30
0
10
-32.5
20
51.4859
30
0
10
-31.5
20
51.3596
30
0
10
-31.5
20
51.3596
30
0
10
-31.5
20
51.3596
30
0
10
-31.5
20
51.3596
30
0
10
-30.5
20
51.2343
30
0
10
-30.5
20
51.2343
30
0
10
-30.5
20
51.2343
30
0
10
-30.5
20
51.2343
30
0
10
-29.5
20
51.1099
30
0
10
-29.5
20
51.1099
30
0
10
-29.5
20
51.1099
30
0
10
-29.5
20
51.1099
30
0
10
-28.5
20
50.9865
30
0
10
-28.5
20
50.9865
30
0
10
-28.5
20
50.9865
30
0
10
-28.5
20
50.9865
30
0
10
-27.5
20
50.864
30
0
10
-27.5
20
50.864
30
0
10
-27.5
20
50.864
30
0
10
-27.5
20
50.864
30
0
10
-26.5
20
50.7423
30
0
10
-26.5
20
50.7423
30
0
10
-26.5
20
50.7423
30
0
10
-26.5
20
50.7423
30
0
10
-25.5
20
50.6216
30
0
10
-25.5
20
50.6216
30
0
10
-25.5
20
50.6216
30
0
10
-25.5
20
50.6216
30
0
10
-24.5
20
50.5017
30
0
10
-24.5
20
50.5017
30
0
10
-24.5
20
50.5017
30
0
10
-24.5
20
50.5017
30
0
10
-23.5
20
50.3826
30
0
10
-23.5
20
50.3826
30
0
10
-23.5
20
50.3826
30
0
10
-23.5
20
50.3826
30
0
10
-22.5
20
50.2644
30
0
10
-22.5
20
50.2644
30
0
10
-22.5
20
50.2644
30
0
10
-22.5
20
50.2644
30
0
10
-21.5
20
50.147
30
0
10
-21.5
20
50.147
30
0
10
-21.5
20
50.147
30
0
10
-21.5
20
50.147
30
0
10
-20.5
20
50.0305
30
0
10
-20.5
20
50.0305
30
0
10
-20.5
20
50.0305
30
0
10
-20.5
20
50.0305
30
0
10
-19.5
20
49.9147
30
0
10
-19.5
20
49.9147
30
0
10
-19.5
20
49.9147
30
0
10
-19.5
20
49.9147
30
0
10
-18.5
20
49.7998
30
0
10
-18.5
20
49.7998
30
0
10
-18.5
20
49.7998
30
0
10
-18.5
20
49.7998
30
0
10
-17.5
20
49.6856
30
0
10
-17.5
20
49.6856
30
0
10
-17.5
20
49.6856
30
0
10
-17.5
20
49.6856
30
0
10
-16.5
20
49.5722
30
0
10
-16.5
20
49.5722
30
0
10
-16.5
20
49.5722
30
0
10
-16.5
20
49.5722
30
0
10
-15.5
20
49.4595
30
0
10
-15.5
20
49.4595
30
0
10
-15.5
20
49.4595
30
0
10
-15.5
20
49.4595
30
0
10
-14.5
20
49.3477
30
0
10
-14.5
20
49.3477
30
0
10
-14.5
20
49.3477
30
0
10
-14.5
20
49.3477
30
0
10
-13.5
20
49.2365
30
0
10
-13.5
20
49.2365
30
0
10
-13.5
20
49.2365
30
0
10
-13.5
20
49.2365
30
0
10
-12.5
20
49.1261
30
0
10
-12.5
20
49.1261
30
0
10
-12.5
20
49.1261
30
0
10
-12.5
20
49.1261
30
0
10
-11.5
20
49.0165
30
0
10
-11.5
20
49.0165
30
0
10
-11.5
20
49.0165
30
0
10
-11.5
20
49.0165
30
0
10
-10.5
20
48.9075
30
0
10
-10.5
20
48.9075
30
0
10
-10.5
20
48.9075
30
0
10
-10.5
20
48.9075
30
0
10
-9.5
20
48.7993
30
0
10
-9.5
20
48.7993
30
0
10
-9.5
20
48.7993
30
0
10
-9.5
20
48.7993
30
0
10
-8.5
20
48.6918
30
0
10
-8.5
20
48.6918
30
0
10
-8.5
20
48.6918
30
0
10
-8.5
20
48.6918
30
0
10
-7.5
20
48.585
30
0
10
-7.5
20
48.585
30
0
10
-7.5
20
48.585
30
0
10
-7.5
20
48.585
30
0
10
-6.5
20
48.4789
30
0
10
-6.5
20
48.4789
30
0
10
-6.5
20
48.4789
30
0
10
-6.5
20
48.4789
30
0
10
-5.5
20
48.3736
30
0
10
-5.5
20
48.3736
30
0
10
-5.5
20
48.3736
30
0
10
-5.5
20
48.3736
30
0
10
-4.5
20
48.2689
30
0
10
-4.5
20
48.2689
30
0
10
-4.5
20
48.2689
30
0
10
-4.5
20
48.2689
30
0
10
-3.5
20
48.1648
30
0
10
-3.5
20
48.1648
30
0
10
-3.5
20
48.1648
30
0
10
-3.5
20
48.1648
30
0
10
-2.5
20
48.0615
30
0
10
-2.5
20
48.0615
30
0
10
-2.5
20
48.0615
30
0
10
-2.5
20
48.0615
30
0
10
-1.5
20
47.9588
30
0
10
-1.5
20
47.9588
30
0
10
-1.5
20
47.9588
30
0
10
-1.5
20
47.9588
30
0
10
-0.5
20
47.8569
30
0
10
-0.5
20
47.8569
30
0
10
-0.5
20
47.8569
30
0
10
-0.5
20
47.8569
30
0
10
0.5
20
47.7555
30
0
10
0.5
20
47.7555
30
0
10
0.5
20
47.7555
30
0
10
0.5
20
47.7555
30
0
10
1.5
20
47.6549
30
0
10
1.5
20
47.6549
30
0
10
1.5
20
47.6549
30
0
10
1.5
20
47.6549
30
0
10
2.5
20
47.5549
30
0
10
2.5
20
47.5549
30
0
10
2.5
20
47.5549
30
0
10
2.5
20
47.5549
30
0
10
3.5
20
47.4556
30
0
10
3.5
20
47.4556
30
0
10
3.5
20
47.4556
30
0
10
3.5
20
47.4556
30
0
10
4.5
20
47.3569
30
0
10
4.5
20
47.3569
30
0
10
4.5
20
47.3569
30
0
10
4.5
20
47.3569
30
0
10
5.5
20
47.2589
30
0
10
5.5
20
47.2589
30
0
10
5.5
20
47.2589
30
0
10
5.5
20
47.2589
30
0
10
6.5
20
47.1565
30
0
10
6.5
20
47.1565
30
0
10
6.5
20
47.1565
30
0
10
6.5
20
47.1565
30
0
10
7.5
20
47.0148
30
0
10
7.5
20
47.0148
30
0
10
7.5
20
47.0148
30
0
10
7.5
20
47.0148
30
0
10
8.5
20
46.8737
30
0
10
8.5
20
46.8737
30
0
10
8.5
20
46.8737
30
0
10
8.5
20
46.8737
30
0
10
9.5
20
46.7333
30
0
10
9.5
20
46.7333
30
0
10
9.5
20
46.7333
30
0
10
9.5
20
46.7333
30
0
10
10.5
20
46.5935
30
0
10
10.5
20
46.5935
30
0
10
10.5
20
46.5935
30
0
10
10.5
20
46.5935
30
0
10
11.5
20
46.4543
30
0
10
11.5
20
46.4543
30
0
10
11.5
20
46.4543
30
0
10
11.5
20
46.4543
30
0
10
12.5
20
46.3158
30
0
10
12.5
20
46.3158
30
0
10
12.5
20
46.3158
30
0
10
12.5
20
46.3158
30
0
10
13.5
20
46.178
30
0
10
13.5
20
46.178
30
0
10
13.5
20
46.178
30
0
10
13.5
20
46.178
30
0
10
14.5
20
46.0407
30
0
10
14.5
20
46.0407
30
0
10
14.5
20
46.0407
30
0
10
14.5
20
46.0407
30
0
10
15.5
20
45.9041
30
0
10
15.5
20
45.9041
30
0
10
15.5
20
45.9041
30
0
10
15.5
20
45.9041
30
0
10
16.5
20
45.7682
30
0
10
16.5
20
45.7682
30
0
10
16.5
20
45.7682
30
0
10
16.5
20
45.7682
30
0
10
17.5
20
45.6329
30
0
10
17.5
20
45.6329
30
0
10
17.5
20
45.6329
30
0
10
17.5
20
45.6329
30
0
10
18.5
20
45.4982
30
0
10
18.5
20
45.4982
30
0
10
18.5
20
45.4982
30
0
10
18.5
20
45.4982
30
0
10
19.5
20
45.3641
30
0
10
19.5
20
45.3641
30
0
10
19.5
20
45.3641
30
0
10
19.5
20
45.3641
30
0
10
20.5
20
45.2307
30
0
10
20.5
20
45.2307
30
0
10
20.5
20
45.2307
30
0
10
20.5
20
45.2307
30
0
10
21.5
20
45.098
30
0
10
21.5
20
45.098
30
0
10
21.5
20
45.098
30
0
10
21.5
20
45.098
30
0
10
22.5
20
44.9658
30
0
10
22.5
20
44.9658
30
0
10
22.5
20
44.9658
30
0
10
22.5
20
44.9658
30
0
10
23.5
20
44.8343
30
0
10
23.5
20
44.8343
30
0
10
23.5
20
44.8343
30
0
10
23.5
20
44.8343
30
0
10
24.5
20
44.7035
30
0
10
24.5
20
44.7035
30
0
10
24.5
20
44.7035
30
0
10
24.5
20
44.7035
30
0
10
25.5
20
44.5733
30
0
10
25.5
20
44.5733
30
0
10
25.5
20
44.5733
30
0
10
25.5
20
44.5733
30
0
10
26.5
20
44.4437
30
0
10
26.5
20
44.4437
30
0
10
26.5
20
44.4437
30
0
10
26.5
20
44.4437
30
0
10
27.5
20
44.3148
30
0
10
27.5
20
44.3148
30
0
10
27.5
20
44.3148
30
0
10
27.5
20
44.3148
30
0
10
28.5
20
44.1865
30
0
10
28.5
20
44.1865
30
0
10
28.5
20
44.1865
30
0
10
28.5
20
44.1865
30
0
10
29.5
20
44.0589
30
0
10
29.5
20
44.0589
30
0
10
29.5
20
44.0589
30
0
10
29.5
20
44.0589
30
0
10
30.5
20
43.9319
30
0
10
30.5
20
43.9319
30
0
10
30.5
20
43.9319
30
0
10
30.5
20
43.9319
30
0
10
31.5
20
43.8056
30
0
10
31.5
20
43.8056
30
0
10
31.5
20
43.8056
30
0
10
31.5
20
43.8056
30
0
10
32.5
20
43.6799
30
0
10
32.5
20
43.6799
30
0
10
32.5
20
43.6799
30
0
10
32.5
20
43.6799
30
0
10
33.5
20
43.5549
30
0
10
33.5
20
43.5549
30
0
10
33.5
20
43.5549
30
0
10
33.5
20
43.5549
30
0
10
34.5
20
43.4305
30
0
10
34.5
20
43.4305
30
0
10
34.5
20
43.4305
30
0
10
34.5
20
43.4305
30
0
10
35.5
20
43.3069
30
0
10
35.5
20
43.3069
30
0
10
35.5
20
43.3069
30
0
10
35.5
20
43.3069
30
0
10
36.5
20
43.1838
30
0
10
36.5
20
43.1838
30
0
10
36.5
20
43.1838
30
0
10
36.5
20
43.1838
30
0
10
37.5
20
43.0615
30
0
10
37.5
20
43.0615
30
0
10
37.5
20
43.0615
30
0
10
37.5
20
43.0615
30
0
10
38.5
20
42.9398
30
0
10
38.5
20
42.9398
30
0
10
38.5
20
42.9398
30
0
10
38.5
20
42.9398
30
0
10
39.5
20
42.8189
30
0
10
39.5
20
42.8189
30
0
10
39.5
20
42.8189
30
0
10
39.5
20
42.8189
30
0
10
40.5
20
42.6986
30
0
10
40.5
20
42.6986
30
0
10
40.5
20
42.6986
30
0
10
40.5
20
42.6986
30
0
10
41.5
20
42.5789
30
0
10
41.5
20
42.5789
30
0
10
41.5
20
42.5789
30
0
10
41.5
20
42.5789
30
0
10
42.5
20
42.46
30
0
10
42.5
20
42.46
30
0
10
42.5
20
42.46
30
0
10
42.5
20
42.46
30
0
10
43.5
20
42.3418
30
0
10
43.5
20
42.3418
30
0
10
43.5
20
42.3418
30
0
10
43.5
20
42.3418
30
0
10
44.5
20
42.2243
30
0
10
44.5
20
42.2243
30
0
10
44.5
20
42.2243
30
0
10
44.5
20
42.2243
30
0
10
45.5
20
42.1075
30
0
10
45.5
20
42.1075
30
0
10
45.5
20
42.1075
30
0
10
45.5
20
42.1075
30
0
10
46.5
20
41.9915
30
0
10
46.5
20
41.9915
30
0
10
46.5
20
41.9915
30
0
10
46.5
20
41.9915
30
0
10
47.5
20
41.8761
30
0
10
47.5
20
41.8761
30
0
10
47.5
20
41.8761
30
0
10
47.5
20
41.8761
30
0
10
48.5
20
41.7615
30
0
10
48.5
20
41.7615
30
0
10
48.5
20
41.7615
30
0
10
48.5
20
41.7615
30
0
10
49.5
20
41.6477
30
0
10
49.5
20
41.6477
30
0
10
49.5
20
41.6477
30
0
10
49.5
20
41.6477
30
0
10
50.5
20
41.5345
30
0
10
50.5
20
41.5345
30
0
10
50.5
20
41.5345
30
0
10
50.5
20
41.5345
30
0
10
51.5
20
41.4222
30
0
10
51.5
20
41.4222
30
0
10
51.5
20
41.4222
30
0
10
51.5
20
41.4222
30
0
10
52.5
20
41.3106
30
0
10
52.5
20
41.3106
30
0
10
52.5
20
41.3106
30
0
10
52.5
20
41.3106
30
0
10
53.5
20
41.1998
30
0
10
53.5
20
41.1998
30
0
10
53.5
20
41.1998
30
0
10
53.5
20
41.1998
30
0
10
54.5
20
41.0897
30
0
10
54.5
20
41.0897
30
0
10
54.5
20
41.0897
30
0
10
54.5
20
41.0897
30
0
10
55.5
20
40.9805
30
0
10
55.5
20
40.9805
30
0
10
55.5
20
40.9805
30
0
10
55.5
20
40.9805
30
0
10
56.5
20
40.872
30
0
10
56.5
20
40.872
30
0
10
56.5
20
40.872
30
0
10
56.5
20
40.872
30
0
10
57.5
20
40.7644
30
0
10
57.5
20
40.7644
30
0
10
57.5
20
40.7644
30
0
10
57.5
20
40.7644
30
0
10
58.5
20
40.6576
30
0
10
58.5
20
40.6576
30
0
10
58.5
20
40.6576
30
0
10
58.5
20
40.6576
30
0
10
59.5
20
40.5517
30
0
10
59.5
20
40.5517
30
0
10
59.5
20
40.5517
30
0
10
59.5
20
40.5517
30
0
10
60.5
20
40.4466
30
0
10
60.5
20
40.4466
30
0
10
60.5
20
40.4466
30
0
10
60.5
20
40.4466
30
0
10
61.5
20
40.3423
30
0
10
61.5
20
40.3423
30
0
10
61.5
20
40.3423
30
0
10
61.5
20
40.3423
30
0
10
62.5
20
40.239
30
0
10
62.5
20
40.239
30
0
10
62.5
20
40.239
30
0
10
62.5
20
40.239
30
0
10
63.5
20
40.1365
30
0
10
63.5
20
40.1365
30
0
10
63.5
20
40.1365
30
0
10
63.5
20
40.1365
30
0
10
64.5
20
40.0349
30
0
10
64.5
20
40.0349
30
0
10
64.5
20
40.0349
30
0
10
64.5
20
40.0349
30
0
10
65.5
20
39.9343
30
0
10
65.5
20
39.9343
30
0
10
65.5
20
39.9343
30
0
10
65.5
20
39.9343
30
0
10
66.5
20
39.8346
30
0
10
66.5
20
39.8346
30
0
10
66.5
20
39.8346
30
0
10
66.5
20
39.8346
30
0
10
67.5
20
39.7359
30
0
10
67.5
20
39.7359
30
0
10
67.5
20
39.7359
30
0
10
67.5
20
39.7359
30
0
10
68.5
20
39.6381
30
0
10
68.5
20
39.6381
30
0
10
68.5
20
39.6381
30
0
10
68.5
20
39.6381
30
0
10
69.5
20
39.5414
30
0
10
69.5
20
39.5414
30
0
10
69.5
20
39.5414
30
0
10
69.5
20
39.5414
30
0
10
70.5
20
39.4457
30
0
10
70.5
20
39.4457
30
0
10
70.5
20
39.4457
30
0
10
70.5
20
39.4457
30
0
10
71.5
20
39.351
30
0
10
71.5
20
39.351
30
0
10
71.5
20
39.351
30
0
10
71.5
20
39.351
30
0
10
72.5
20
39.2574
30
0
10
72.5
20
39.2574
30
0
10
72.5
20
39.2574
30
0
10
72.5
20
39.2574
30
0
10
73.5
20
39.1649
30
0
10
73.5
20
39.1649
30
0
10
73.5
20
39.1649
30
0
10
73.5
20
39.1649
30
0
10
74.5
20
39.0735
30
0
10
74.5
20
39.0735
30
0
10
74.5
20
39.0735
30
0
10
74.5
20
39.0735
30
0
10
75.5
20
38.9832
30
0
10
75.5
20
38.9832
30
0
10
75.5
20
38.9832
30
0
10
75.5
20
38.9832
30
0
10
76.5
20
38.8941
30
0
10
76.5
20
38.8941
30
0
10
76.5
20
38.8941
30
0
10
76.5
20
38.8941
30
0
10
77.5
20
38.8063
30
0
10
77.5
20
38.8063
30
0
10
77.5
20
38.8063
30
0
10
77.5
20
38.8063
30
0
10
78.5
20
38.7197
30
0
10
78.5
20
38.7197
30
0
10
78.5
20
38.7197
30
0
10
78.5
20
38.7197
30
0
10
79.5
20
38.6343
30
0
10
79.5
20
38.6343
30
0
10
79.5
20
38.6343
30
0
10
79.5
20
38.6343
30
0
10
80.5
20
38.5503
30
0
10
80.5
20
38.5503
30
0
10
80.5
20
38.5503
30
0
10
80.5
20
38.5503
30
0
10
81.5
20
38.4676
30
0
10
81.5
20
38.4676
30
0
10
81.5
20
38.4676
30
0
10
81.5
20
38.4676
30
0
10
82.5
20
38.3864
30
0
10
82.5
20
38.3864
30
0
10
82.5
20
38.3864
30
0
10
82.5
20
38.3864
30
0
10
83.5
20
38.3066
30
0
10
83.5
20
38.3066
30
0
10
83.5
20
38.3066
30
0
10
83.5
20
38.3066
30
0
10
84.5
20
38.2283
30
0
10
84.5
20
38.2283
30
0
10
84.5
20
38.2283
30
0
10
84.5
20
38.2283
30
0
10
85.5
20
38.1515
30
0
10
85.5
20
38.1515
30
0
10
85.5
20
38.1515
30
0
10
85.5
20
38.1515
30
0
10
86.5
20
38.0764
30
0
10
86.5
20
38.0764
30
0
10
86.5
20
38.0764
30
0
10
86.5
20
38.0764
30
0
10
87.5
20
38.0029
30
0
10
87.5
20
38.0029
30
0
10
87.5
20
38.0029
30
0
10
87.5
20
38.0029
30
0
10
88.5
20
37.9312
30
0
10
88.5
20
37.9312
30
0
10
88.5
20
37.9312
30
0
10
88.5
20
37.9312
30
0
10
89.5
20
37.8614
30
0
10
89.5
20
37.8614
30
0
10
89.5
20
37.8614
30
0
10
89.5
20
37.8614
30
0
10
90.5
20
37.7934
30
0
10
90.5
20
37.7934
30
0
10
90.5
20
37.7934
30
0
10
90.5
20
37.7934
30
0
10
91.5
20
37.7274
30
0
10
91.5
20
37.7274
30
0
10
91.5
20
37.7274
30
0
10
91.5
20
37.7274
30
0
10
92.5
20
37.6635
30
0
10
92.5
20
37.6635
30
0
10
92.5
20
37.6635
30
0
10
92.5
20
37.6635
30
0
10
93.5
20
37.6018
30
0
10
93.5
20
37.6018
30
0
10
93.5
20
37.6018
30
0
10
93.5
20
37.6018
30
0
10
94.5
20
37.5425
30
0
10
94.5
20
37.5425
30
0
10
94.5
20
37.5425
30
0
10
94.5
20
37.5425
30
0
10
95.5
20
37.4856
30
0
10
95.5
20
37.4856
30
0
10
95.5
20
37.4856
30
0
10
95.5
20
37.4856
30
0
10
96.5
20
37.4313
30
0
10
96.5
20
37.4313
30
0
10
96.5
20
37.4313
30
0
10
96.5
20
37.4313
30
0
10
97.5
20
37.3797
30
0
10
97.5
20
37.3797
30
0
10
97.5
20
37.3797
30
0
10
97.5
20
37.3797
30
0
10
98.5
20
37.3311
30
0
10
98.5
20
37.3311
30
0
10
98.5
20
37.3311
30
0
10
98.5
20
37.3311
30
0
10
99.5
20
37.2857
30
0
10
99.5
20
37.2857
30
0
10
99.5
20
37.2857
30
0
10
99.5
20
37.2857
30
0
10
100.5
20
37.2436
30
0
10
100.5
20
37.2436
30
0
10
100.5
20
37.2436
30
0
10
100.5
20
37.2436
30
0
10
101.5
20
37.2053
30
0
10
101.5
20
37.2053
30
0
10
101.5
20
37.2053
30
0
10
101.5
20
37.2053
30
0
10
102.5
20
37.1709
30
0
10
102.5
20
37.1709
30
0
10
102.5
20
37.1709
30
0
10
102.5
20
37.1709
30
0
10
103.5
20
37.1409
30
0
10
103.5
20
37.1409
30
0
10
103.5
20
37.1409
30
0
10
103.5
20
37.1409
30
0
10
104.5
20
37.1157
30
0
10
104.5
20
37.1157
30
0
10
104.5
20
37.1157
30
0
10
104.5
20
37.1157
30
0
10
105.5
20
37.0958
30
0
10
105.5
20
37.0958
30
0
10
105.5
20
37.0958
30
0
10
105.5
20
37.0958
30
0
10
106.5
20
37.0818
30
0
10
106.5
20
37.0818
30
0
10
106.5
20
37.0818
30
0
10
106.5
20
37.0818
30
0
10
107.5
20
37.0746
30
0
10
107.5
20
37.0746
30
0
10
107.5
20
37.0746
30
0
10
107.5
20
37.0746
30
0
10
108.5
20
37.0751
30
0
10
108.5
20
37.0751
30
0
10
108.5
20
37.0751
30
0
10
108.5
20
37.0751
30
0
10
109.5
20
37.0846
30
0
10
109.5
20
37.0846
30
0
10
109.5
20
37.0846
30
0
10
109.5
20
37.0846
30
0
10
110.5
20
37.1047
30
0
10
110.5
20
37.1047
30
0
10
110.5
20
37.1047
30
0
10
110.5
20
37.1047
30
0
10
111.5
20
37.1377
30
0
10
111.5
20
37.1377
30
0
10
111.5
20
37.1377
30
0
10
111.5
20
37.1377
30
0
10
112.5
20
37.1869
30
0
10
112.5
20
37.1869
30
0
10
112.5
20
37.1869
30
0
10
112.5
20
37.1869
30
0
10
113.5
20
37.2572
30
0
10
113.5
20
37.2572
30
0
10
113.5
20
37.2572
30
0
10
113.5
20
37.2572
30
0
10
114.5
20
37.3571
30
0
10
114.5
20
37.3571
30
0
10
114.5
20
37.3571
30
0
10
114.5
20
37.3571
30
0
10
115.5
20
37.503
30
0
10
115.5
20
37.503
30
0
10
115.5
20
37.503
30
0
10
115.5
20
37.503
30
0
10
116.5
20
37.7368
30
0
10
116.5
20
37.7368
30
0
10
116.5
20
37.7368
30
0
10
116.5
20
37.7368
30
0
10
117.5
20
38.5
30
0
10
117.5
20
38.5
30
0
0
SPLINE
5
189
100
AcDbEntity
8
0
62
255
39
7500
100
AcDbSpline
210
0
220
0
230
1
70
0
71
3
72
12
73
8
74
0
42
1e-10
43
1e-10
40
0
40
0
40
0
40
0
40
0.5
40
0.5
40
0.5
40
0.5
40
1
40
1
40
1
40
1
10
-80
20
68
30
0
10
-81.3357
20
68.0369
30
0
10
-82.5369
20
66.8357
30
0
10
-82.5
20
65.5
30
0
10
-82.5
20
65.5
30
0
10
-82.5369
20
64.1643
30
0
10
-81.3357
20
62.9631
30
0
10
-80
20
63
30
0
0
SPLINE
5
190
100
AcDbEntity
8
0
62
255
39
7500
100
AcDbSpline
210
0
220
0
230
1
70
0
71
3
72
12
73
8
74
0
42
1e-10
43
1e-10
40
0
40
0
40
0
40
0
40
0.5
40
0.5
40
0.5
40
0.5
40
1
40
1
40
1
40
1
10
115
20
41
30
0
10
116.336
20
40.9631
30
0
10
117.537
20
42.1643
30
0
10
117.5
20
43.5
30
0
10
117.5
20
43.5
30
0
10
117.537
20
44.8357
30
0
10
116.336
20
46.0369
30
0
10
115
20
46
30
0
0
SPLINE
5
191
100
AcDbEntity
8
0
62
255
39
7500
100
AcDbSpline
210
0
220
0
230
1
70
0
71
3
72
12
73
8
74
0
42
1e-10
43
1e-10
40
0
40
0
40
0
40
0
40
0.5
40
0.5
40
0.5
40
0.5
40
1
40
1
40
1
40
1
10
-80
20
64
30
0
10
-81.3357
20
64.0369
30
0
10
-82.5369
20
62.8357
30
0
10
-82.5
20
61.5
30
0
10
-82.5
20
61.5
30
0
10
-82.5369
20
60.1643
30
0
10
-81.3357
20
58.9631
30
0
10
-80
20
59
30
0
0
SPLINE
5
192
100
AcDbEntity
8
0
62
255
39
7500
100
AcDbSpline
210
0
220
0
230
1
70
0
71
3
72
12
73
8
74
0
42
1e-10
43
1e-10
40
0
40
0
40
0
40
0
40
0.5
40
0.5
40
0.5
40
0.5
40
1
40
1
40
1
40
1
10
115
20
36
30
0
10
116.336
20
35.9631
30
0
10
117.537
20
37.1643
30
0
10
117.5
20
38.5
30
0
10
117.5
20
38.5
30
0
10
117.537
20
39.8357
30
0
10
116.336
20
41.0369
30
0
10
115
20
41
30
0
0
SPLINE
5
193
100
AcDbEntity
8
0
62
255
39
2500
100
AcDbSpline
210
0
220
0
230
1
70
0
71
3
72
20
73
16
74
0
42
1e-10
43
1e-10
40
0
40
0
40
0
40
0
40
0.25
40
0.25
40
0.25
40
0.25
40
0.5
40
0.5
40
0.5
40
0.5
40
0.75
40
0.75
40
0.75
40
0.75
40
1
40
1
40
1
40
1
10
-112.5
20
-78.5
30
0
10
-112.5
20
-78.5
30
0
10
-112.5
20
-39.5
30
0
10
-112.5
20
-39.5
30
0
10
-112.5
20
-39.5
30
0
10
-112.5
20
-39.5
30
0
10
120.5
20
-39.5
30
0
10
120.5
20
-39.5
30
0
10
120.5
20
-39.5
30
0
10
120.5
20
-39.5
30
0
10
120.5
20
-78.5
30
0
10
120.5
20
-78.5
30
0
10
120.5
20
-78.5
30
0
10
120.5
20
-78.5
30
0
10
-112.5
20
-78.5
30
0
10
-112.5
20
-78.5
30
0
0
SPLINE
5
194
100
AcDbEntity
8
0
62
255
39
2500
100
AcDbSpline
210
0
220
0
230
1
70
0
71
3
72
8
73
4
74
0
42
1e-10
43
1e-10
40
0
40
0
40
0
40
0
40
1
40
1
40
1
40
1
10
-112.5
20
-52.5
30
0
10
-112.5
20
-52.5
30
0
10
120.5
20
-52.5
30
0
10
120.5
20
-52.5
30
0
0
SPLINE
5
195
100
AcDbEntity
8
0
62
255
39
2500
100
AcDbSpline
210
0
220
0
230
1
70
0
71
3
72
8
73
4
74
0
42
1e-10
43
1e-10
40
0
40
0
40
0
40
0
40
1
40
1
40
1
40
1
10
-112.5
20
-67.5
30
0
10
-112.5
20
-67.5
30
0
10
120.5
20
-67.5
30
0
10
120.5
20
-67.5
30
0
0
SPLINE
5
196
100
AcDbEntity
8
0
62
255
39
2500
100
AcDbSpline
210
0
220
0
230
1
70
0
71
3
72
8
73
4
74
0
42
1e-10
43
1e-10
40
0
40
0
40
0
40
0
40
1
40
1
40
1
40
1
10
-84.5
20
-39.5
30
0
10
-84.5
20
-39.5
30
0
10
-84.5
20
-78.5
30
0
10
-84.5
20
-78.5
30
0
0
TEXT
100
AcDbText
8
0
62
255
10
-111
20
-47
30
0
11
-111
21
-47
31
0
72
0
73
0
40
3.04801
1
\u+0420\u+0430\u+0441\u+0441\u+0442\u+043e\u+044f\u+043d\u+0438\u+0435\u+002c\u+0020\u+043a\u+043c
50
0
7
GOST
100
AcDbText
0
TEXT
100
AcDbText
8
0
62
255
10
-111
20
-61
30
0
11
-111
21
-61
31
0
72
0
73
0
40
3.04801
1
\u+0423\u+0440\u+043e\u+0432\u+0435\u+043d\u+044c\u+0020\u+0437\u+0435\u+043c\u+043b\u+0438\u+002c\u+0020\u+043c
50
0
7
GOST
100
AcDbText
0
TEXT
100
AcDbText
8
0
62
255
10
-111
20
-72.1
30
0
11
-111
21
-72.1
31
0
72
0
73
0
40
3.04801
1
\u+0412\u+044b\u+0441\u+043e\u+0442\u+0430\u+000d\u+043f\u+0440\u+0435\u+043f\u+044f\u+0442\u+0441\u+0442\u+0432\u+0438\u+044f\u+002c\u+0020\u+043c
50
0
7
GOST
100
AcDbText
0
TEXT
100
AcDbText
8
0
62
255
10
-81.4
20
-50.5
30
0
11
-81.4
21
-50.5
31
0
72
0
73
0
40
2.286
1
\u+0030
50
90
7
GOST
100
AcDbText
0
TEXT
100
AcDbText
8
0
62
255
10
-81.4
20
-63.5
30
0
11
-81.4
21
-63.5
31
0
72
0
73
0
40
2.286
1
\u+0030
50
90
7
GOST
100
AcDbText
0
TEXT
100
AcDbText
8
0
62
255
10
18.6
20
-50.5
30
0
11
18.6
21
-50.5
31
0
72
0
73
0
40
2.286
1
\u+0030\u+002e\u+0035
50
90
7
GOST
100
AcDbText
0
TEXT
100
AcDbText
8
0
62
255
10
18.6
20
-63.5
30
0
11
18.6
21
-63.5
31
0
72
0
73
0
40
2.286
1
\u+0032\u+0030
50
90
7
GOST
100
AcDbText
0
TEXT
100
AcDbText
8
0
62
255
10
118.6
20
-50.5
30
0
11
118.6
21
-50.5
31
0
72
0
73
0
40
2.286
1
\u+0031
50
90
7
GOST
100
AcDbText
0
TEXT
100
AcDbText
8
0
62
255
10
118.6
20
-63.5
30
0
11
118.6
21
-63.5
31
0
72
0
73
0
40
2.286
1
\u+0031\u+0030
50
90
7
GOST
100
AcDbText
0
TEXT
100
AcDbText
8
0
62
255
10
-1.4
20
-76.5
30
0
11
-1.4
21
-76.5
31
0
72
0
73
0
40
2.286
1
\u+0031\u+0030
50
90
7
GOST
100
AcDbText
0
TEXT
100
AcDbText
8
0
62
255
10
58.6
20
-76.5
30
0
11
58.6
21
-76.5
31
0
72
0
73
0
40
2.286
1
\u+0031\u+0030
50
90
7
GOST
100
AcDbText
0
SPLINE
5
197
100
AcDbEntity
8
0
62
255
39
4000
100
AcDbSpline
210
0
220
0
230
1
70
0
71
3
72
8
73
4
74
0
42
1e-10
43
1e-10
40
0
40
0
40
0
40
0
40
1
40
1
40
1
40
1
10
-87.5
20
65.5
30
0
10
-87.5
20
65.5
30
0
10
-92.5
20
65.5
30
0
10
-92.5
20
65.5
30
0
0
SPLINE
5
198
100
AcDbEntity
8
0
62
255
39
2500
100
AcDbSpline
210
0
220
0
230
1
70
0
71
3
72
12
73
8
74
0
42
1e-10
43
1e-10
40
0
40
0
40
0
40
0
40
0.5
40
0.5
40
0.5
40
0.5
40
1
40
1
40
1
40
1
10
-102.5
20
73.5
30
0
10
-102.5
20
73.5
30
0
10
-90
20
73.5
30
0
10
-90
20
73.5
30
0
10
-90
20
73.5
30
0
10
-90
20
73.5
30
0
10
-90
20
67.6333
30
0
10
-90
20
67.6333
30
0
0
SOLID
5
199
100
AcDbEntity
8
0
62
255
100
AcDbTrace
10
-90
20
67.6333
11
-91
21
68.1667
12
-89
22
68.1667
13
-90
23
65.5
0
TEXT
100
AcDbText
8
0
62
255
10
-96.25
20
74.2
30
0
11
-96.25
21
74.2
31
0
72
1
73
0
40
2.54
1
\u+0035\u+0032\u+0020\u+043c\u+000d\u+0048\u+0020\u+0446\u+002e\u+0440\u+002e\u+000d\u+043e\u+0441\u+043d\u+002e
50
0
7
GOST
100
AcDbText
0
SPLINE
5
200
100
AcDbEntity
8
0
62
255
39
4000
100
AcDbSpline
210
0
220
0
230
1
70
0
71
3
72
8
73
4
74
0
42
1e-10
43
1e-10
40
0
40
0
40
0
40
0
40
1
40
1
40
1
40
1
10
122.5
20
43.5
30
0
10
122.5
20
43.5
30
0
10
127.5
20
43.5
30
0
10
127.5
20
43.5
30
0
0
SPLINE
5
201
100
AcDbEntity
8
0
62
255
39
2500
100
AcDbSpline
210
0
220
0
230
1
70
0
71
3
72
12
73
8
74
0
42
1e-10
43
1e-10
40
0
40
0
40
0
40
0
40
0.5
40
0.5
40
0.5
40
0.5
40
1
40
1
40
1
40
1
10
137.5
20
51.5
30
0
10
137.5
20
51.5
30
0
10
125
20
51.5
30
0
10
125
20
51.5
30
0
10
125
20
51.5
30
0
10
125
20
51.5
30
0
10
125
20
45.6333
30
0
10
125
20
45.6333
30
0
0
SOLID
5
202
100
AcDbEntity
8
0
62
255
100
AcDbTrace
10
125
20
45.6333
11
124
21
46.1667
12
126
22
46.1667
13
125
23
43.5
0
TEXT
100
AcDbText
8
0
62
255
10
131.25
20
52.2
30
0
11
131.25
21
52.2
31
0
72
1
73
0
40
2.54
1
\u+0033\u+0031\u+0020\u+043c\u+000d\u+0048\u+0020\u+0446\u+002e\u+0440\u+002e\u+000d\u+043e\u+0441\u+043d\u+002e
50
0
7
GOST
100
AcDbText
0
SPLINE
5
203
100
AcDbEntity
8
0
62
255
39
4000
100
AcDbSpline
210
0
220
0
230
1
70
0
71
3
72
8
73
4
74
0
42
1e-10
43
1e-10
40
0
40
0
40
0
40
0
40
1
40
1
40
1
40
1
10
-87.5
20
61.5
30
0
10
-87.5
20
61.5
30
0
10
-92.5
20
61.5
30
0
10
-92.5
20
61.5
30
0
0
SPLINE
5
204
100
AcDbEntity
8
0
62
255
39
2500
100
AcDbSpline
210
0
220
0
230
1
70
0
71
3
72
12
73
8
74
0
42
1e-10
43
1e-10
40
0
40
0
40
0
40
0
40
0.5
40
0.5
40
0.5
40
0.5
40
1
40
1
40
1
40
1
10
-102.5
20
53.5
30
0
10
-102.5
20
53.5
30
0
10
-90
20
53.5
30
0
10
-90
20
53.5
30
0
10
-90
20
53.5
30
0
10
-90
20
53.5
30
0
10
-90
20
59.3667
30
0
10
-90
20
59.3667
30
0
0
SOLID
5
205
100
AcDbEntity
8
0
62
255
100
AcDbTrace
10
-90
20
59.3667
11
-89
21
58.8333
12
-91
22
58.8333
13
-90
23
61.5
0
TEXT
100
AcDbText
8
0
62
255
10
-96.25
20
54.2
30
0
11
-96.25
21
54.2
31
0
72
1
73
0
40
2.54
1
\u+0035\u+0030\u+0020\u+043c\u+000d\u+0048\u+0020\u+0446\u+002e\u+0440\u+002e\u+000d\u+0434\u+043e\u+043f\u+002e
50
0
7
GOST
100
AcDbText
0
SPLINE
5
206
100
AcDbEntity
8
0
62
255
39
4000
100
AcDbSpline
210
0
220
0
230
1
70
0
71
3
72
8
73
4
74
0
42
1e-10
43
1e-10
40
0
40
0
40
0
40
0
40
1
40
1
40
1
40
1
10
122.5
20
38.5
30
0
10
122.5
20
38.5
30
0
10
127.5
20
38.5
30
0
10
127.5
20
38.5
30
0
0
SPLINE
5
207
100
AcDbEntity
8
0
62
255
39
2500
100
AcDbSpline
210
0
220
0
230
1
70
0
71
3
72
12
73
8
74
0
42
1e-10
43
1e-10
40
0
40
0
40
0
40
0
40
0.5
40
0.5
40
0.5
40
0.5
40
1
40
1
40
1
40
1
10
137.5
20
30.5
30
0
10
137.5
20
30.5
30
0
10
125
20
30.5
30
0
10
125
20
30.5
30
0
10
125
20
30.5
30
0
10
125
20
30.5
30
0
10
125
20
36.3667
30
0
10
125
20
36.3667
30
0
0
SOLID
5
208
100
AcDbEntity
8
0
62
255
100
AcDbTrace
10
125
20
36.3667
11
126
21
35.8333
12
124
22
35.8333
13
125
23
38.5
0
TEXT
100
AcDbText
8
0
62
255
10
131.25
20
31.2
30
0
11
131.25
21
31.2
31
0
72
1
73
0
40
2.54
1
\u+0032\u+0038\u+002e\u+0035\u+0020\u+043c\u+000d\u+0048\u+0020\u+0446\u+002e\u+0440\u+002e\u+000d\u+0434\u+043e\u+043f\u+002e
50
0
7
GOST
100
AcDbText
0
SPLINE
5
209
100
AcDbEntity
8
0
62
255
39
3000
100
AcDbSpline
210
0
220
0
230
1
70
0
71
3
72
8
73
4
74
0
42
1e-10
43
1e-10
40
0
40
0
40
0
40
0
40
1
40
1
40
1
40
1
10
-87
20
-88.5
30
0
10
-87
20
-88.5
30
0
10
3
20
-88.5
30
0
10
-0.2
20
-88.5
30
0
0
SOLID
5
210
100
AcDbEntity
8
0
62
255
100
AcDbTrace
10
-0.2
20
-88.5
11
-1
21
-89.5
12
-1
22
-87.5
13
3
23
-88.5
0
TEXT
100
AcDbText
8
0
62
255
10
-42
20
-87.5
30
0
11
-42
21
-87.5
31
0
72
1
73
0
40
3.04801
1
\u+041f\u+0440\u+044f\u+043c\u+043e\u+0439\u+0020\u+0430\u+0437\u+0438\u+043c\u+0443\u+0442\u+0020\u+0030\u+0020\u+0433\u+0440\u+0430\u+0434\u+002e\u+0020\u+0030\u+0020\u+043c\u+0438\u+043d\u+002e
50
0
7
GOST
100
AcDbText
0
SPLINE
5
211
100
AcDbEntity
8
0
62
255
39
3000
100
AcDbSpline
210
0
220
0
230
1
70
0
71
3
72
8
73
4
74
0
42
1e-10
43
1e-10
40
0
40
0
40
0
40
0
40
1
40
1
40
1
40
1
10
3
20
-94.5
30
0
10
3
20
-94.5
30
0
10
-87
20
-94.5
30
0
10
-83.8
20
-94.5
30
0
0
SOLID
5
212
100
AcDbEntity
8
0
62
255
100
AcDbTrace
10
-83.8
20
-94.5
11
-83
21
-93.5
12
-83
22
-95.5
13
-87
23
-94.5
0
TEXT
100
AcDbText
8
0
62
255
10
-42
20
-93.5
30
0
11
-42
21
-93.5
31
0
72
1
73
0
40
3.04801
1
\u+041e\u+0431\u+0440\u+0430\u+0442\u+043d\u+044b\u+0439\u+0020\u+0430\u+0437\u+0438\u+043c\u+0443\u+0442\u+0020\u+0030\u+0020\u+0433\u+0440\u+0430\u+0434\u+002e\u+0020\u+0030\u+0020\u+043c\u+0438\u+043d\u+002e
50
0
7
GOST
100
AcDbText
0
TEXT
100
AcDbText
8
0
62
255
10
-155
20
-108.5
30
0
11
-155
21
-108.5
31
0
72
1
73
0
40
3.04801
1
\u+0423\u+0441\u+043b\u+043e\u+0432\u+043d\u+044b\u+0435\u+0020\u+043e\u+0431\u+043e\u+0437\u+043d\u+0430\u+0447\u+0435\u+043d\u+0438\u+044f
50
0
7
GOST
100
AcDbText
0
SPLINE
5
213
100
AcDbEntity
8
0
62
255
39
2000
100
AcDbSpline
210
0
220
0
230
1
70
0
71
3
72
16
73
12
74
0
42
1e-10
43
1e-10
40
0
40
0
40
0
40
0
40
0.333333
40
0.333333
40
0.333333
40
0.333333
40
0.666667
40
0.666667
40
0.666667
40
0.666667
40
1
40
1
40
1
40
1
10
-174
20
-117.5
30
0
10
-174
20
-117.5
30
0
10
-174
20
-111.5
30
0
10
-174
20
-111.5
30
0
10
-174
20
-111.5
30
0
10
-174
20
-111.5
30
0
10
-171
20
-111.5
30
0
10
-171
20
-111.5
30
0
10
-171
20
-111.5
30
0
10
-171
20
-111.5
30
0
10
-171
20
-117.5
30
0
10
-171
20
-117.5
30
0
0
SPLINE
5
214
100
AcDbEntity
8
0
62
255
39
2000
100
AcDbSpline
210
0
220
0
230
1
70
0
71
3
72
8
73
4
74
0
42
1e-10
43
1e-10
40
0
40
0
40
0
40
0
40
1
40
1
40
1
40
1
10
-173
20
-117.5
30
0
10
-173
20
-117.5
30
0
10
-173
20
-111.5
30
0
10
-173
20
-111.5
30
0
0
SPLINE
5
215
100
AcDbEntity
8
0
62
255
39
2000
100
AcDbSpline
210
0
220
0
230
1
70
0
71
3
72
8
73
4
74
0
42
1e-10
43
1e-10
40
0
40
0
40
0
40
0
40
1
40
1
40
1
40
1
10
-172
20
-117.5
30
0
10
-172
20
-117.5
30
0
10
-172
20
-111.5
30
0
10
-172
20
-111.5
30
0
0
TEXT
100
AcDbText
8
0
62
255
10
-164
20
-117.5
30
0
11
-164
21
-117.5
31
0
72
0
73
0
40
3.04801
1
\u+002d\u+0020\u+0437\u+0430\u+0441\u+0442\u+0440\u+043e\u+0439\u+043a\u+0430
50
0
7
GOST
100
AcDbText
0
SPLINE
5
216
100
AcDbEntity
8
0
62
3
39
2000
100
AcDbSpline
210
0
220
0
230
1
70
0
71
3
72
16
73
12
74
0
42
1e-10
43
1e-10
40
0
40
0
40
0
40
0
40
0.333333
40
0.333333
40
0.333333
40
0.333333
40
0.666667
40
0.666667
40
0.666667
40
0.666667
40
1
40
1
40
1
40
1
10
-174
20
-124.5
30
0
10
-174
20
-124.5
30
0
10
-174
20
-118.5
30
0
10
-174
20
-118.5
30
0
10
-174
20
-118.5
30
0
10
-174
20
-118.5
30
0
10
-171
20
-118.5
30
0
10
-171
20
-118.5
30
0
10
-171
20
-118.5
30
0
10
-171
20
-118.5
30
0
10
-171
20
-124.5
30
0
10
-171
20
-124.5
30
0
0
SPLINE
5
217
100
AcDbEntity
8
0
62
3
39
2000
100
AcDbSpline
210
0
220
0
230
1
70
0
71
3
72
8
73
4
74
0
42
1e-10
43
1e-10
40
0
40
0
40
0
40
0
40
1
40
1
40
1
40
1
10
-173
20
-124.5
30
0
10
-173
20
-124.5
30
0
10
-173
20
-118.5
30
0
10
-173
20
-118.5
30
0
0
SPLINE
5
218
100
AcDbEntity
8
0
62
3
39
2000
100
AcDbSpline
210
0
220
0
230
1
70
0
71
3
72
8
73
4
74
0
42
1e-10
43
1e-10
40
0
40
0
40
0
40
0
40
1
40
1
40
1
40
1
10
-172
20
-124.5
30
0
10
-172
20
-124.5
30
0
10
-172
20
-118.5
30
0
10
-172
20
-118.5
30
0
0
TEXT
100
AcDbText
8
0
62
255
10
-164
20
-124.5
30
0
11
-164
21
-124.5
31
0
72
0
73
0
40
3.04801
1
\u+002d\u+0020\u+043b\u+0435\u+0441\u+043d\u+043e\u+0439\u+0020\u+043c\u+0430\u+0441\u+0441\u+0438\u+0432
50
0
7
GOST
100
AcDbText
0
SPLINE
5
219
100
AcDbEntity
8
0
6
Dash_line1
62
1
39
3000
100
AcDbSpline
210
0
220
0
230
1
70
0
71
3
72
8
73
4
74
0
42
1e-10
43
1e-10
40
0
40
0
40
0
40
0
40
1
40
1
40
1
40
1
10
-174
20
-129.75
30
0
10
-174
20
-129.75
30
0
10
-168
20
-129.75
30
0
10
-168
20
-129.75
30
0
0
TEXT
100
AcDbText
8
0
62
255
10
-164
20
-131.5
30
0
11
-164
21
-131.5
31
0
72
0
73
0
40
3.04801
1
\u+002d\u+0020\u+043e\u+0445\u+0440\u+0430\u+043d\u+043d\u+0430\u+044f\u+0020\u+0437\u+043e\u+043d\u+0430\u+0020\u+0440\u+0430\u+0434\u+0438\u+043e\u+043b\u+0443\u+0447\u+0430
50
0
7
GOST
100
AcDbText
0
TEXT
100
AcDbText
8
0
62
255
10
-82.5
20
-82.7
30
0
11
-82.5
21
-82.7
31
0
72
1
73
0
40
3.04801
1
\u+000a
50
0
7
GOST
100
AcDbText
0
TEXT
100
AcDbText
8
0
62
255
10
120.5
20
-82.7
30
0
11
120.5
21
-82.7
31
0
72
1
73
0
40
3.04801
1
\u+000a
50
0
7
GOST
100
AcDbText
0
TEXT
100
AcDbText
8
0
62
255
10
-105.5
20
-105
30
0
11
-105.5
21
-105
31
0
72
0
73
0
40
3.04801
1
\u+0031\u+002e\u+0020\u+041f\u+0440\u+043e\u+0444\u+0438\u+043b\u+044c\u+0020\u+0441\u+043e\u+0441\u+0442\u+0430\u+0432\u+043b\u+0435\u+043d\u+0020\u+0441\u+0020\u+0443\u+0447\u+0435\u+0442\u+043e\u+043c\u+0020\u+043a\u+0440\u+0438\u+0432\u+0438\u+0437\u+043d\u+044b\u+0020\u+0437\u+0435\u+043c\u+043b\u+0438\u+000d\u+0020\u+0020\u+043f\u+0440\u+0438\u+0020\u+044d\u+0444\u+0444\u+002e\u+0020\u+0067\u+003d\u+0033\u+0031\u+0034\u+0030\u+0030\u+0078\u+0045\u+002d\u+0038\u+0020\u+0028\u+0031\u+002f\u+043c\u+0029\u+003b\u+000d\u+0032\u+002e\u+0020\u+041f\u+0440\u+043e\u+0444\u+0438\u+043b\u+044c\u+0020\u+0441\u+043e\u+0441\u+0442\u+0430\u+0432\u+043b\u+0435\u+043d\u+0020\u+043f\u+043e\u+0020\u+043a\u+0430\u+0440\u+0442\u+0430\u+043c\u+0020\u+043c\u+0430\u+0441\u+0448\u+0442\u+0430\u+0431\u+0430\u+0020\u+041c\u+0031\u+003a\u+0032\u+0020\u+0030\u+0030\u+0030\u+003b\u+000d\u+0033\u+002e\u+0020\u+041f\u+043e\u+0433\u+0440\u+0435\u+0448\u+043d\u+043e\u+0441\u+0442\u+044c\u+0020\u+043e\u+0442\u+043c\u+0435\u+0442\u+043e\u+043a\u+0020\u+0437\u+0435\u+043c\u+043b\u+0438\u+0020\u+0033\u+0020\u+0028\u+043c\u+0029\u+003b\u+000d\u+0034\u+002e\u+0020\u+041c\u+0430\u+0441\u+0448\u+0442\u+0430\u+0431\u+0020\u+043f\u+043e\u+0020\u+0433\u+043e\u+0440\u+0438\u+0437\u+043e\u+043d\u+0442\u+0430\u+043b\u+0438\u+0020\u+041c\u+0031\u+003a\u+0035\u+0020\u+0030\u+0030\u+0030\u+002c\u+0020\u+043f\u+043e\u+0020\u+0432\u+0435\u+0440\u+0442\u+0438\u+043a\u+0430\u+043b\u+0438\u+0020\u+041c\u+0031\u+003a\u+0035\u+0030\u+0030\u+003b\u+000d\u+0035\u+002e\u+0020\u+0423\u+0440\u+043e\u+0432\u+0435\u+043d\u+044c\u+0020\u+0443\u+0441\u+043b\u+043e\u+0432\u+043d\u+043e\u+0433\u+043e\u+0020\u+0433\u+043e\u+0440\u+0438\u+0437\u+043e\u+043d\u+0442\u+0430\u+0020\u+0030\u+0020\u+0028\u+043c\u+0029\u+003b\u+000d\u+0036\u+002e\u+0020\u+041e\u+0442\u+043c\u+0435\u+0442\u+043a\u+0438\u+0020\u+0437\u+0435\u+043c\u+043b\u+0438\u+0020\u+043f\u+0440\u+0438\u+0432\u+0435\u+0434\u+0435\u+043d\u+044b\u+0020\u+0432\u+0020\u+0411\u+0430\u+043b\u+0442\u+0438\u+0439\u+0441\u+043a\u+043e\u+0439\u+0020\u+0441\u+0438\u+0441\u+0442\u+0435\u+043c\u+0435\u+0020\u+0432\u+044b\u+0441\u+043e\u+0442\u+002e
50
0
7
GOST
100
AcDbText
0
ENDSEC
0
EOF